<svg class="svg-icon" style="width: 1em; height: 1em;vertical-align: middle;fill: #7D7C7C;overflow: hidden;"
    viewBox="0 0 1024 1024" version="1.1" xmlns="http://www.w3.org/2000/svg">
    <path
        d="M352.4 404.2H171c-0.6 0-1.1-0.5-1.1-1.1v-9.9c0-0.6 0.5-1.1 1.1-1.1h181.4c0.6 0 1.1 0.5 1.1 1.1v9.9c0 0.6-0.5 1.1-1.1 1.1zM352.4 523.4H171c-0.6 0-1.1-0.5-1.1-1.1v-9.9c0-0.6 0.5-1.1 1.1-1.1h181.4c0.6 0 1.1 0.5 1.1 1.1v9.9c0 0.6-0.5 1.1-1.1 1.1zM352.4 642.6H171c-0.6 0-1.1-0.5-1.1-1.1v-9.9c0-0.6 0.5-1.1 1.1-1.1h181.4c0.6 0 1.1 0.5 1.1 1.1v9.9c0 0.6-0.5 1.1-1.1 1.1z" />
    <path
        d="M389.4 924.4c0-7.2-5.9-13.1-13.1-13.1H129.8c-18.9 0-34.3-14.3-34.3-31.8V117.8c0-17.5 15.4-31.8 34.3-31.8h506.1c18.9 0 34.3 14.3 34.3 31.8v187.6c0 7.8 6.3 14.1 14.1 14.1s14.1-6.3 14.1-14.1V117.8c0-31.9-28-57.9-62.5-57.9H129.8c-34.5 0-62.5 26-62.5 57.9v761.8c0 31.9 28 57.9 62.5 57.9h246.5c7.2 0 13.1-5.8 13.1-13.1z" />
    <path
        d="M683.4 661.4c-83.3 0-151-66.5-151-148.3s67.7-148.3 151-148.3 151 66.5 151 148.3-67.7 148.3-151 148.3z m0-269.1C615.3 392.3 560 446.4 560 513s55.4 120.8 123.4 120.8c68.1 0 123.4-54.2 123.4-120.8s-55.3-120.7-123.4-120.7zM746.8 958.2H634.4c-53.7 0-100.2 0-134.2-6.8-37.5-7.5-54.9-22.7-54.9-47.8v-10.9c0-102.5 84.8-186 189.1-186h112.4c104.3 0 189.1 83.4 189.1 186v10.9c0 25.1-17.4 40.3-54.9 47.8-34 6.8-80.4 6.8-134.2 6.8zM634.4 734.1c-89.1 0-161.6 71.1-161.6 158.4v10.9c0 5 0 14.2 32.7 20.8 31.4 6.3 76.5 6.3 128.8 6.3h112.4c52.3 0 97.4 0 128.8-6.3 32.8-6.6 32.7-15.8 32.7-20.8v-10.9c0-87.3-72.5-158.4-161.6-158.4H634.4z" />
    <path
        d="M757.2 472.3c2-1.1 2.7-3.7 1.6-5.7-7.3-12.3-17.5-22.6-29.6-30-12.2-7.5-26.3-12.1-41.4-12.8-2.3-0.1-4.3 1.8-4.3 4.2 0 2.2 1.8 4 4 4.1 13.7 0.7 26.5 4.9 37.5 11.7 10.9 6.7 20.1 16 26.6 27 1.1 1.9 3.6 2.6 5.6 1.5zM770 498.5c-0.6-4.1-1.5-8-2.6-11.9-0.7-2.3-3.3-3.5-5.6-2.5-2 0.8-2.9 3-2.3 5 1 3.4 1.8 6.9 2.3 10.5 0.3 2.3 2.4 3.9 4.7 3.6 2.2-0.4 3.8-2.4 3.5-4.7zM763.2 547c3.6-7.9 6-16.4 7.1-25.3 0.3-2.2-1.4-4.2-3.6-4.6-2.3-0.3-4.4 1.4-4.6 3.7-1 8-3.2 15.6-6.3 22.7-1 2.2 0 4.8 2.3 5.6 1.9 0.8 4.2-0.1 5.1-2.1z" />
    <path
        d="M208.8 161.2c6.8 5 10.7 12.8 11.6 23.4h-14.7c-1.4-6.5-3.9-11-7.6-13.6-3.7-2.8-9.3-4.2-16.6-4.2-6.4 0-11.3 1-14.7 2.9-4.2 2.2-6.3 5.7-6.3 10.6 0 4.4 2.4 7.8 7.2 10.4 2.4 1.4 8 3.4 16.9 6 13.4 4.2 21.9 7.4 25.5 9.5 8.4 5.1 12.5 12.1 12.5 21 0 8.6-3.4 15.5-10.2 20.6-6.8 4.9-16.4 7.4-28.6 7.4-11.7 0-21-2.4-27.8-7.1-8-5.7-12.4-14.7-13.2-27h14.7c1.1 7.7 3.8 13.2 8.2 16.5 4 3 10 4.5 18.1 4.5 7.2 0 13-1.3 17.6-3.8 4.4-2.5 6.5-5.9 6.5-10.2 0-5.4-3.1-9.6-9.3-12.8-2.3-1.1-8.7-3.3-19.4-6.5-12.2-3.9-19.6-6.6-22.4-8-7.5-4.5-11.2-10.9-11.2-19.5 0-8.5 3.6-15.3 10.8-20.2 6.8-4.6 15.4-7 25.8-7 11.5-0.2 20.3 2.3 26.6 7.1zM235 182.7h14.4v42.9c0 6.1 1.3 10.5 3.8 13.1 2.5 2.8 6.6 4.2 12.1 4.2 3.6 0 7.1-1.5 10.5-4.6 3.3-3.2 5.5-7.4 6.8-12.5v-43.1H297v70.5h-14.4v-9.5c-6 7.6-13.4 11.5-22.2 11.5-17 0-25.5-9.5-25.5-28.5v-44zM313.6 153.9H328v39.3c5.7-8.3 12.9-12.4 21.5-12.4 10.1 0 18 3.7 23.9 11 5.4 6.9 8 15.5 8 25.8 0 10.8-2.7 19.6-8.2 26.4-6 7.4-14.1 11-24.4 11-9.5 0-16.8-3.5-21.8-10.4v8.5h-13.5v-99.2z m19.7 45c-3.7 4.5-5.6 10.7-5.6 18.4v1.2c0 7 1.5 12.8 4.5 17.3 3.5 5 8.3 7.5 14.6 7.5 7 0 12.2-2.5 15.7-7.6 2.8-4.5 4.2-10.6 4.2-18.1 0-7.8-1.5-13.8-4.5-17.9-3.4-4.8-8.6-7.2-15.8-7.2-5.6 0-9.9 2.2-13.1 6.4zM398.6 182.7H413V260c0 13.5-7.1 20.2-21.4 20.2h-6.7v-11.9h5.5c5.5 0 8.2-3 8.2-8.9v-76.7z m14.4-25.5c1.9 1.7 2.9 4 2.9 7 0 2.8-1 5.2-2.9 7.1-2.1 1.8-4.5 2.7-7.2 2.7-2.6 0-5-0.9-7-2.7-2-1.9-3-4.3-3-7.1 0-2.9 1-5.2 3-7 1.8-1.8 4.1-2.7 7-2.7 3 0 5.4 0.9 7.2 2.7zM488.7 192.5c5.5 7.2 8.4 17 8.5 29.4h-53.4c0.5 7 2.4 12.3 5.6 15.8 3.4 3.6 7.9 5.5 13.5 5.5 5 0 9.1-1.2 12.3-3.5 2.3-1.7 4.4-4.8 6.4-9.1h14.5c-1.7 6.7-5 12.2-9.7 16.5-6.2 5.4-14 8-23.3 8-10.5 0-18.7-3.2-24.7-9.7-6.5-6.8-9.8-16-9.8-27.5 0-10.5 3.1-19.3 9.3-26.3 6-7.2 14.2-10.8 24.7-10.8 11.4 0 20.2 3.9 26.1 11.7z m-38.9 4.9c-3.1 3.3-5 7.8-5.9 13.6h38c-1.4-12.3-7.8-18.4-19.2-18.4-5.4 0.1-9.7 1.7-12.9 4.8zM562.4 186.9c5.5 4.5 9 11 10.4 19.6h-14.3c-1-4.9-3-8.4-5.9-10.5-2.9-2.3-6.9-3.4-11.9-3.4-6 0-10.7 2.2-14 6.7-3.5 4.3-5.2 10.5-5.2 18.5s1.7 14.2 5 18.7c3.2 4.5 7.9 6.7 14 6.7 10.7 0 16.8-5.4 18.1-16.1h14.3c-1.6 9.4-5.2 16.4-10.8 21.1-5.5 4.5-12.8 6.8-21.8 6.8-10.7 0-19.1-3.5-25.1-10.6-5.8-6.7-8.7-15.5-8.7-26.4 0-10.6 2.9-19.4 8.6-26.2 6.2-7.4 14.7-11 25.5-11 9.2 0 16.4 2 21.8 6.1zM606.9 182.7H623v12h-16.1v40.9c0 1.8 0.4 3.2 1.2 4.2 0.9 0.9 2.2 1.4 3.8 1.4h9.3v12h-11.6c-6.1 0-10.5-1.6-13.2-4.8-2.6-2.9-4-7.2-4-12.8v-40.9h-13.1v-12h13.1v-16.8l14.5-6v22.8z" />
</svg>
