<svg xmlns="http://www.w3.org/2000/svg" viewBox="0 0 500 500"><g id="freepik--background-complete--inject-66"><rect x="416.78" y="398.49" width="33.12" height="0.25" style="fill:#ebebeb"></rect><rect x="322.53" y="401.21" width="8.69" height="0.25" style="fill:#ebebeb"></rect><rect x="396.59" y="389.21" width="19.19" height="0.25" style="fill:#ebebeb"></rect><rect x="52.46" y="390.89" width="43.19" height="0.25" style="fill:#ebebeb"></rect><rect x="104.56" y="390.89" width="6.33" height="0.25" style="fill:#ebebeb"></rect><rect x="131.47" y="395.11" width="93.68" height="0.25" style="fill:#ebebeb"></rect><path d="M237,337.8H43.92a5.71,5.71,0,0,1-5.71-5.71V60.66A5.71,5.71,0,0,1,43.92,55H237a5.71,5.71,0,0,1,5.71,5.71V332.09A5.71,5.71,0,0,1,237,337.8ZM43.92,55.2a5.47,5.47,0,0,0-5.46,5.46V332.09a5.47,5.47,0,0,0,5.46,5.46H237a5.47,5.47,0,0,0,5.46-5.46V60.66A5.47,5.47,0,0,0,237,55.2Z" style="fill:#ebebeb"></path><path d="M453.31,337.8H260.21a5.72,5.72,0,0,1-5.71-5.71V60.66A5.72,5.72,0,0,1,260.21,55h193.1A5.71,5.71,0,0,1,459,60.66V332.09A5.71,5.71,0,0,1,453.31,337.8ZM260.21,55.2a5.47,5.47,0,0,0-5.46,5.46V332.09a5.47,5.47,0,0,0,5.46,5.46h193.1a5.47,5.47,0,0,0,5.46-5.46V60.66a5.47,5.47,0,0,0-5.46-5.46Z" style="fill:#ebebeb"></path><rect y="382.4" width="500" height="0.25" style="fill:#ebebeb"></rect><path d="M83.12,328.25S78.46,276,54.17,225.74c0,0,35.86,33.47,37.12,102.51Z" style="fill:#f5f5f5"></path><path d="M112.45,332.33s4.65-52.29,28.94-102.5c0,0-35.86,33.47-37.12,102.5Z" style="fill:#f5f5f5"></path><path d="M88.78,336.34s-19.52-91-16-139.23c0,0,26.11,53.66,24.85,134.77Z" style="fill:#e6e6e6"></path><path d="M103.19,330.59s1.86-59.42,11.4-88.78c0,0,8,37.27-5.26,87.37Z" style="fill:#f0f0f0"></path><path d="M97.58,331.88s-6.29-79.24,11.32-114.76c0,0,1.88,72-2.52,114.76Z" style="fill:#f5f5f5"></path><polygon points="117.68 382.56 77.88 382.56 72.19 323.83 123.37 323.83 117.68 382.56" style="fill:#f0f0f0"></polygon><polygon points="239.01 382.56 235.01 382.56 234.01 274.49 240.01 274.49 239.01 382.56" style="fill:#ebebeb"></polygon><polygon points="398.12 382.56 394.12 382.56 393.12 274.49 399.12 274.49 398.12 382.56" style="fill:#ebebeb"></polygon><path d="M411.26,277H221.87a5.1,5.1,0,0,1-5.1-5.1H416.36A5.1,5.1,0,0,1,411.26,277Z" style="fill:#f0f0f0"></path><polygon points="333.52 366.09 333.52 315.83 323.13 315.83 323.13 366.09 292.29 368.65 292.29 373.65 328.33 371.65 364.36 373.65 364.36 368.65 333.52 366.09" style="fill:#ebebeb"></polygon><path d="M296.41,378.44a4.12,4.12,0,1,1-4.12-4.12A4.11,4.11,0,0,1,296.41,378.44Z" style="fill:#e0e0e0"></path><path d="M368.48,378.44a4.12,4.12,0,1,1-4.12-4.12A4.11,4.11,0,0,1,368.48,378.44Z" style="fill:#e0e0e0"></path><path d="M332.45,378.44a4.13,4.13,0,1,1-4.12-4.12A4.12,4.12,0,0,1,332.45,378.44Z" style="fill:#e0e0e0"></path><path d="M299.37,311.7l-1.84-59.91a5.25,5.25,0,0,0-5.24-5.08h0v66.83a5.25,5.25,0,0,0,5.24,5.24h66.83a5.24,5.24,0,0,0-5.07-5.24Z" style="fill:#e6e6e6"></path><path d="M344.14,257a2.8,2.8,0,0,0-2.81-2.77H324.54a2.82,2.82,0,0,0-2.82,2.77v.21a6.11,6.11,0,0,0-1.87-.31c-2.76,0-4.61,2.15-4.61,5.35s3.22,5.35,6.1,5.35a4.93,4.93,0,0,0,.87-.09,11.68,11.68,0,0,0,3.54,5.29h14.36a11.63,11.63,0,0,0,4.13-8.89C344.24,262.81,344.2,260.21,344.14,257Zm-22.8,8.81c-1.95,0-4.3-1.59-4.3-3.56,0-.84.2-3.56,2.81-3.56a4.56,4.56,0,0,1,1.84.42c0,2.21-.06,3.95-.06,4.8a11.51,11.51,0,0,0,.17,1.87A3.44,3.44,0,0,1,321.34,265.82Z" style="fill:#f5f5f5"></path></g><g id="freepik--Shadow--inject-66"><ellipse id="freepik--path--inject-66" cx="245.18" cy="412.39" rx="193.89" ry="11.32" style="fill:#f5f5f5"></ellipse></g><g id="freepik--Line--inject-66"><path d="M259.83,349.9a137.16,137.16,0,0,1-18.26-1.23l.1-.74A136.33,136.33,0,0,0,288.86,346l.16.74A136.36,136.36,0,0,1,259.83,349.9Zm-30-3.34a138,138,0,0,1-13.4-3.78l.25-.71A132.86,132.86,0,0,0,230,345.82Zm70.72-2.9-.23-.72a133.13,133.13,0,0,0,21.88-9.11l.35.67A135.48,135.48,0,0,1,300.55,343.66Zm-95.24-5.21a135.23,135.23,0,0,1-20.88-11.52l.42-.62a134.55,134.55,0,0,0,20.76,11.46Zm127.55-9.95-.4-.63a136.45,136.45,0,0,0,11.24-8.08l.46.59A134.52,134.52,0,0,1,332.86,328.5Zm-158-8.66A135.23,135.23,0,0,1,143.71,284l.64-.39a134.64,134.64,0,0,0,31,35.67Zm178.31-7.31-.52-.54a134.46,134.46,0,0,0,27.95-38.08l.67.33A135.06,135.06,0,0,1,353.15,312.53Zm-215.1-39a133.45,133.45,0,0,1-5.41-12.83l.71-.25a134.3,134.3,0,0,0,5.37,12.75Zm248-10.17-.7-.27a133.84,133.84,0,0,0,6.53-22.79l.74.14A134.2,134.2,0,0,1,386,263.31ZM129.09,249.26a134.75,134.75,0,0,1-4-23.49l.75-.06a134.21,134.21,0,0,0,4,23.36Zm265.24-20.67-.74-.08a138.26,138.26,0,0,0,.7-13.82v-.28H395v.28A136.91,136.91,0,0,1,394.33,228.59ZM125.38,213.85h-.75a134.73,134.73,0,0,1,8.6-46.72l.7.27A134.16,134.16,0,0,0,125.38,213.85Zm268.37-11.29A133.29,133.29,0,0,0,381.32,157l.68-.33a134.35,134.35,0,0,1,12.5,45.81ZM138.6,156.48l-.68-.32a137.86,137.86,0,0,1,6.68-12.22l.64.4A132.28,132.28,0,0,0,138.6,156.48Zm237.15-9.95A134.68,134.68,0,0,0,362,127.25l.57-.49a136.23,136.23,0,0,1,13.86,19.39Zm-223.86-12-.6-.44a136.72,136.72,0,0,1,15.85-17.81l.52.55A135.17,135.17,0,0,0,151.89,134.51Zm202-15.93c-3.29-3.21-6.78-6.3-10.37-9.16l.46-.58a134,134,0,0,1,10.44,9.21Zm-177.22-9.52-.46-.59a134.34,134.34,0,0,1,41.87-22.4l.24.71A133.66,133.66,0,0,0,176.64,109.06Zm157.24-6.61a133.58,133.58,0,0,0-43.37-18.7l.17-.73a134.35,134.35,0,0,1,43.62,18.8ZM229.72,83.62l-.17-.73a135,135,0,0,1,13.71-2.4l.09.75A136.26,136.26,0,0,0,229.72,83.62Zm49.13-2.05a136.9,136.9,0,0,0-19-1.33h0c-1.53,0-3.08,0-4.61.08l0-.75c1.55-.06,3.1-.09,4.68-.08A137,137,0,0,1,279,80.83Z" style="fill:#407BFF"></path><g style="opacity:0.4"><path d="M259.83,349.9a137.16,137.16,0,0,1-18.26-1.23l.1-.74A136.33,136.33,0,0,0,288.86,346l.16.74A136.36,136.36,0,0,1,259.83,349.9Zm-30-3.34a138,138,0,0,1-13.4-3.78l.25-.71A132.86,132.86,0,0,0,230,345.82Zm70.72-2.9-.23-.72a133.13,133.13,0,0,0,21.88-9.11l.35.67A135.48,135.48,0,0,1,300.55,343.66Zm-95.24-5.21a135.23,135.23,0,0,1-20.88-11.52l.42-.62a134.55,134.55,0,0,0,20.76,11.46Zm127.55-9.95-.4-.63a136.45,136.45,0,0,0,11.24-8.08l.46.59A134.52,134.52,0,0,1,332.86,328.5Zm-158-8.66A135.23,135.23,0,0,1,143.71,284l.64-.39a134.64,134.64,0,0,0,31,35.67Zm178.31-7.31-.52-.54a134.46,134.46,0,0,0,27.95-38.08l.67.33A135.06,135.06,0,0,1,353.15,312.53Zm-215.1-39a133.45,133.45,0,0,1-5.41-12.83l.71-.25a134.3,134.3,0,0,0,5.37,12.75Zm248-10.17-.7-.27a133.84,133.84,0,0,0,6.53-22.79l.74.14A134.2,134.2,0,0,1,386,263.31ZM129.09,249.26a134.75,134.75,0,0,1-4-23.49l.75-.06a134.21,134.21,0,0,0,4,23.36Zm265.24-20.67-.74-.08a138.26,138.26,0,0,0,.7-13.82v-.28H395v.28A136.91,136.91,0,0,1,394.33,228.59ZM125.38,213.85h-.75a134.73,134.73,0,0,1,8.6-46.72l.7.27A134.16,134.16,0,0,0,125.38,213.85Zm268.37-11.29A133.29,133.29,0,0,0,381.32,157l.68-.33a134.35,134.35,0,0,1,12.5,45.81ZM138.6,156.48l-.68-.32a137.86,137.86,0,0,1,6.68-12.22l.64.4A132.28,132.28,0,0,0,138.6,156.48Zm237.15-9.95A134.68,134.68,0,0,0,362,127.25l.57-.49a136.23,136.23,0,0,1,13.86,19.39Zm-223.86-12-.6-.44a136.72,136.72,0,0,1,15.85-17.81l.52.55A135.17,135.17,0,0,0,151.89,134.51Zm202-15.93c-3.29-3.21-6.78-6.3-10.37-9.16l.46-.58a134,134,0,0,1,10.44,9.21Zm-177.22-9.52-.46-.59a134.34,134.34,0,0,1,41.87-22.4l.24.71A133.66,133.66,0,0,0,176.64,109.06Zm157.24-6.61a133.58,133.58,0,0,0-43.37-18.7l.17-.73a134.35,134.35,0,0,1,43.62,18.8ZM229.72,83.62l-.17-.73a135,135,0,0,1,13.71-2.4l.09.75A136.26,136.26,0,0,0,229.72,83.62Zm49.13-2.05a136.9,136.9,0,0,0-19-1.33h0c-1.53,0-3.08,0-4.61.08l0-.75c1.55-.06,3.1-.09,4.68-.08A137,137,0,0,1,279,80.83Z" style="fill:#fff"></path></g></g><g id="freepik--Calendar--inject-66"><rect x="98.01" y="121.54" width="81.95" height="70.7" transform="translate(-15.64 15.39) rotate(-6)" style="fill:#407BFF"></rect><rect x="98.01" y="121.54" width="81.95" height="70.7" transform="translate(-15.64 15.39) rotate(-6)" style="fill:#fff;opacity:0.6000000000000001"></rect><rect x="93.63" y="108.54" width="81.95" height="13.23" transform="translate(-11.3 14.7) rotate(-6)" style="fill:#407BFF"></rect><path d="M105.14,107.21a2.19,2.19,0,0,0-4.35.46l.92,8.68a2.18,2.18,0,1,0,4.34-.45C106,115.28,105.2,107.82,105.14,107.21Z" style="fill:#407BFF"></path><path d="M120.82,105.56a2.18,2.18,0,0,0-4.34.46l.91,8.68a2.19,2.19,0,1,0,4.35-.45C121.67,113.63,120.89,106.18,120.82,105.56Z" style="fill:#407BFF"></path><path d="M136.51,103.91a2.18,2.18,0,0,0-4.34.46l.91,8.69a2.18,2.18,0,1,0,4.34-.46C137.36,112,136.57,104.53,136.51,103.91Z" style="fill:#407BFF"></path><path d="M152.2,102.26a2.19,2.19,0,0,0-4.35.46c.08.77.84,7.92.92,8.69a2.18,2.18,0,1,0,4.34-.46C153,110.34,152.26,102.88,152.2,102.26Z" style="fill:#407BFF"></path><path d="M167.88,100.61a2.18,2.18,0,1,0-4.34.46l.91,8.69a2.19,2.19,0,0,0,4.35-.46C168.73,108.69,168,101.23,167.88,100.61Z" style="fill:#407BFF"></path><g style="opacity:0.7000000000000001"><path d="M105.14,107.21a2.19,2.19,0,0,0-4.35.46l.92,8.68a2.18,2.18,0,1,0,4.34-.45C106,115.28,105.2,107.82,105.14,107.21Z" style="fill:#fff"></path><path d="M120.82,105.56a2.18,2.18,0,0,0-4.34.46l.91,8.68a2.19,2.19,0,1,0,4.35-.45C121.67,113.63,120.89,106.18,120.82,105.56Z" style="fill:#fff"></path><path d="M136.51,103.91a2.18,2.18,0,0,0-4.34.46l.91,8.69a2.18,2.18,0,1,0,4.34-.46C137.36,112,136.57,104.53,136.51,103.91Z" style="fill:#fff"></path><path d="M152.2,102.26a2.19,2.19,0,0,0-4.35.46c.08.77.84,7.92.92,8.69a2.18,2.18,0,1,0,4.34-.46C153,110.34,152.26,102.88,152.2,102.26Z" style="fill:#fff"></path><path d="M167.88,100.61a2.18,2.18,0,1,0-4.34.46l.91,8.69a2.19,2.19,0,0,0,4.35-.46C168.73,108.69,168,101.23,167.88,100.61Z" style="fill:#fff"></path></g><polygon points="185.61 185.54 104.11 194.11 94.54 126.02 176.04 117.45 185.61 185.54" style="fill:#407BFF"></polygon><polygon points="185.61 185.54 104.11 194.11 94.54 126.02 176.04 117.45 185.61 185.54" style="fill:#fff;opacity:0.8"></polygon><polygon points="159.59 136.15 119.25 140.39 117.57 128.41 157.91 124.17 159.59 136.15" style="fill:#407BFF"></polygon><polygon points="159.59 136.15 119.25 140.39 117.57 128.41 157.91 124.17 159.59 136.15" style="fill:#fff;opacity:0.6000000000000001"></polygon><polygon points="114.63 156.59 103.86 157.72 102.35 146.98 113.13 145.85 114.63 156.59" style="fill:#fff"></polygon><polygon points="129.92 154.98 119.14 156.11 117.64 145.38 128.41 144.25 129.92 154.98" style="fill:#fff"></polygon><polygon points="116.67 171.07 105.89 172.2 104.39 161.47 115.16 160.33 116.67 171.07" style="fill:#407BFF"></polygon><polygon points="118.7 185.55 107.93 186.68 106.42 175.94 117.19 174.81 118.7 185.55" style="fill:#407BFF"></polygon><polygon points="131.96 169.46 121.18 170.59 119.67 159.86 130.45 158.73 131.96 169.46" style="fill:#407BFF"></polygon><polygon points="131.96 169.46 121.18 170.59 119.67 159.86 130.45 158.73 131.96 169.46" style="fill:#fff;opacity:0.2"></polygon><polygon points="147.24 167.85 136.47 168.99 134.96 158.25 145.73 157.12 147.24 167.85" style="fill:#407BFF"></polygon><polygon points="147.24 167.85 136.47 168.99 134.96 158.25 145.73 157.12 147.24 167.85" style="fill:#fff;opacity:0.2"></polygon><polygon points="162.53 166.25 151.75 167.38 150.24 156.65 161.02 155.51 162.53 166.25" style="fill:#407BFF"></polygon><polygon points="162.53 166.25 151.75 167.38 150.24 156.65 161.02 155.51 162.53 166.25" style="fill:#fff;opacity:0.2"></polygon><polygon points="177.81 164.64 167.04 165.77 165.53 155.04 176.3 153.91 177.81 164.64" style="fill:#407BFF"></polygon><polygon points="177.81 164.64 167.04 165.77 165.53 155.04 176.3 153.91 177.81 164.64" style="fill:#fff;opacity:0.2"></polygon><polygon points="133.99 183.94 123.22 185.07 121.71 174.34 132.48 173.21 133.99 183.94" style="fill:#407BFF"></polygon><polygon points="133.99 183.94 123.22 185.07 121.71 174.34 132.48 173.21 133.99 183.94" style="fill:#fff;opacity:0.2"></polygon><polygon points="149.28 182.34 138.5 183.47 136.99 172.73 147.77 171.6 149.28 182.34" style="fill:#407BFF"></polygon><polygon points="149.28 182.34 138.5 183.47 136.99 172.73 147.77 171.6 149.28 182.34" style="fill:#fff;opacity:0.2"></polygon><polygon points="164.56 180.73 153.79 181.86 152.28 171.13 163.05 169.99 164.56 180.73" style="fill:#407BFF"></polygon><polygon points="164.56 180.73 153.79 181.86 152.28 171.13 163.05 169.99 164.56 180.73" style="fill:#fff;opacity:0.2"></polygon><polygon points="145.21 153.37 134.43 154.51 132.92 143.77 143.7 142.64 145.21 153.37" style="fill:none"></polygon><polygon points="145.21 153.37 134.43 154.51 132.92 143.77 143.7 142.64 145.21 153.37" style="fill:#407BFF"></polygon><polygon points="145.21 153.37 134.43 154.51 132.92 143.77 143.7 142.64 145.21 153.37" style="fill:#fff;opacity:0.2"></polygon><polygon points="160.49 151.77 149.72 152.9 148.21 142.16 158.98 141.03 160.49 151.77" style="fill:none"></polygon><polygon points="160.49 151.77 149.72 152.9 148.21 142.16 158.98 141.03 160.49 151.77" style="fill:#407BFF"></polygon><polygon points="160.49 151.77 149.72 152.9 148.21 142.16 158.98 141.03 160.49 151.77" style="fill:#fff;opacity:0.2"></polygon><polygon points="175.78 150.16 165 151.29 163.49 140.56 174.27 139.43 175.78 150.16" style="fill:none"></polygon><polygon points="175.78 150.16 165 151.29 163.49 140.56 174.27 139.43 175.78 150.16" style="fill:#407BFF"></polygon><polygon points="175.78 150.16 165 151.29 163.49 140.56 174.27 139.43 175.78 150.16" style="fill:#fff;opacity:0.2"></polygon><polygon points="179.85 179.12 169.07 180.25 167.56 169.52 178.34 168.39 179.85 179.12" style="fill:#fff"></polygon><path d="M208.11,79a2,2,0,0,1-1.45,2.37,2,2,0,0,1-2.37-1.45l-.59-2.45-10,2.4c.3,1.23.54,2.25.59,2.45a2,2,0,1,1-3.82.92l-.59-2.45-10,2.4c.3,1.23.54,2.25.59,2.45a2,2,0,0,1-3.82.92l-.59-2.45-10,2.4c.3,1.23.54,2.25.59,2.45a2,2,0,1,1-3.82.92l-.59-2.45-10,2.4c.29,1.23.54,2.25.59,2.45a2,2,0,0,1-3.83.92l-.58-2.45-6.34,1.52,15.71,65.33,71.71-17.24L213.87,75l-6.34,1.52C207.82,77.76,208.07,78.78,208.11,79Z" style="fill:#407BFF"></path><path d="M208.11,79a2,2,0,0,1-1.45,2.37,2,2,0,0,1-2.37-1.45l-.59-2.45-10,2.4c.3,1.23.54,2.25.59,2.45a2,2,0,1,1-3.82.92l-.59-2.45-10,2.4c.3,1.23.54,2.25.59,2.45a2,2,0,0,1-3.82.92l-.59-2.45-10,2.4c.3,1.23.54,2.25.59,2.45a2,2,0,1,1-3.82.92l-.59-2.45-10,2.4c.29,1.23.54,2.25.59,2.45a2,2,0,0,1-3.83.92l-.58-2.45-6.34,1.52,15.71,65.33,71.71-17.24L213.87,75l-6.34,1.52C207.82,77.76,208.07,78.78,208.11,79Z" style="fill:#fff;opacity:0.8"></path><rect x="164.85" y="92.49" width="36.51" height="10.88" transform="translate(-17.82 45.53) rotate(-13.52)" style="fill:#407BFF"></rect><rect x="164.85" y="92.49" width="36.51" height="10.88" transform="translate(-17.82 45.53) rotate(-13.52)" style="fill:#fff;opacity:0.6000000000000001"></rect><rect x="153.19" y="114.12" width="9.75" height="9.75" transform="translate(-23.44 40.26) rotate(-13.52)" style="fill:#fff"></rect><rect x="166.64" y="110.89" width="9.75" height="9.75" transform="translate(-22.31 43.31) rotate(-13.52)" style="fill:#407BFF"></rect><rect x="180.09" y="107.65" width="9.75" height="9.75" transform="translate(-21.18 46.37) rotate(-13.52)" style="fill:#407BFF"></rect><rect x="193.54" y="104.42" width="9.75" height="9.75" transform="translate(-20.06 49.42) rotate(-13.52)" style="fill:#407BFF"></rect><rect x="206.98" y="101.19" width="9.75" height="9.75" transform="translate(-18.93 52.48) rotate(-13.52)" style="fill:#407BFF"></rect><rect x="156.26" y="126.91" width="9.75" height="9.75" transform="translate(-26.35 41.33) rotate(-13.52)" style="fill:#407BFF"></rect><rect x="169.71" y="123.68" width="9.75" height="9.75" transform="translate(-25.22 44.39) rotate(-13.52)" style="fill:#407BFF"></rect><rect x="183.16" y="120.44" width="9.75" height="9.75" transform="translate(-24.09 47.44) rotate(-13.52)" style="fill:#407BFF"></rect><rect x="196.61" y="117.21" width="9.75" height="9.75" transform="translate(-22.96 50.5) rotate(-13.52)" style="fill:#407BFF"></rect><rect x="210.06" y="113.97" width="9.75" height="9.75" transform="translate(-21.83 53.55) rotate(-13.52)" style="fill:#407BFF"></rect><rect x="159.34" y="139.7" width="9.75" height="9.75" transform="translate(-29.25 42.4) rotate(-13.52)" style="fill:#407BFF"></rect><rect x="172.79" y="136.47" width="9.75" height="9.75" transform="translate(-28.12 45.46) rotate(-13.52)" style="fill:#407BFF"></rect><rect x="186.24" y="133.23" width="9.75" height="9.75" transform="translate(-27 48.52) rotate(-13.52)" style="fill:#407BFF"></rect><rect x="166.64" y="110.89" width="9.75" height="9.75" transform="translate(-22.31 43.31) rotate(-13.52)" style="fill:#fff;opacity:0.2"></rect><rect x="180.09" y="107.65" width="9.75" height="9.75" transform="translate(-21.18 46.37) rotate(-13.52)" style="fill:#fff;opacity:0.2"></rect><rect x="193.54" y="104.42" width="9.75" height="9.75" transform="translate(-20.06 49.42) rotate(-13.52)" style="fill:#fff;opacity:0.2"></rect><rect x="206.98" y="101.19" width="9.75" height="9.75" transform="translate(-18.93 52.48) rotate(-13.52)" style="fill:#fff;opacity:0.2"></rect><rect x="169.71" y="123.68" width="9.75" height="9.75" transform="translate(-25.22 44.39) rotate(-13.52)" style="fill:#fff;opacity:0.2"></rect><rect x="183.16" y="120.44" width="9.75" height="9.75" transform="translate(-24.09 47.44) rotate(-13.52)" style="fill:#fff;opacity:0.2"></rect><rect x="196.61" y="117.21" width="9.75" height="9.75" transform="translate(-22.96 50.5) rotate(-13.52)" style="fill:#fff;opacity:0.2"></rect><rect x="210.06" y="113.97" width="9.75" height="9.75" transform="translate(-21.83 53.55) rotate(-13.52)" style="fill:#fff;opacity:0.2"></rect><rect x="172.79" y="136.47" width="9.75" height="9.75" transform="translate(-28.12 45.46) rotate(-13.52)" style="fill:#fff;opacity:0.2"></rect><rect x="186.24" y="133.23" width="9.75" height="9.75" transform="translate(-27 48.52) rotate(-13.52)" style="fill:#fff;opacity:0.2"></rect><rect x="199.69" y="130" width="9.75" height="9.75" transform="translate(-25.87 51.57) rotate(-13.52)" style="fill:#fff"></rect><rect x="213.14" y="126.76" width="9.75" height="9.75" transform="translate(-24.74 54.62) rotate(-13.52)" style="fill:#fff"></rect><polygon points="142.16 92.25 156.06 160.13 229.58 140.34 157.87 157.59 142.16 92.25" style="fill:#407BFF"></polygon><polygon points="142.16 92.25 156.06 160.13 229.58 140.34 157.87 157.59 142.16 92.25" style="fill:#fff;opacity:0.5"></polygon><path d="M207.74,52.72a2,2,0,1,1-3.39,2l-1.28-2.17-8.85,5.19,1.27,2.17a2,2,0,0,1-3.39,2l-1.27-2.17L182,64.91c.65,1.1,1.17,2,1.28,2.17a2,2,0,0,1-3.39,2l-1.28-2.17-8.85,5.2L171,74.27a2,2,0,1,1-3.39,2l-1.27-2.18-8.85,5.2,1.27,2.17a2,2,0,0,1-3.39,2l-1.27-2.17-5.63,3.3,34,58,63.62-37.32-34-58-5.63,3.3Z" style="fill:#407BFF"></path><path d="M207.74,52.72a2,2,0,1,1-3.39,2l-1.28-2.17-8.85,5.19,1.27,2.17a2,2,0,0,1-3.39,2l-1.27-2.17L182,64.91c.65,1.1,1.17,2,1.28,2.17a2,2,0,0,1-3.39,2l-1.28-2.17-8.85,5.2L171,74.27a2,2,0,1,1-3.39,2l-1.27-2.18-8.85,5.2,1.27,2.17a2,2,0,0,1-3.39,2l-1.27-2.17-5.63,3.3,34,58,63.62-37.32-34-58-5.63,3.3Z" style="fill:#fff;opacity:0.8"></path><rect x="171.05" y="72.67" width="36.51" height="10.89" transform="translate(-13.5 106.52) rotate(-30.4)" style="fill:#407BFF"></rect><rect x="171.05" y="72.67" width="36.51" height="10.89" transform="translate(-13.5 106.52) rotate(-30.4)" style="fill:#fff;opacity:0.6000000000000001"></rect><rect x="166.58" y="100.67" width="9.75" height="9.75" transform="matrix(0.86, -0.51, 0.51, 0.86, -29.84, 101.26)" style="fill:#fff"></rect><rect x="178.51" y="93.67" width="9.75" height="9.75" transform="matrix(0.86, -0.51, 0.51, 0.86, -24.65, 106.33)" style="fill:#fff"></rect><rect x="190.44" y="86.67" width="9.75" height="9.75" transform="translate(-19.47 111.41) rotate(-30.4)" style="fill:#407BFF"></rect><rect x="202.37" y="79.67" width="9.75" height="9.75" transform="translate(-14.29 116.48) rotate(-30.4)" style="fill:#407BFF"></rect><rect x="214.31" y="72.67" width="9.75" height="9.75" transform="matrix(0.86, -0.51, 0.51, 0.86, -9.11, 121.56)" style="fill:#407BFF"></rect><rect x="173.23" y="112.01" width="9.75" height="9.75" transform="matrix(0.86, -0.51, 0.51, 0.86, -34.66, 106.19)" style="fill:#407BFF"></rect><rect x="185.17" y="105.01" width="9.75" height="9.75" transform="translate(-29.48 111.26) rotate(-30.4)" style="fill:#407BFF"></rect><rect x="197.1" y="98.02" width="9.75" height="9.75" transform="matrix(0.86, -0.51, 0.51, 0.86, -24.3, 116.34)" style="fill:#407BFF"></rect><rect x="209.03" y="91.02" width="9.75" height="9.75" transform="translate(-19.12 121.41) rotate(-30.4)" style="fill:#407BFF"></rect><rect x="220.96" y="84.02" width="9.75" height="9.75" transform="translate(-13.94 126.48) rotate(-30.4)" style="fill:#407BFF"></rect><rect x="179.89" y="123.36" width="9.75" height="9.75" transform="matrix(0.86, -0.51, 0.51, 0.86, -39.49, 111.11)" style="fill:#407BFF"></rect><rect x="191.82" y="116.36" width="9.75" height="9.75" transform="matrix(0.86, -0.51, 0.51, 0.86, -34.31, 116.19)" style="fill:#407BFF"></rect><rect x="203.75" y="109.36" width="9.75" height="9.75" transform="matrix(0.86, -0.51, 0.51, 0.86, -29.12, 121.26)" style="fill:#407BFF"></rect><rect x="190.44" y="86.67" width="9.75" height="9.75" transform="translate(-19.47 111.41) rotate(-30.4)" style="fill:#fff;opacity:0.2"></rect><rect x="202.37" y="79.67" width="9.75" height="9.75" transform="translate(-14.29 116.48) rotate(-30.4)" style="fill:#fff;opacity:0.2"></rect><rect x="214.31" y="72.67" width="9.75" height="9.75" transform="matrix(0.86, -0.51, 0.51, 0.86, -9.11, 121.56)" style="fill:#fff;opacity:0.2"></rect><rect x="185.17" y="105.01" width="9.75" height="9.75" transform="translate(-29.48 111.26) rotate(-30.4)" style="fill:#fff;opacity:0.2"></rect><rect x="197.1" y="98.02" width="9.75" height="9.75" transform="matrix(0.86, -0.51, 0.51, 0.86, -24.3, 116.34)" style="fill:#fff;opacity:0.2"></rect><rect x="209.03" y="91.02" width="9.75" height="9.75" transform="translate(-19.12 121.41) rotate(-30.4)" style="fill:#fff;opacity:0.2"></rect><rect x="220.96" y="84.02" width="9.75" height="9.75" transform="translate(-13.94 126.48) rotate(-30.4)" style="fill:#fff;opacity:0.2"></rect><rect x="191.82" y="116.36" width="9.75" height="9.75" transform="matrix(0.86, -0.51, 0.51, 0.86, -34.31, 116.19)" style="fill:#fff;opacity:0.2"></rect><rect x="203.75" y="109.36" width="9.75" height="9.75" transform="matrix(0.86, -0.51, 0.51, 0.86, -29.12, 121.26)" style="fill:#fff;opacity:0.2"></rect><rect x="215.68" y="102.36" width="9.75" height="9.75" transform="matrix(0.86, -0.51, 0.51, 0.86, -23.94, 126.34)" style="fill:#fff"></rect><rect x="227.62" y="95.36" width="9.75" height="9.75" transform="translate(-18.76 131.41) rotate(-30.4)" style="fill:#fff"></rect><polygon points="148.4 84.61 181.4 145.53 246.01 105.25 182.4 142.57 148.4 84.61" style="fill:#407BFF"></polygon><polygon points="148.4 84.61 181.4 145.53 246.01 105.25 182.4 142.57 148.4 84.61" style="fill:#fff;opacity:0.5"></polygon></g><g id="freepik--Seasons--inject-66"><path d="M374.78,218.58h30.55a18.89,18.89,0,0,1,18.89,18.89V268a18.88,18.88,0,0,1-18.88,18.88H374.78A18.88,18.88,0,0,1,355.9,268V237.47A18.88,18.88,0,0,1,374.78,218.58Z" transform="translate(42.15 -55.45) rotate(8.59)" style="fill:#407BFF"></path><path d="M374.78,218.58h30.55a18.89,18.89,0,0,1,18.89,18.89V268a18.88,18.88,0,0,1-18.88,18.88H374.78A18.88,18.88,0,0,1,355.9,268V237.47A18.88,18.88,0,0,1,374.78,218.58Z" transform="translate(42.15 -55.45) rotate(8.59)" style="fill:#fff;opacity:0.6000000000000001"></path><path d="M370.65,241.82s-4.07-6.48.07-10.38l3.1,2.05s-3,3.94-1.24,7.95Z" style="fill:#407BFF"></path><path d="M377.66,237.22a15.44,15.44,0,0,0-6.49,3,15.47,15.47,0,0,0-7.14-.29c-9.12,1.79-14.92,11.37-12.95,21.4s11,16.7,20.09,14.9a15.54,15.54,0,0,0,6.49-3,15.61,15.61,0,0,0,7.14.28c9.12-1.79,14.92-11.37,12.95-21.4S386.79,235.42,377.66,237.22Z" style="fill:#407BFF"></path><path d="M377.66,237.22a15.44,15.44,0,0,0-6.49,3,15.47,15.47,0,0,0-7.14-.29c-9.12,1.79-14.92,11.37-12.95,21.4s11,16.7,20.09,14.9a15.54,15.54,0,0,0,6.49-3,15.61,15.61,0,0,0,7.14.28c9.12-1.79,14.92-11.37,12.95-21.4S386.79,235.42,377.66,237.22Z" style="fill:#fff;opacity:0.1"></path><path d="M377.66,237.22a15.44,15.44,0,0,0-6.49,3l6.49,33.05a15.61,15.61,0,0,0,7.14.28c9.12-1.79,14.92-11.37,12.95-21.4S386.79,235.42,377.66,237.22Z" style="fill:#407BFF"></path><path d="M377.66,237.22a15.44,15.44,0,0,0-6.49,3l6.49,33.05a15.61,15.61,0,0,0,7.14.28c9.12-1.79,14.92-11.37,12.95-21.4S386.79,235.42,377.66,237.22Z" style="fill:#fff;opacity:0.30000000000000004"></path><polygon points="365.75 252.85 367.25 253.56 370.42 252.94 364.56 246.79 361.46 254.7 364.63 254.08 365.75 252.85" style="fill:#fff"></polygon><polygon points="381.67 249.72 383.17 250.44 386.34 249.81 380.48 243.67 377.38 251.57 380.55 250.95 381.67 249.72" style="fill:#fff"></polygon><path d="M372.52,261.27l0,2.17-4.75-.47.7-1.61a29.5,29.5,0,0,1-5.82-.74s4,8.59,13.9,6.79a13.34,13.34,0,0,0,4.24-1.52l-1.85-2,4-3.17,1.2,2.48a15.36,15.36,0,0,0,3.39-7.44A28.45,28.45,0,0,1,372.52,261.27Z" style="fill:#fff"></path><path d="M402.44,236.36l-4.38,3.06,8.67,1a2.59,2.59,0,0,0,2.87-2.87l-1-8.67-3.06,4.38-2.48.66Z" style="fill:#407BFF"></path><path d="M419.68,253.61,416.63,258l-1-8.68a2.61,2.61,0,0,1,2.87-2.87l8.68,1-4.38,3.05-.66,2.49Z" style="fill:#407BFF"></path><circle cx="412.63" cy="243.41" r="5.34" style="fill:#407BFF"></circle><g style="opacity:0.2"><path d="M402.44,236.36l-4.38,3.06,8.67,1a2.59,2.59,0,0,0,2.87-2.87l-1-8.67-3.06,4.38-2.48.66Z" style="fill:#fff"></path><path d="M419.68,253.61,416.63,258l-1-8.68a2.61,2.61,0,0,1,2.87-2.87l8.68,1-4.38,3.05-.66,2.49Z" style="fill:#fff"></path><circle cx="412.63" cy="243.41" r="5.34" style="fill:#fff"></circle></g><g style="opacity:0.7000000000000001"><path d="M414.23,238.32a5.34,5.34,0,0,0-6.86,4.22Z" style="fill:#fff"></path><path d="M408.86,247.19a5.18,5.18,0,0,0,1.64,1.11l7.46-4.58a5.39,5.39,0,0,0-.42-2.41l-9,5.53C408.64,247,408.75,247.08,408.86,247.19Z" style="fill:#fff"></path></g><path d="M400.17,267l-.77,4.35,5.64-4.51a2.15,2.15,0,0,0,0-3.36L399.4,259l.77,4.35-1.06,1.84Z" style="fill:#407BFF"></path><path d="M420.36,267l.77,4.35-5.64-4.51a2.16,2.16,0,0,1,0-3.36l5.64-4.51-.77,4.35,1.07,1.84Z" style="fill:#407BFF"></path><path d="M414.69,265.2a4.42,4.42,0,1,1-4.42-4.42A4.42,4.42,0,0,1,414.69,265.2Z" style="fill:#407BFF"></path><g style="opacity:0.9"><path d="M400.17,267l-.77,4.35,5.64-4.51a2.15,2.15,0,0,0,0-3.36L399.4,259l.77,4.35-1.06,1.84Z" style="fill:#fff"></path><path d="M420.36,267l.77,4.35-5.64-4.51a2.16,2.16,0,0,1,0-3.36l5.64-4.51-.77,4.35,1.07,1.84Z" style="fill:#fff"></path><path d="M414.69,265.2a4.42,4.42,0,1,1-4.42-4.42A4.42,4.42,0,0,1,414.69,265.2Z" style="fill:#fff"></path></g><path d="M408.22,261.29a4.41,4.41,0,0,0-2.37,3.91,4.47,4.47,0,0,0,.82,2.57Z" style="fill:#407BFF"></path><path d="M410.27,269.62a4.31,4.31,0,0,0,1.61-.31l1.68-7.05a4.34,4.34,0,0,0-1.66-1.16l-2,8.5Z" style="fill:#407BFF"></path><rect x="332.32" y="80.28" width="85.57" height="85.57" rx="18.88" transform="translate(-17.03 77.48) rotate(-11.53)" style="fill:#407BFF"></rect><rect x="332.32" y="80.28" width="85.57" height="85.57" rx="18.88" transform="translate(-17.03 77.48) rotate(-11.53)" style="fill:#fff;opacity:0.5"></rect><path d="M403.1,96.32l-6,.81,3.21-4.22a.52.52,0,0,0-.83-.63c-1.28,1.68-2.57,3.36-3.85,5l-5.76.78.28-.43,2.19-2.87,3.28-4.3a.52.52,0,0,0-.83-.63l-6.43,8.43-2.38.32-.32-2.38,6.42-8.43a.52.52,0,0,0-.83-.64c-1,1.36-2.07,2.71-3.1,4.06l-2.36,3.11-.34.39L384.71,89l3.85-5a.52.52,0,0,0-.83-.64l-3.21,4.22-.81-6a.52.52,0,0,0-1,.14l.81,6-4.22-3.21a.52.52,0,0,0-.63.83l5.05,3.85.78,5.76-.43-.29-2.87-2.18-4.3-3.28a.52.52,0,0,0-.63.83l8.43,6.43c.11.79.21,1.59.32,2.38l-2.38.32-8.43-6.42a.52.52,0,0,0-.64.83l4.06,3.09L380.7,99l.39.34-5.76.77-5.05-3.84a.52.52,0,0,0-.64.83l4.22,3.21-6,.81a.52.52,0,0,0,.14,1l6-.8-3.21,4.22a.52.52,0,0,0,.83.63c1.28-1.68,2.56-3.37,3.85-5l5.76-.78c-.12.18-.22.34-.29.43l-2.18,2.86-3.28,4.31a.52.52,0,0,0,.83.63l6.43-8.43,2.38-.32c.11.79.22,1.59.32,2.38L379,110.62a.52.52,0,0,0,.83.64l3.1-4.07,2.36-3.1.34-.39c.26,1.92.51,3.84.77,5.76l-3.84,5.05a.52.52,0,0,0,.83.64l3.21-4.22.81,6a.52.52,0,0,0,1-.14q-.39-3-.8-6l4.22,3.21a.52.52,0,0,0,.63-.83l-5.05-3.85-.78-5.76.43.28L390,106l4.31,3.28a.52.52,0,0,0,.63-.83l-8.43-6.43c-.11-.79-.22-1.59-.32-2.38l2.38-.32,8.43,6.42a.52.52,0,0,0,.64-.83l-4.07-3.1-3.1-2.36-.39-.34,5.76-.78,5.05,3.85a.52.52,0,0,0,.64-.83l-4.22-3.21,6-.81A.52.52,0,0,0,403.1,96.32Z" style="fill:#fff"></path><path d="M415.49,125.23l-2.84-2.17,3.12-.42a.31.31,0,0,0-.08-.62l-3.74.51-2.75-2.1.3-.06,2.12-.28,3.19-.43a.31.31,0,0,0-.09-.62l-6.24.84-1.14-.86.87-1.14,6.24-.84a.31.31,0,0,0-.08-.62l-3,.41-2.3.31-.3,0c.69-.92,1.39-1.83,2.09-2.75l3.74-.51a.31.31,0,0,0-.08-.61l-3.13.42,2.17-2.84c.24-.32-.25-.7-.49-.38l-2.17,2.84-.42-3.12a.31.31,0,0,0-.62.08l.51,3.74-2.1,2.75c0-.12-.05-.23-.06-.3-.09-.7-.19-1.41-.29-2.12-.14-1.06-.28-2.12-.43-3.19a.31.31,0,0,0-.61.09l.84,6.24-.86,1.14-1.14-.87q-.42-3.12-.85-6.24a.31.31,0,0,0-.61.08c.13,1,.27,2,.4,3,.11.77.21,1.53.32,2.3,0,.07,0,.18,0,.3l-2.75-2.09-.51-3.74a.31.31,0,0,0-.61.08l.42,3.13-2.85-2.17a.31.31,0,0,0-.37.49c.94.73,1.89,1.45,2.84,2.17l-3.12.42a.31.31,0,0,0,.08.62l3.74-.51,2.75,2.1-.3.06-2.12.28-3.19.44a.31.31,0,0,0,.08.61l6.25-.84,1.14.86-.87,1.14-6.24.85a.31.31,0,0,0,.08.61l3-.4,2.3-.32.3,0c-.7.92-1.39,1.84-2.09,2.75l-3.74.51a.31.31,0,0,0,.08.61l3.12-.42-2.16,2.85c-.25.31.25.69.49.37l2.17-2.84.42,3.12a.31.31,0,0,0,.62-.08l-.51-3.74,2.1-2.75c0,.12.05.23.06.3.09.71.19,1.41.28,2.12.15,1.06.29,2.13.43,3.19a.31.31,0,0,0,.62-.08l-.84-6.25.86-1.14,1.14.87.84,6.24a.31.31,0,0,0,.62-.08c-.14-1-.27-2-.41-3-.1-.77-.2-1.53-.31-2.3,0-.07,0-.18,0-.3l2.75,2.09c.17,1.25.34,2.5.5,3.74a.31.31,0,0,0,.62-.08l-.42-3.12,2.84,2.16A.31.31,0,0,0,415.49,125.23Z" style="fill:#fff"></path><path d="M389,138.74c.09-.7.19-1.4.28-2.11l-1.49,1.14a.18.18,0,0,1-.22-.29l1.78-1.36.28-2-.15.1-1,.77-1.52,1.16a.18.18,0,0,1-.22-.29l3-2.27.11-.85-.84-.11-3,2.27a.18.18,0,0,1-.22-.29l1.43-1.1,1.1-.84.14-.11-2-.28-1.78,1.36c-.19.15-.42-.15-.23-.29l1.49-1.14-2.11-.28a.19.19,0,0,1,.05-.37l2.11.29-1.13-1.5a.18.18,0,0,1,.29-.22l1.36,1.79,2,.27-.1-.15-.78-1-1.15-1.52a.19.19,0,0,1,.29-.23l2.27,3,.84.12.12-.85c-.76-1-1.52-2-2.27-3a.18.18,0,0,1,.29-.22l1.09,1.44.84,1.09.12.14.27-2c-.45-.59-.9-1.19-1.36-1.78a.19.19,0,0,1,.3-.23l1.13,1.5.29-2.11a.19.19,0,0,1,.37,0c-.1.7-.19,1.4-.29,2.1l1.49-1.13c.19-.15.42.15.23.29L390.68,129l-.27,2,.15-.1,1-.77,1.52-1.16a.18.18,0,0,1,.22.29c-1,.76-2,1.52-3,2.27,0,.28-.07.56-.11.85l.84.11,3-2.27c.19-.15.42.15.23.29l-1.44,1.1-1.1.83-.13.12,2,.28,1.79-1.36a.18.18,0,0,1,.22.29l-1.49,1.14,2.11.28a.19.19,0,0,1-.05.37l-2.11-.29,1.14,1.49a.19.19,0,0,1-.3.23l-1.36-1.79-2-.27a1.28,1.28,0,0,0,.1.15c.25.34.51.67.77,1,.39.51.77,1,1.16,1.52a.19.19,0,0,1-.3.23c-.75-1-1.51-2-2.27-3l-.84-.12c0,.28-.08.56-.11.84.75,1,1.51,2,2.27,3,.14.18-.15.41-.3.22l-1.09-1.44-.84-1.09a.69.69,0,0,0-.12-.14l-.27,2,1.36,1.79a.18.18,0,0,1-.29.22l-1.14-1.49c-.1.71-.19,1.41-.29,2.11A.18.18,0,0,1,389,138.74Z" style="fill:#fff"></path><path d="M368.7,128.6a1.24,1.24,0,1,1-1.24-1.23A1.24,1.24,0,0,1,368.7,128.6Z" style="fill:#fff"></path><polygon points="360.02 164.75 360.02 149.4 352.22 149.4 352.22 164.75 348.18 169.79 353.76 168.8 356.12 170.16 358.48 168.8 364.06 169.79 360.02 164.75" style="fill:#407BFF"></polygon><polygon points="364.85 152.56 385.51 156.23 356.12 119.5 326.72 156.23 347.39 152.56 356.12 157.62 364.85 152.56" style="fill:#407BFF"></polygon><polygon points="364.85 152.56 385.51 156.23 356.12 119.5 326.72 156.23 347.39 152.56 356.12 157.62 364.85 152.56" style="fill:#fff;opacity:0.30000000000000004"></polygon><polygon points="363.98 136.03 382.57 139.33 356.12 106.27 329.66 139.33 348.26 136.03 356.12 140.58 363.98 136.03" style="fill:#407BFF"></polygon><polygon points="363.98 136.03 382.57 139.33 356.12 106.27 329.66 139.33 348.26 136.03 356.12 140.58 363.98 136.03" style="fill:#fff;opacity:0.7000000000000001"></polygon><polygon points="361.71 118.4 374.93 120.75 356.12 97.24 337.31 120.75 350.53 118.4 356.12 121.64 361.71 118.4" style="fill:#407BFF"></polygon><polygon points="361.71 118.4 374.93 120.75 356.12 97.24 337.31 120.75 350.53 118.4 356.12 121.64 361.71 118.4" style="fill:#fff;opacity:0.8"></polygon><polygon points="356.12 83.29 358.44 87.99 363.62 88.74 359.87 92.4 360.76 97.56 356.12 95.13 351.48 97.56 352.37 92.4 348.62 88.74 353.8 87.99 356.12 83.29" style="fill:#fff"></polygon><path d="M344.24,112.09s6.44,15.18,27.72,14C372,126.07,349.52,131.79,344.24,112.09Z" style="fill:#fff"></path><path d="M346.83,108.85s9.9,5.57,18.11-.58C364.94,108.27,357.37,118.73,346.83,108.85Z" style="fill:#fff"></path><path d="M373.74,128.3s-12.55,14.91-31.74,8.84C342,137.14,359.57,150.53,373.74,128.3Z" style="fill:#fff"></path><path d="M351.73,114.54a1.44,1.44,0,1,1-1.43-1.43A1.43,1.43,0,0,1,351.73,114.54Z" style="fill:#fff"></path><path d="M365.06,113.1a1.44,1.44,0,1,1-1.44-1.44A1.44,1.44,0,0,1,365.06,113.1Z" style="fill:#fff"></path><path d="M348.27,122.47a1.44,1.44,0,1,1-2.87,0,1.44,1.44,0,0,1,2.87,0Z" style="fill:#fff"></path><path d="M358.75,128.3a1.43,1.43,0,1,1-1.43-1.44A1.43,1.43,0,0,1,358.75,128.3Z" style="fill:#fff"></path><path d="M343.43,141.14A1.43,1.43,0,1,1,342,139.7,1.43,1.43,0,0,1,343.43,141.14Z" style="fill:#fff"></path><path d="M355.8,144a1.43,1.43,0,1,1-1.43-1.44A1.43,1.43,0,0,1,355.8,144Z" style="fill:#fff"></path><path d="M367.46,137.9a1.24,1.24,0,1,1-1.23-1.23A1.23,1.23,0,0,1,367.46,137.9Z" style="fill:#fff"></path><path d="M140.36,240h36.88a18.88,18.88,0,0,1,18.88,18.88v36.88a18.88,18.88,0,0,1-18.88,18.88H140.36a18.88,18.88,0,0,1-18.88-18.88V258.92A18.89,18.89,0,0,1,140.36,240Z" transform="translate(23.58 -12.23) rotate(4.76)" style="fill:#407BFF"></path><path d="M140.36,240h36.88a18.88,18.88,0,0,1,18.88,18.88v36.88a18.88,18.88,0,0,1-18.88,18.88H140.36a18.88,18.88,0,0,1-18.88-18.88V258.92A18.89,18.89,0,0,1,140.36,240Z" transform="translate(23.58 -12.23) rotate(4.76)" style="fill:#fff;opacity:0.5"></path><path d="M181,308.1h-4.2a6.34,6.34,0,0,1-6.34-6.33L171.53,273h14.76l1.06,28.82A6.34,6.34,0,0,1,181,308.1Z" style="fill:#fff"></path><path d="M193,270.32a6.17,6.17,0,1,1-6.17-6.16A6.17,6.17,0,0,1,193,270.32Z" style="fill:#407BFF"></path><path d="M193,270.32a6.17,6.17,0,1,1-6.17-6.16A6.17,6.17,0,0,1,193,270.32Z" style="fill:#fff;opacity:0.8"></path><path d="M187.31,265.13v4.42l3.05-3.05A5.23,5.23,0,0,0,187.31,265.13Z" style="fill:#407BFF"></path><path d="M185.51,270.29l-3-3a5.26,5.26,0,0,0-1,3Z" style="fill:#407BFF"></path><path d="M186.26,265.13a5.23,5.23,0,0,0-3,1.37l3,3.05Z" style="fill:#407BFF"></path><path d="M185.51,271.35h-3.87A5.26,5.26,0,0,0,183,273.9Z" style="fill:#407BFF"></path><path d="M188.06,271.35l2.55,2.55a5.26,5.26,0,0,0,1.32-2.55Z" style="fill:#407BFF"></path><path d="M188.06,270.29h4a5.26,5.26,0,0,0-1-3Z" style="fill:#407BFF"></path><path d="M186.26,272.09l-2.51,2.5a5.2,5.2,0,0,0,2.51.93Z" style="fill:#407BFF"></path><path d="M187.31,272.09v3.43a5.2,5.2,0,0,0,2.51-.93Z" style="fill:#407BFF"></path><g style="opacity:0.4"><path d="M187.31,265.13v4.42l3.05-3.05A5.23,5.23,0,0,0,187.31,265.13Z" style="fill:#fff"></path><path d="M185.51,270.29l-3-3a5.26,5.26,0,0,0-1,3Z" style="fill:#fff"></path><path d="M186.26,265.13a5.23,5.23,0,0,0-3,1.37l3,3.05Z" style="fill:#fff"></path><path d="M185.51,271.35h-3.87A5.26,5.26,0,0,0,183,273.9Z" style="fill:#fff"></path><path d="M188.06,271.35l2.55,2.55a5.26,5.26,0,0,0,1.32-2.55Z" style="fill:#fff"></path><path d="M188.06,270.29h4a5.26,5.26,0,0,0-1-3Z" style="fill:#fff"></path><path d="M186.26,272.09l-2.51,2.5a5.2,5.2,0,0,0,2.51.93Z" style="fill:#fff"></path><path d="M187.31,272.09v3.43a5.2,5.2,0,0,0,2.51-.93Z" style="fill:#fff"></path></g><path d="M185.4,277.52h-13l-.89,24.28a5.28,5.28,0,0,0,5.28,5.25H181a5.29,5.29,0,0,0,5.28-5.28Z" style="fill:#407BFF"></path><path d="M185.4,277.52h-13l-.89,24.28a5.28,5.28,0,0,0,5.28,5.25H181a5.29,5.29,0,0,0,5.28-5.28Z" style="fill:#fff;opacity:0.30000000000000004"></path><path d="M165.9,266h4.93c2.07,0,4.2-.28,5.06,2.14,1,2.93,1.11,6.53,1.64,9.6.17,1,1.7.58,1.53-.42l-.93-5.4c-.28-1.65-.3-3.73-1.07-5.24-1.81-3.53-8-2.26-11.16-2.26a.79.79,0,0,0,0,1.58Z" style="fill:#407BFF"></path><g style="opacity:0.30000000000000004"><path d="M165.9,266h4.93c2.07,0,4.2-.28,5.06,2.14,1,2.93,1.11,6.53,1.64,9.6.17,1,1.7.58,1.53-.42l-.93-5.4c-.28-1.65-.3-3.73-1.07-5.24-1.81-3.53-8-2.26-11.16-2.26a.79.79,0,0,0,0,1.58Z" style="fill:#fff"></path></g><rect x="173.68" y="276.69" width="4.48" height="4.48" rx="1" transform="translate(248.77 -42.69) rotate(45)" style="fill:#407BFF"></rect><rect x="180.2" y="278.82" width="4.48" height="4.48" rx="1" transform="translate(66.86 -33.46) rotate(12.81)" style="fill:#407BFF"></rect><rect x="173.49" y="283.37" width="4.48" height="4.48" rx="1" transform="translate(-35.54 25.19) rotate(-7.45)" style="fill:#407BFF"></rect><rect x="179.4" y="285.9" width="4.48" height="4.48" rx="1" transform="translate(168.4 -52.22) rotate(30)" style="fill:#407BFF"></rect><rect x="173.68" y="276.69" width="4.48" height="4.48" rx="1" transform="translate(248.77 -42.69) rotate(45)" style="fill:#fff;opacity:0.8"></rect><rect x="180.2" y="278.82" width="4.48" height="4.48" rx="1" transform="translate(66.86 -33.46) rotate(12.81)" style="fill:#fff;opacity:0.8"></rect><rect x="173.49" y="283.37" width="4.48" height="4.48" rx="1" transform="translate(-35.54 25.19) rotate(-7.45)" style="fill:#fff;opacity:0.8"></rect><rect x="179.4" y="285.9" width="4.48" height="4.48" rx="1" transform="translate(168.4 -52.22) rotate(30)" style="fill:#fff;opacity:0.8"></rect><path d="M125.56,308.1a17.82,17.82,0,0,0,10.82,4.84L175,316.16a17.92,17.92,0,0,0,16.51-8.06Z" style="fill:#407BFF"></path><path d="M125.56,308.1a17.82,17.82,0,0,0,10.82,4.84L175,316.16a17.92,17.92,0,0,0,16.51-8.06Z" style="fill:#fff;opacity:0.2"></path><circle cx="149.3" cy="259.24" r="5.83" style="fill:#fff"></circle><path d="M144,254.65a6.12,6.12,0,0,1,.72-.72L141,250.24a.52.52,0,0,0-.73.73Z" style="fill:#fff"></path><path d="M142.28,259.24c0-.18,0-.34,0-.51h-5.21a.51.51,0,0,0,0,1h5.21C142.29,259.58,142.28,259.41,142.28,259.24Z" style="fill:#fff"></path><path d="M154.61,254.65l3.68-3.68a.51.51,0,0,0-.72-.73l-3.69,3.69A7.08,7.08,0,0,1,154.61,254.65Z" style="fill:#fff"></path><path d="M149.3,252.22l.51,0V247a.51.51,0,0,0-1,0v5.21Z" style="fill:#fff"></path><path d="M161.51,258.73h-5.22c0,.17,0,.33,0,.51s0,.34,0,.51h5.22A.51.51,0,0,0,161.51,258.73Z" style="fill:#fff"></path><path d="M154.61,263.82a8.38,8.38,0,0,1-.73.73l3.69,3.68a.51.51,0,0,0,.72-.72Z" style="fill:#fff"></path><path d="M144,263.82l-3.69,3.69a.51.51,0,0,0,.73.72c1.23-1.23,2.45-2.46,3.68-3.68A7.08,7.08,0,0,1,144,263.82Z" style="fill:#fff"></path><path d="M149.3,266.26l-.51,0v5.22a.51.51,0,0,0,1,0v-5.22Z" style="fill:#fff"></path><path d="M147.25,286.06a1,1,0,0,1,0-.17c0-.91,1.32-1.7,3.27-2.1a.72.72,0,0,1-.07-.28c0-.82,1.73-1.48,3.87-1.48s3.87.66,3.87,1.48a.88.88,0,0,1-.4.65,3,3,0,0,1,1.88,1.39c2.65.28,4.61,1.2,4.61,2.3,0,1.31-2.8,2.38-6.25,2.38l-.68,0c-1.25,1.09-4.1,1.85-7.42,1.85-4.47,0-8.1-1.38-8.1-3.09C141.81,287.63,144.08,286.48,147.25,286.06Z" style="fill:#407BFF"></path><path d="M147.25,286.06a1,1,0,0,1,0-.17c0-.91,1.32-1.7,3.27-2.1a.72.72,0,0,1-.07-.28c0-.82,1.73-1.48,3.87-1.48s3.87.66,3.87,1.48a.88.88,0,0,1-.4.65,3,3,0,0,1,1.88,1.39c2.65.28,4.61,1.2,4.61,2.3,0,1.31-2.8,2.38-6.25,2.38l-.68,0c-1.25,1.09-4.1,1.85-7.42,1.85-4.47,0-8.1-1.38-8.1-3.09C141.81,287.63,144.08,286.48,147.25,286.06Z" style="fill:#fff;opacity:0.7000000000000001"></path><path d="M147,280a1,1,0,0,0,0-.24c0-1.28-1.87-2.38-4.62-2.95a.83.83,0,0,0,.11-.4c0-1.15-2.44-2.08-5.45-2.08s-5.44.93-5.44,2.08a1.2,1.2,0,0,0,.57.92,4.16,4.16,0,0,0-2.65,2c-3.74.39-6.49,1.68-6.49,3.23,0,1.85,3.94,3.35,8.79,3.35l1,0c1.77,1.53,5.77,2.6,10.44,2.6,6.29,0,11.4-1.95,11.4-4.35C154.69,282.19,151.49,280.58,147,280Z" style="fill:#407BFF"></path><path d="M147,280a1,1,0,0,0,0-.24c0-1.28-1.87-2.38-4.62-2.95a.83.83,0,0,0,.11-.4c0-1.15-2.44-2.08-5.45-2.08s-5.44.93-5.44,2.08a1.2,1.2,0,0,0,.57.92,4.16,4.16,0,0,0-2.65,2c-3.74.39-6.49,1.68-6.49,3.23,0,1.85,3.94,3.35,8.79,3.35l1,0c1.77,1.53,5.77,2.6,10.44,2.6,6.29,0,11.4-1.95,11.4-4.35C154.69,282.19,151.49,280.58,147,280Z" style="fill:#fff;opacity:0.9"></path></g><g id="freepik--Character--inject-66"><polygon points="297.66 391.41 298.68 398.97 291.51 400.82 289.78 392.65 297.66 391.41" style="fill:#fab27b"></polygon><path d="M287.49,402.33a3.62,3.62,0,0,1-2.59-.15.76.76,0,0,1-.16-.86,1.08,1.08,0,0,1,.54-.59c1.32-.67,4.58.43,4.72.48a.19.19,0,0,1,.14.18.21.21,0,0,1-.13.2A14.85,14.85,0,0,1,287.49,402.33ZM285.83,401a1.33,1.33,0,0,0-.37.12.55.55,0,0,0-.33.35c-.1.28,0,.39.05.45.49.47,2.61.06,4.14-.44A9.4,9.4,0,0,0,285.83,401Z" style="fill:#407BFF"></path><path d="M290,401.59a.08.08,0,0,1-.08,0c-1.1-.25-3.47-1.67-3.48-2.65,0-.23.09-.54.63-.7a1.49,1.49,0,0,1,1.17.12c1.24.67,1.92,2.89,1.95,3a.19.19,0,0,1-.06.2A.18.18,0,0,1,290,401.59Zm-2.72-3h-.12c-.35.1-.35.25-.35.31.06.57,1.66,1.74,2.83,2.15a4.77,4.77,0,0,0-1.63-2.36,1.09,1.09,0,0,0-.73-.11Z" style="fill:#407BFF"></path><path d="M290.64,400.24l9.15-1.81a.77.77,0,0,1,.84.44l3.13,7.12a1.29,1.29,0,0,1-.88,1.74c-3.32.59-6.29,1-10.4,1.81-4.85,1-3.5,1.3-9.19,2.5-3.43.73-4.83-3.05-3.41-3.53,6.5-2.16,6.8-4.31,8.9-7.21A3.09,3.09,0,0,1,290.64,400.24Z" style="fill:#263238"></path><polygon points="290.71 397.06 298.26 395.84 297.74 391.99 290.04 393.86 290.71 397.06" style="opacity:0.2"></polygon><polygon points="217.73 390.97 215.53 398.27 208.24 396.98 210.05 388.83 217.73 390.97" style="fill:#fab27b"></polygon><path d="M204,396.69c-1-.25-2.06-.69-2.3-1.21a.79.79,0,0,1,.22-.86,1.07,1.07,0,0,1,.73-.31c1.48-.05,4,2.29,4.1,2.4a.19.19,0,0,1,.05.22.22.22,0,0,1-.2.13A15.36,15.36,0,0,1,204,396.69Zm-.94-1.93a1,1,0,0,0-.39,0,.55.55,0,0,0-.45.18c-.2.21-.18.34-.14.42.26.64,2.35,1.15,3.95,1.32A9.25,9.25,0,0,0,203,394.76Z" style="fill:#407BFF"></path><path d="M206.52,397.05a.11.11,0,0,1-.08,0c-.89-.68-2.46-3-2.06-3.85.07-.22.31-.45.86-.38a1.49,1.49,0,0,1,1,.6c.85,1.12.54,3.42.53,3.52a.18.18,0,0,1-.13.16A.22.22,0,0,1,206.52,397.05Zm-1.23-3.85-.11,0c-.37-.06-.42.08-.45.13-.18.55.79,2.27,1.68,3.13a4.83,4.83,0,0,0-.5-2.82,1,1,0,0,0-.62-.4Z" style="fill:#407BFF"></path><path d="M207.68,396.09l9.08,2.16a.75.75,0,0,1,.58.74l-.11,7.78A1.25,1.25,0,0,1,216,408a1.09,1.09,0,0,1-.26,0c-3.26-.83-6.13-1.7-10.21-2.66-4.81-1.14-3.73-.28-9.4-1.54-3.42-.76-3.13-4.79-1.64-4.63,6.81.73,8-1.1,11.09-2.86A3,3,0,0,1,207.68,396.09Z" style="fill:#263238"></path><polygon points="216.71 394.35 217.68 391.16 211.37 389.19 210.05 388.83 209.32 392.1 216.71 394.35" style="opacity:0.2"></polygon><polygon points="281.82 237.07 246.45 228.93 240.39 252.01 221.03 306.88 207.9 389.3 221.03 392.71 239.93 311.87 262.76 259.67 281.82 261.55 281.82 237.07" style="fill:#263238"></polygon><polygon points="259.83 266.36 258 254.9 256.24 274.57 259.83 266.36" style="opacity:0.30000000000000004"></polygon><polygon points="207.9 387.09 221.85 390.67 221.2 393.55 207.28 389.56 207.9 387.09" style="fill:#407BFF"></polygon><polygon points="286.47 309.13 280.94 250.97 277.65 241.52 269.04 241.86 256.78 247.24 267.16 312.15 285.52 394.33 299.95 391.11 286.47 309.13" style="fill:#263238"></polygon><polygon points="284.88 393.92 300.29 390.54 300.68 392.71 285.27 396.12 284.88 393.92" style="fill:#407BFF"></polygon><path d="M281.85,222c.88-9.95,3.79-38.67,3.79-38.67a39.57,39.57,0,0,0-8.34-3.27c-3.45,1.68-11.15,5.28-13.72,5.19-2.29-.07-3.73-4.62-4.4-7.47a70.1,70.1,0,0,0-10.88,1.05L245.14,189s-6.34,25.66-3.17,52.5c0,0,9,6.5,27.08,6.5a49.88,49.88,0,0,0,13.42-2S281.31,228.24,281.85,222Z" style="fill:#407BFF"></path><path d="M274.4,179.32c-2.44-2.84-.1-13.9-.1-13.9l-8.64,3.17s-.9,7.66-3.07,9.22c-.85.61-2.13,0-3.23,0l2.28,7.29,5.7.56,10.43-5.43C276.74,179.9,275.21,180.27,274.4,179.32Z" style="fill:#dd8c6a"></path><path d="M264.6,173.88a11,11,0,0,0,9.45-7.14c.15-.81.25-1.32.25-1.32l-8.64,3.17A38.82,38.82,0,0,1,264.6,173.88Z" style="opacity:0.1"></path><polygon points="260.4 177.25 264.11 185.44 257.79 189.12 257.62 177.31 260.4 177.25" style="fill:#407BFF"></polygon><polygon points="260.4 177.25 264.11 185.44 257.79 189.12 257.62 177.31 260.4 177.25" style="fill:#fff;opacity:0.5"></polygon><polygon points="276.91 179.22 263.04 185.09 267.8 191.35 279.39 180.34 276.91 179.22" style="fill:#407BFF"></polygon><polygon points="276.91 179.22 263.04 185.09 267.8 191.35 279.39 180.34 276.91 179.22" style="fill:#fff;opacity:0.5"></polygon><path d="M235.14,187l-16.5,8.5A116.22,116.22,0,0,1,206,177.77s1-5.93-.83-7.6-4.67-7-4.67-7l-4.17,1.29L193.8,168l3,5.5,4.5,5.71s6.34,26.12,15.84,26.12S241,195.67,241,195.67Z" style="fill:#dd8c6a"></path><path d="M251.94,178.3s-5.3-1.13-20.14,8.21l6.84,12.66,9.16-4.5,7-11Z" style="fill:#407BFF"></path><polygon points="228.97 187.01 231.8 185.63 239.47 199.17 236.97 200.69 228.97 187.01" style="fill:#407BFF"></polygon><polygon points="228.97 187.01 231.8 185.63 239.47 199.17 236.97 200.69 228.97 187.01" style="fill:#fff;opacity:0.5"></polygon><path d="M245.14,189l.15-.5c-2.29,2.46-3.81,7.89-4.21,9.46l2.52-1.23C244.43,191.9,245.14,189,245.14,189Z" style="opacity:0.2"></path><path d="M294.94,192.85l7.86,7.27s7.34-9.92,12.84-16.43c0,0-1.17-4.52,1.33-7.18l1.33-4.13,3.84-1,5,6.92-6.67,8.25s-12,24-16,24.5-15.09-10.32-15.09-10.32Z" style="fill:#dd8c6a"></path><path d="M280.09,181.4s5.42-.17,18.38,11.62l-9,11.27-8.23-6-5-12.05Z" style="fill:#407BFF"></path><polygon points="301.18 194.01 298.63 192.16 288.7 204.14 290.89 206.08 301.18 194.01" style="fill:#407BFF"></polygon><polygon points="301.18 194.01 298.63 192.16 288.7 204.14 290.89 206.08 301.18 194.01" style="fill:#fff;opacity:0.5"></polygon><path d="M284.67,192.94c-.22,2.23-.47,4.7-.72,7.26l2.93,2.15A33.15,33.15,0,0,0,284.67,192.94Z" style="opacity:0.2"></path><path d="M264.72,141.13s-8.84-.12-3,8.5l6.77-7.19Z" style="fill:#263238"></path><path d="M289.28,147.09a3.48,3.48,0,0,1,.24,1.43,2.72,2.72,0,0,1-2.35,2.41.23.23,0,0,0,.12.44,3.21,3.21,0,0,0,2.63-2.42,3.72,3.72,0,0,0-.21-2c-.1-.27-.54-.15-.43.12Z" style="fill:#263238"></path><path d="M281.05,155.56c-3.05,7.39-4.18,10.58-9.32,13.14-7.74,3.87-16.15-1.5-15.38-9.65.71-7.34,5.59-18.24,14-18.66a10.91,10.91,0,0,1,11.55,10.22A11,11,0,0,1,281.05,155.56Z" style="fill:#dd8c6a"></path><path d="M268.33,153.41c-.21.61-.71,1-1.11.87s-.56-.75-.35-1.37.71-1,1.11-.87S268.5,152.82,268.33,153.41Z" style="fill:#263238"></path><path d="M261.38,151.05c-.22.62-.71,1-1.11.87s-.56-.76-.35-1.37.71-1,1.11-.86S261.59,150.43,261.38,151.05Z" style="fill:#263238"></path><path d="M263.14,152.89a17.26,17.26,0,0,1-3.54,3.18,2.81,2.81,0,0,0,2.06,1.16Z" style="fill:#c13b37"></path><path d="M271.6,153a.37.37,0,0,1-.31-.32,4.53,4.53,0,0,0-2.27-2.81.4.4,0,0,1-.18-.52.39.39,0,0,1,.51-.17h0a5.15,5.15,0,0,1,2.68,3.39.36.36,0,0,1-.32.42h-.12Z" style="fill:#263238"></path><path d="M260.4,147.13a.42.42,0,0,1-.31-.25.38.38,0,0,1,.23-.49,3.75,3.75,0,0,1,3.51.34.38.38,0,0,1,.09.51l0,0a.36.36,0,0,1-.52.08h0a3,3,0,0,0-2.75-.23A.34.34,0,0,1,260.4,147.13Z" style="fill:#263238"></path><path d="M262,160.53a10.68,10.68,0,0,0,5.13,0s-.16,3.34-4.35,2.66L262,163A4.89,4.89,0,0,0,262,160.53Z" style="fill:#263238"></path><path d="M262.72,160.67v.77a7.16,7.16,0,0,0,4.19.08,3,3,0,0,0,.26-1A9.72,9.72,0,0,1,262.72,160.67Z" style="fill:#fff"></path><path d="M266.43,162.27a7.2,7.2,0,0,0-1.08-.08c-1.42,0-2.58.41-2.76.95l.23.05C264.77,163.51,265.84,163,266.43,162.27Z" style="fill:#c13b37"></path><path d="M277.78,150.34s-1,1.11.57,2.29c0,0-4.46,4.17-2.73,8.69s6,.1,7.25-1.25,7.48-9.15,2.43-14-17.13-8.2-17.61-14.16c0,0-2,4,.27,5.28,0,0-5.32,2.43-6.09-1.45,0,0-2.75,4.17,1,4.56,0,0-2.12,3,1.69,3S275.19,145.68,277.78,150.34Z" style="fill:#263238"></path><path d="M281.11,162.07a5.76,5.76,0,0,1-3.81,2.15c-2,.21-2.68-1.66-1.86-3.39.76-1.55,2.71-3.53,4.59-3a2.58,2.58,0,0,1,1.66,3.25A2.67,2.67,0,0,1,281.11,162.07Z" style="fill:#dd8c6a"></path></g></svg>