<svg class="img-fluid" id="outputsvg" xmlns="http://www.w3.org/2000/svg" style="transform: matrix(1.11388, 0, 0, 1.11388, 0, 0); transform-origin: 50% 50%; cursor: move;" width="1252" height="704" viewBox="0 0 12520 7040">
<g id="l19CEcOGDMu2VDVrxhmplsE" fill="rgb(248,254,255)" style="transform: none;">
    <g style="transform: none;">
        <path id="p1HtWYQNJy" d="M6206 7001 c-3 -22 -13 -47 -22 -55 -8 -9 -18 -32 -21 -51 -3 -19 -12 -40 -19 -46 -8 -6 -14 -19 -14 -28 0 -9 -9 -34 -20 -56 -18 -35 -20 -59 -20 -212 0 -129 -3 -174 -13 -180 -18 -11 -39 -105 -35 -155 3 -42 2 -43 -42 -64 -25 -12 -75 -25 -115 -28 -164 -15 -262 -38 -332 -79 -18 -10 -65 -23 -105 -29 -78 -10 -150 -47 -188 -96 -20 -25 -28 -101 -14 -137 7 -18 52 -39 106 -49 27 -5 47 -20 83 -61 91 -107 176 -195 188 -195 4 0 7 -7 7 -15 0 -9 8 -19 18 -22 9 -4 33 -22 52 -41 19 -18 54 -47 78 -64 29 -22 42 -39 42 -55 0 -14 7 -26 18 -29 75 -24 82 -30 157 -117 24 -28 48 -47 61 -47 12 0 29 -10 37 -22 8 -13 38 -47 66 -77 28 -29 51 -57 51 -62 0 -5 6 -9 14 -9 8 0 17 -12 21 -27 3 -15 24 -44 46 -64 21 -20 39 -41 39 -47 0 -7 6 -12 13 -12 7 0 36 -30 65 -67 28 -38 67 -85 87 -105 19 -20 35 -42 35 -48 0 -6 7 -13 15 -16 8 -3 17 -14 20 -25 4 -10 13 -19 21 -19 8 0 14 -6 14 -13 0 -6 27 -38 60 -70 33 -32 60 -61 60 -63 0 -5 98 -110 188 -201 34 -35 62 -68 62 -72 0 -5 13 -14 28 -20 15 -6 52 -36 82 -66 30 -30 61 -55 68 -55 7 0 15 -6 18 -14 3 -7 28 -28 57 -47 60 -38 67 -44 108 -82 16 -15 38 -27 48 -27 10 0 24 -6 30 -14 7 -8 26 -18 42 -21 17 -4 33 -13 36 -21 3 -8 11 -14 18 -14 7 0 23 -8 36 -19 13 -10 45 -21 71 -25 26 -4 54 -13 61 -20 7 -7 29 -18 50 -25 20 -7 39 -16 42 -21 3 -5 31 -12 63 -15 31 -4 80 -15 107 -24 74 -24 569 -24 635 1 25 9 65 20 90 24 25 3 61 15 80 25 19 11 43 19 53 19 10 0 20 6 23 14 3 8 17 17 32 21 39 10 161 85 173 106 13 24 48 24 119 -1 30 -11 69 -20 85 -20 17 0 73 -7 125 -16 52 -9 129 -21 170 -28 41 -7 87 -17 103 -24 38 -16 935 -18 992 -2 22 7 87 18 145 25 58 7 125 18 150 24 25 5 81 17 125 26 155 30 213 44 234 57 21 13 21 19 21 321 0 276 2 315 19 370 11 34 28 94 39 132 11 39 35 113 52 165 17 52 36 115 41 140 8 41 41 147 59 195 25 63 30 103 30 250 0 144 2 164 18 178 10 10 23 17 28 17 6 0 19 8 30 18 28 24 348 182 370 182 13 0 138 52 148 61 10 9 40 -4 71 -31 11 -10 36 -20 56 -24 20 -4 58 -18 85 -32 32 -17 72 -27 117 -31 l67 -6 0 672 0 671 -2205 0 -2205 0 0 -34 c0 -39 18 -96 31 -96 5 0 9 -4 9 -10 0 -18 34 -51 72 -71 63 -33 128 -126 128 -185 0 -19 5 -24 25 -24 18 0 25 -5 25 -19 0 -10 7 -21 15 -25 8 -3 20 -17 27 -31 6 -14 19 -25 30 -25 11 0 18 -7 18 -19 0 -11 5 -23 11 -27 11 -6 -96 -114 -113 -114 -5 0 -18 -8 -29 -19 -11 -10 -41 -30 -67 -44 l-47 -26 -320 -1 c-321 -1 -425 5 -425 22 0 5 -17 16 -37 24 -21 9 -74 53 -120 100 -45 46 -84 84 -87 84 -12 0 -106 62 -106 70 0 12 -48 60 -60 60 -5 0 -54 42 -108 93 -124 114 -128 117 -147 117 -8 0 -15 6 -15 13 0 17 -92 107 -109 107 -7 0 -22 11 -33 25 -11 14 -26 25 -34 25 -8 0 -14 7 -14 15 0 13 -30 15 -209 15 l-208 0 -7 -39z">
            </path>
            <path id="p1G3dcRHcZ" d="M0 5220 l0 -50 35 0 c33 0 35 2 35 36 0 40 -18 64 -49 64 -18 0 -21 -6 -21 -50z">
                </path>
                    </g>
                    </g>
                    <g id="l5VmBw8QGMfG4jhO3MrGF3E" fill="rgb(231,254,255)" style="transform: none;">
                        <g style="transform: none;"><path id="p184vgGsfy" d="M2400 7008 c0 -31 5 -35 63 -62 34 -16 87 -44 117 -62 30 -18 76 -35 102 -39 l47 -7 -26 -37 c-15 -20 -40 -49 -56 -65 -16 -17 -59 -71 -97 -120 -38 -50 -96 -120 -129 -156 -54 -57 -61 -70 -61 -105 0 -48 7 -60 40 -70 13 -4 37 -16 52 -26 16 -11 41 -28 58 -39 16 -11 31 -20 34 -20 3 0 24 -13 48 -29 85 -57 220 -131 239 -131 16 0 27 -14 26 -35 -1 -23 -466 -125 -570 -125 -34 0 -82 -6 -107 -14 -41 -12 -45 -16 -48 -48 -3 -29 4 -42 35 -76 21 -22 46 -51 56 -64 10 -13 31 -41 48 -63 17 -22 37 -44 45 -48 8 -4 14 -15 14 -22 0 -8 4 -15 8 -15 5 0 39 -38 76 -85 37 -47 74 -91 81 -98 57 -53 160 -143 187 -163 18 -13 38 -27 43 -32 6 -4 35 -21 65 -38 30 -16 58 -34 62 -40 4 -7 20 -15 35 -19 16 -3 35 -12 43 -19 24 -20 207 -76 249 -76 21 0 52 -7 67 -15 17 -9 56 -15 92 -15 l62 0 0 35 c0 26 -4 35 -16 35 -9 0 -24 8 -33 19 -11 13 -37 20 -90 25 -69 7 -161 40 -161 58 0 4 -7 8 -15 8 -9 0 -15 9 -15 25 0 22 -4 25 -39 25 -33 0 -40 -4 -44 -22 l-4 -23 -2 23 c0 12 -5 22 -11 22 -18 0 -10 27 12 42 22 14 22 16 10 147 -12 140 -21 161 -64 161 -13 0 -32 6 -43 14 -11 7 -31 17 -44 21 -14 4 -36 18 -50 31 -23 21 -36 24 -103 24 -71 0 -78 2 -78 20 0 11 6 20 14 20 8 0 16 6 19 14 3 7 21 16 40 20 19 4 40 13 47 21 7 8 25 15 40 15 41 0 60 10 60 31 0 14 7 19 28 19 15 0 37 6 48 14 11 8 43 16 70 18 l49 3 0 50 0 50 43 -4 c27 -2 51 3 67 13 22 14 25 24 25 71 0 42 3 55 15 55 11 0 15 12 15 53 0 28 -4 58 -9 65 -12 20 -78 36 -148 36 -58 0 -65 -2 -91 -32 -30 -33 -49 -39 -80 -23 -9 5 -28 14 -42 21 -97 45 -190 114 -190 140 0 5 -15 10 -33 10 -21 0 -41 8 -52 20 -10 11 -23 20 -30 20 -6 0 -20 6 -30 14 -18 13 -17 16 23 55 23 23 42 46 42 51 0 6 20 10 45 10 30 0 45 4 45 13 0 7 10 17 22 22 18 8 25 24 35 83 8 40 21 81 31 91 72 78 89 98 95 114 4 12 17 17 42 17 24 0 35 5 35 15 0 7 6 18 13 22 8 4 16 16 20 25 3 9 16 18 29 20 21 3 23 8 26 76 l3 72 -296 0 -295 0 0 -32z"></path><path id="p17YQX2H9z" d="M6750 7012 c0 -30 14 -48 130 -167 81 -84 98 -95 146 -95 39 0 43 3 49 29 5 23 13 31 33 33 l27 3 3 113 3 112 -196 0 -195 0 0 -28z">
                            </path><path id="p5sS0yfDE" d="M7890 7004 c0 -45 26 -101 53 -116 24 -12 125 -4 140 11 6 6 13 40 15 76 l4 65 -106 0 -106 0 0 -36z"></path><path id="p1DFsCeaWK" d="M7142 6763 c3 -46 4 -48 35 -51 l32 -3 3 -67 3 -67 53 -3 c28 -2 52 -7 52 -13 0 -5 22 -9 49 -9 47 0 50 2 56 30 4 17 3 59 0 95 -6 55 -10 65 -26 65 -11 0 -19 7 -19 15 0 12 -13 15 -55 15 -48 0 -55 2 -55 20 0 18 -7 20 -66 20 l-65 0 3 -47z"></path><path id="pCWXbAJNj" d="M5940 6773 c-7 -16 -15 -74 -18 -130 l-5 -103 -67 0 c-102 0 -128 -8 -147 -44 -33 -62 -17 -250 26 -300 13 -15 27 -17 74 -14 32 2 62 9 65 15 4 6 17 13 30 17 14 5 22 15 22 29 0 12 9 28 20 35 11 7 20 18 20 25 0 7 6 25 13 40 9 21 19 27 45 27 27 0 32 3 32 25 0 15 6 25 14 25 8 0 16 7 20 15 3 8 12 15 21 15 13 0 15 19 15 125 0 77 -4 125 -10 125 -21 0 -50 41 -50 70 0 30 -1 30 -53 30 -49 0 -55 -3 -67 -27z"></path><path id="ptmDWgJAn" d="M8216 6525 l-26 -28 -288 5 c-158 2 -293 3 -300 0 -6 -2 -12 -19 -12 -37 0 -29 -4 -35 -35 -46 -30 -11 -35 -17 -35 -46 0 -18 5 -33 10 -33 6 0 10 -7 10 -16 0 -27 28 -45 79 -51 47 -5 50 -4 56 18 l6 24 302 -3 c171 -2 310 1 322 6 11 5 39 18 62 28 24 11 46 27 49 37 3 9 14 17 25 17 16 0 19 7 19 50 0 36 -4 50 -14 50 -7 0 -20 9 -27 20 -11 16 -30 21 -96 26 -80 7 -82 6 -107 -21z"></path><path id="pAmltHQOq" d="M5428 6209 c-13 -7 -18 -23 -18 -59 0 -40 4 -50 20 -55 15 -5 20 -15 20 -41 0 -34 1 -34 44 -34 49 0 96 29 96 60 0 11 9 24 21 30 17 9 20 19 17 58 l-3 47 -90 2 c-49 2 -98 -2 -107 -8z"></path><path id="pO3hCar2A" d="M5066 6068 c-23 -32 -21 -171 2 -218 17 -34 18 -35 78 -34 56 1 64 4 93 35 26 28 31 41 28 72 -2 30 1 37 15 37 14 0 18 8 18 40 0 32 -6 46 -27 65 -25 21 -38 24 -110 25 -73 0 -83 -2 -97 -22z"></path><path id="pAUEdFJA9" d="M12095 5851 c-12 -11 -137 -61 -154 -61 -6 0 -14 -6 -17 -14 -3 -7 -23 -17 -45 -20 -38 -6 -40 -8 -37 -39 2 -27 8 -33 31 -35 15 -2 27 -8 27 -13 0 -5 13 -9 28 -9 15 0 32 -4 38 -9 11 -10 161 -31 222 -31 35 0 45 4 49 20 3 13 14 20 29 20 13 0 24 5 24 10 0 6 9 10 20 10 17 0 20 7 20 45 0 36 -3 45 -18 45 -9 0 -22 8 -29 19 -6 10 -22 19 -36 19 -13 0 -35 11 -50 26 -27 27 -83 36 -102 17z"></path><path id="p14IBOxb8J" d="M5320 5719 c0 -11 -7 -28 -16 -37 -14 -13 -15 -29 -10 -91 3 -41 10 -77 15 -81 5 -3 13 -18 16 -33 7 -28 8 -29 76 -25 65 3 83 -2 59 -17 -5 -3 -10 -26 -10 -50 0 -56 13 -64 119 -72 l80 -6 7 27 c3 14 10 26 15 26 5 0 9 20 9 45 0 25 -3 45 -8 45 -4 0 -14 15 -21 33 -8 17 -34 52 -58 76 -24 25 -43 49 -43 53 0 4 -6 8 -13 8 -7 0 -17 8 -24 19 -6 10 -29 21 -52 25 -31 5 -41 11 -41 25 0 41 -11 51 -56 51 -38 0 -44 -3 -44 -21z"></path><path id="pzdDtXbxo" d="M3130 5500 c0 -5 -7 -10 -15 -10 -10 0 -15 -11 -15 -35 l0 -35 65 0 65 0 0 29 c0 52 -8 61 -56 61 -24 0 -44 -4 -44 -10z"></path><path id="p3bzbDnCG" d="M3994 5289 c-3 -6 -9 -49 -12 -95 -4 -73 -7 -84 -23 -84 -11 0 -27 -8 -37 -18 -11 -11 -38 -22 -62 -25 -24 -3 -46 -11 -51 -18 -4 -8 -38 -16 -78 -20 -78 -7 -101 -22 -101 -68 0 -29 3 -31 35 -31 19 0 52 6 72 14 21 8 59 17 84 21 26 3 55 12 65 20 11 8 27 15 37 15 11 0 56 18 100 39 45 22 101 42 125 46 23 4 42 12 42 18 0 7 17 21 39 33 l38 21 29 -24 c16 -13 43 -31 59 -40 17 -8 49 -31 72 -49 23 -19 48 -34 57 -34 9 0 25 -9 36 -20 11 -11 23 -20 27 -20 3 0 14 -7 24 -16 17 -15 47 -34 114 -69 17 -9 44 -24 60 -35 17 -11 47 -29 68 -40 20 -11 37 -24 37 -29 0 -5 12 -11 28 -14 15 -3 38 -16 51 -28 24 -23 93 -64 158 -94 17 -8 34 -19 37 -24 4 -5 21 -13 38 -17 18 -3 52 -22 77 -40 24 -19 51 -34 60 -34 9 0 31 -9 49 -20 17 -11 51 -23 74 -26 23 -4 53 -13 67 -21 40 -20 193 -17 244 6 23 10 49 21 57 24 37 16 110 81 110 97 0 4 9 10 20 13 11 3 20 12 20 21 0 8 15 41 34 73 18 32 36 75 40 95 4 20 13 50 21 65 8 15 15 36 15 45 0 9 9 54 20 100 11 46 20 90 20 98 0 19 -55 44 -82 37 -26 -7 -48 14 -48 47 0 16 -6 26 -15 26 -8 0 -15 5 -15 10 0 6 -15 10 -34 10 -19 0 -38 5 -41 10 -3 6 -21 10 -40 10 -19 0 -37 5 -40 10 -3 6 -27 10 -52 10 -61 0 -72 -16 -73 -108 0 -139 46 -192 177 -200 l73 -5 0 -31 0 -31 -51 4 c-118 8 -139 -12 -139 -134 0 -60 3 -75 15 -75 8 0 15 -7 15 -17 0 -9 11 -31 25 -49 l25 -32 -31 -7 c-46 -10 -117 -43 -122 -58 -3 -7 -6 -5 -6 5 -2 30 -30 48 -79 48 -26 0 -60 7 -76 15 -15 8 -39 15 -53 15 -50 0 -111 22 -116 41 -3 11 -14 19 -27 19 -12 0 -34 6 -48 14 -15 8 -41 20 -59 26 -18 7 -35 21 -38 31 -4 10 -15 19 -26 19 -10 0 -19 4 -19 10 0 5 -22 12 -50 16 -28 4 -50 12 -50 18 0 27 -52 114 -70 119 -16 4 -20 14 -20 46 0 28 -4 41 -14 41 -7 0 -16 9 -19 20 -4 15 -14 20 -41 20 -36 0 -36 0 -36 44 0 45 -18 76 -44 76 -8 0 -19 7 -26 15 -7 8 -26 15 -43 15 -37 0 -160 -22 -167 -30 -10 -11 -55 -27 -67 -23 -8 3 -13 21 -13 43 l0 39 -140 -2 c-139 -2 -140 -2 -140 21 0 13 -6 22 -15 22 -8 0 -15 7 -15 15 0 12 -13 15 -59 15 -33 0 -63 -5 -67 -11z"></path><path id="pq1oA9P6g" d="M0 5259 c0 -18 3 -30 6 -26 4 3 13 0 21 -8 24 -25 34 -17 31 23 -3 32 -7 37 -30 40 -25 3 -28 0 -28 -29z"></path><path id="piS4n9TP4" d="M6170 4989 c0 -32 4 -42 20 -46 11 -3 20 -11 20 -18 0 -21 29 -45 55 -45 22 0 23 2 12 35 -6 19 -16 35 -24 35 -7 0 -13 4 -13 8 0 10 -54 72 -63 72 -4 0 -7 -18 -7 -41z"></path><path id="pEmOeTwi1" d="M6310 4825 c0 -24 5 -35 15 -35 8 0 15 -7 15 -15 0 -8 7 -15 15 -15 8 0 15 -9 15 -20 0 -11 9 -25 20 -32 11 -7 20 -18 20 -25 0 -7 9 -18 20 -25 11 -7 20 -18 20 -25 0 -8 14 -13 35 -13 19 0 35 2 35 5 0 12 -134 170 -146 173 -8 2 -14 9 -14 17 0 7 -11 20 -25 29 l-25 16 0 -35z"></path><path id="ppuIsQWBY" d="M11480 4716 c0 -45 -3 -54 -20 -59 -17 -4 -20 -14 -20 -56 0 -36 -4 -53 -15 -57 -22 -9 -24 -42 -27 -417 l-3 -347 40 0 c62 0 65 16 65 343 l0 276 23 3 c21 3 22 7 21 81 -1 75 -1 77 22 77 27 0 29 18 17 143 l-6 67 -48 0 -49 0 0 -54z"></path><path id="px2UyqyOU" d="M6520 4579 c0 -21 9 -40 25 -55 14 -13 25 -28 25 -34 0 -5 9 -10 20 -10 13 0 20 -7 20 -19 0 -10 11 -27 25 -37 14 -10 25 -23 25 -29 0 -6 16 -25 35 -42 19 -18 35 -36 35 -41 0 -15 46 -34 74 -30 l27 3 -40 42 c-23 23 -41 44 -41 47 0 2 -27 30 -59 62 -33 32 -57 62 -54 67 3 4 -4 11 -16 14 -11 3 -23 13 -26 23 -3 10 -12 21 -20 24 -8 3 -15 12 -15 20 0 11 -20 26 -36 26 -2 0 -4 -14 -4 -31z"></path><path id="ptXsS189t" d="M6840 4236 c0 -33 2 -36 31 -36 l30 0 -21 30 c-31 44 -40 45 -40 6z"></path><path id="p9e7xcNbw" d="M7000 4069 c0 -22 22 -49 39 -49 6 0 11 -6 11 -14 0 -17 59 -66 81 -66 10 0 23 -13 30 -29 15 -33 139 -121 170 -121 12 0 19 -7 19 -18 0 -11 16 -27 43 -40 23 -12 63 -35 88 -51 25 -15 61 -33 80 -40 20 -6 53 -20 74 -31 22 -11 46 -20 55 -20 9 0 21 -5 26 -10 12 -12 207 -54 332 -71 62 -8 154 -10 275 -6 159 5 197 10 300 36 66 17 140 42 165 55 26 12 76 38 112 56 36 17 83 47 105 64 59 48 59 48 122 27 32 -11 110 -29 173 -41 63 -11 160 -30 215 -40 55 -11 128 -20 163 -20 55 0 62 2 62 20 0 16 -7 20 -32 20 -18 0 -45 6 -59 14 -14 7 -54 16 -90 20 -35 4 -77 11 -94 16 -16 6 -82 16 -145 24 -63 8 -140 21 -170 29 -137 37 -139 37 -155 7 -14 -28 -131 -104 -177 -115 -15 -4 -29 -13 -32 -21 -3 -8 -13 -14 -23 -14 -10 0 -34 -8 -53 -19 -19 -10 -55 -22 -80 -25 -25 -4 -65 -15 -90 -24 -66 -25 -501 -25 -575 -1 -27 9 -76 20 -107 24 -32 3 -60 10 -63 15 -3 5 -22 14 -42 21 -21 7 -43 18 -50 25 -7 7 -35 16 -61 20 -26 4 -58 15 -71 25 -13 11 -29 19 -36 19 -7 0 -15 6 -18 14 -3 8 -19 17 -36 21 -16 3 -35 13 -42 21 -6 8 -20 14 -30 14 -10 0 -32 12 -48 28 -41 37 -48 43 -108 81 -29 19 -54 40 -57 47 -3 8 -10 14 -17 14 -6 0 -36 24 -66 52 -78 76 -113 94 -113 57z"></path><path id="pMFPbe7O7" d="M11234 3820 c-10 -10 -70 -25 -229 -55 -44 -9 -101 -20 -127 -26 -54 -12 -74 -15 -178 -29 -138 -17 -190 -31 -190 -52 0 -15 8 -18 48 -18 26 0 63 5 82 10 19 6 93 17 164 25 71 9 133 18 137 21 7 4 76 17 265 50 l31 6 7 -104 c6 -107 25 -202 57 -301 10 -31 19 -64 19 -72 0 -31 121 -264 141 -270 11 -4 19 -15 19 -29 0 -25 23 -59 77 -112 18 -18 48 -57 67 -87 19 -30 52 -71 73 -91 66 -62 153 -136 161 -136 4 0 20 -12 37 -27 16 -16 38 -33 49 -38 35 -18 63 -122 71 -264 10 -207 -14 -438 -72 -686 -18 -79 -124 -357 -173 -454 -18 -36 -46 -103 -62 -150 -29 -83 -30 -90 -25 -216 4 -89 11 -140 21 -160 9 -17 16 -37 16 -45 0 -9 18 -39 40 -69 22 -29 40 -58 40 -63 0 -14 123 -144 192 -203 20 -17 19 -18 -36 -74 -34 -35 -56 -65 -56 -79 0 -20 5 -22 54 -22 52 0 55 2 114 60 34 33 66 60 73 60 18 0 38 32 39 63 0 17 5 27 15 27 10 0 15 11 15 35 0 24 -5 35 -14 35 -9 0 -16 12 -18 27 -2 23 -8 29 -35 31 -21 2 -33 9 -33 18 0 11 -15 14 -60 14 -33 0 -60 4 -60 10 0 6 -6 10 -14 10 -8 0 -17 11 -20 25 -4 16 -13 25 -26 25 -16 0 -20 7 -20 35 0 24 -5 35 -15 35 -8 0 -15 4 -15 9 0 5 -10 11 -22 13 -13 2 -22 6 -20 11 1 4 2 18 2 31 0 23 5 25 48 28 40 3 47 6 50 26 2 13 10 26 18 29 10 4 14 23 14 69 l0 64 -45 0 c-38 0 -45 -3 -45 -20 0 -11 -4 -20 -10 -20 -5 0 -10 16 -10 35 0 33 -2 35 -33 35 -19 0 -36 2 -38 4 -11 11 4 86 17 86 8 0 14 -4 14 -10 0 -5 7 -10 15 -10 8 0 15 -6 15 -14 0 -26 42 -46 95 -46 42 0 57 5 83 28 18 16 32 39 32 50 0 15 6 22 19 22 21 0 29 37 34 165 2 53 5 60 23 63 12 2 24 12 27 23 3 13 14 19 31 19 19 0 26 5 26 20 0 13 7 20 19 20 18 0 19 20 25 513 4 281 3 659 -1 839 l-8 328 -27 27 c-25 25 -34 27 -150 32 l-123 6 -5 100 c-8 129 -34 189 -89 205 -20 5 -105 10 -188 10 l-153 0 0 -38 c0 -27 -7 -45 -23 -60 -27 -25 -37 -28 -37 -9 0 7 -15 42 -33 77 -33 64 -33 66 -29 178 2 61 8 112 13 112 5 0 9 36 9 79 0 85 -4 91 -60 91 -19 0 -30 -6 -33 -17 -3 -10 -5 8 -6 39 -1 46 -5 59 -20 68 -25 13 -54 13 -67 0z"></path><path id="pqwVYuRUt" d="M9810 3655 l0 -25 315 0 315 0 0 23 0 24 -315 2 -315 2 0 -26z"></path></g></g><g id="l1OFDDctALXUwkoHl21VwY5" fill="rgb(236,251,252)" style="transform: none;"><g style="transform: none;"><path id="pvOd4Be3y" d="M2958 6983 c-3 -52 -5 -58 -27 -61 -13 -2 -25 -12 -28 -22 -3 -11 -11 -16 -19 -13 -8 3 -14 2 -13 -3 7 -37 -1 -47 -36 -41 -29 5 -35 2 -41 -16 -4 -12 -23 -39 -43 -61 -20 -21 -44 -47 -53 -57 -10 -11 -18 -26 -18 -34 0 -9 -6 -18 -14 -21 -20 -8 -28 -34 -15 -50 16 -20 7 -58 -18 -69 -13 -5 -23 -15 -23 -22 0 -7 -9 -13 -19 -13 -15 0 -18 5 -13 22 3 14 2 19 -6 14 -7 -4 -12 -14 -12 -21 0 -8 -6 -12 -14 -9 -9 3 -19 -4 -26 -17 -7 -12 -37 -46 -68 -76 -30 -30 -52 -57 -48 -60 3 -4 6 -3 6 1 0 4 14 -4 31 -18 17 -14 36 -26 43 -26 7 0 21 -9 31 -20 10 -11 24 -20 32 -20 7 0 13 -4 13 -10 0 -5 5 -10 11 -10 5 0 7 5 4 10 -3 6 1 10 9 10 9 0 16 -5 16 -10 0 -20 95 -100 119 -100 4 0 22 -11 41 -25 19 -14 41 -25 51 -25 9 0 22 -7 30 -16 7 -9 22 -14 37 -11 18 3 26 -1 32 -19 5 -13 14 -24 20 -24 6 0 9 4 6 9 -3 5 2 15 11 22 9 8 14 9 11 4 -4 -6 2 -11 13 -11 21 0 25 12 7 19 -10 4 -10 6 -1 6 6 1 15 -3 18 -9 3 -5 13 -10 21 -10 27 0 13 53 -16 61 -22 6 -23 7 -6 14 25 11 63 10 110 -3 43 -12 56 -25 56 -61 0 -20 -4 -23 -26 -18 -18 3 -22 1 -15 -6 15 -15 14 -47 -1 -47 -9 0 -9 -3 0 -12 38 -38 -10 -82 -78 -70 -37 6 -46 12 -48 31 -2 13 0 21 6 17 15 -9 21 18 8 34 -6 8 -21 16 -32 18 -18 2 -21 -1 -17 -23 3 -14 0 -31 -6 -39 -8 -10 -8 -16 3 -25 18 -15 50 -100 41 -109 -4 -4 -26 -8 -50 -8 -24 -1 -53 -9 -66 -18 -16 -11 -38 -15 -74 -12 -27 2 -40 2 -27 -1 13 -3 22 -12 22 -23 0 -20 -19 -30 -60 -30 -15 0 -33 -7 -40 -15 -7 -8 -27 -17 -46 -21 -19 -3 -38 -12 -42 -20 -5 -9 -36 -14 -101 -16 -91 -3 -94 -2 -102 21 -8 19 -7 22 4 13 8 -7 17 -8 23 -3 5 5 29 13 54 18 36 7 46 13 48 31 4 26 -5 28 -37 6 -17 -12 -36 -15 -74 -11 -39 4 -57 1 -71 -12 -13 -11 -17 -11 -11 -2 5 10 4 12 -3 7 -16 -10 -15 -39 1 -30 10 6 10 4 0 -7 -18 -18 -16 -27 4 -25 10 0 19 -8 21 -19 5 -25 31 -55 47 -55 7 0 25 -7 41 -15 23 -12 25 -15 11 -21 -9 -3 -17 -15 -17 -25 0 -12 5 -16 15 -13 10 4 15 0 15 -15 0 -48 59 -27 60 22 0 25 17 21 24 -5 11 -42 7 -58 -14 -58 -11 0 -20 -4 -20 -10 0 -5 9 -10 20 -10 15 0 20 -7 20 -27 0 -26 1 -26 17 -10 14 13 15 23 8 45 -6 15 -8 45 -5 67 5 39 6 40 47 43 33 2 42 -1 46 -15 4 -17 5 -17 6 0 2 25 41 22 72 -7 14 -13 36 -27 50 -31 13 -4 33 -14 44 -21 11 -8 30 -14 43 -14 13 0 30 -6 38 -14 12 -13 9 -15 -28 -18 -40 -3 -43 -5 -45 -33 -1 -16 1 -22 3 -12 6 18 44 24 44 7 0 -5 12 -10 28 -10 23 -1 24 -2 10 -11 -22 -12 -23 -35 -4 -46 8 -4 17 -29 21 -55 6 -41 5 -48 -15 -58 -12 -6 -27 -9 -34 -7 -30 12 -36 -10 -11 -37 14 -15 25 -34 25 -42 0 -7 5 -14 11 -14 6 0 9 -9 6 -19 -6 -23 5 -29 55 -27 20 0 34 -3 30 -8 -3 -5 4 -7 16 -4 15 4 19 2 15 -9 -4 -11 -2 -14 8 -11 15 6 84 -25 94 -42 4 -6 12 -7 22 -2 24 14 116 1 133 -18 8 -10 24 -20 35 -23 11 -4 -1 -5 -27 -3 -43 3 -46 2 -31 -13 14 -13 47 -17 203 -19 167 -3 189 -2 204 14 12 11 41 19 87 23 40 4 74 12 78 20 5 7 28 15 52 18 24 4 49 12 54 20 6 7 23 17 39 21 16 5 33 18 37 30 8 20 6 21 -11 12 -10 -5 -21 -10 -23 -10 -7 0 -2 28 5 36 4 3 2 18 -4 34 -6 17 -6 46 -1 72 8 39 11 43 41 46 24 2 32 -1 32 -12 0 -9 7 -16 15 -16 9 0 15 -9 15 -25 0 -14 5 -25 10 -25 6 0 10 -9 10 -20 0 -13 5 -18 15 -14 8 4 15 12 15 20 0 15 38 28 66 22 12 -2 0 -12 -35 -32 -32 -17 -49 -32 -44 -37 12 -12 43 -1 43 16 0 29 70 34 96 8 33 -34 118 -83 143 -83 l24 0 -24 19 c-13 10 -35 24 -49 31 -14 7 -41 25 -60 40 -19 15 -44 30 -55 33 -16 4 -14 5 7 6 15 0 35 -7 45 -17 33 -33 103 -75 129 -78 15 -1 33 4 41 12 8 8 19 12 24 8 5 -3 12 2 15 10 7 17 44 22 44 6 0 -5 5 -10 10 -10 6 0 10 6 10 14 0 20 70 29 90 11 9 -8 22 -15 28 -15 17 0 42 -30 42 -51 0 -12 -7 -19 -20 -19 -16 0 -19 -5 -14 -24 3 -13 1 -27 -4 -30 -6 -3 -8 -14 -5 -25 6 -23 39 -17 54 10 13 26 59 25 66 -1 3 -11 12 -20 19 -20 16 0 19 -36 4 -45 -20 -12 -9 -34 19 -40 23 -5 36 -18 55 -58 32 -64 32 -72 1 -51 -14 9 -25 12 -25 6 0 -6 5 -14 10 -17 6 -3 10 -15 10 -26 0 -14 7 -19 28 -19 16 0 39 -9 52 -20 13 -11 31 -20 41 -20 10 0 22 -7 26 -14 10 -18 115 -66 144 -66 12 0 23 -8 26 -20 3 -11 11 -20 19 -20 7 0 17 -7 22 -16 6 -11 20 -14 48 -12 l39 3 -38 12 c-20 6 -55 25 -76 42 -21 17 -44 31 -49 31 -15 0 -50 16 -97 45 -22 13 -55 30 -73 39 -18 8 -42 22 -54 31 l-22 15 25 0 c14 0 37 -9 50 -21 13 -11 31 -18 41 -16 11 3 19 -2 23 -13 5 -16 60 -47 67 -39 2 2 14 -4 28 -14 13 -9 35 -17 48 -17 15 0 26 -7 29 -20 3 -13 17 -22 39 -26 19 -3 36 -10 39 -14 2 -4 18 -6 34 -4 16 2 42 -3 58 -11 15 -8 49 -15 75 -15 49 0 83 -21 74 -46 -4 -10 5 -14 34 -14 22 0 40 4 40 10 0 11 76 46 121 55 l34 6 -25 -15 c-14 -8 -32 -18 -40 -22 -92 -42 -105 -45 -166 -42 -46 2 -64 0 -64 -9 0 -10 24 -13 85 -13 47 0 85 4 85 10 0 12 84 49 132 56 36 6 38 9 38 41 l0 35 -25 -16 c-25 -17 -25 -16 -21 8 3 18 -4 34 -25 57 -16 17 -29 40 -29 50 0 10 -7 19 -15 19 -22 0 -20 57 3 63 16 4 16 5 0 6 -21 1 -22 11 -6 45 13 30 64 43 112 30 17 -5 40 -8 52 -6 17 2 20 8 16 34 -3 20 0 35 10 42 11 9 12 18 3 50 -9 31 -13 36 -18 22 -6 -16 -16 -18 -76 -14 -85 6 -126 29 -152 85 -22 48 -24 120 -5 146 16 21 45 22 52 2 4 -10 15 -12 34 -9 17 4 37 0 53 -11 16 -10 34 -14 47 -10 11 4 20 2 20 -4 0 -6 7 -11 15 -11 10 0 15 -10 15 -29 0 -16 5 -31 11 -33 8 -3 5 -10 -6 -22 -17 -16 -17 -17 4 -23 11 -3 21 -9 21 -13 0 -5 11 -3 25 3 14 7 25 17 25 23 0 11 22 24 40 24 4 0 6 -8 3 -18 -4 -16 0 -18 26 -14 38 5 45 42 9 42 -15 0 -38 17 -63 47 -56 65 -84 93 -95 93 -5 0 -27 18 -48 40 -21 22 -54 51 -73 65 -19 14 -52 43 -74 64 -22 20 -48 40 -57 44 -10 3 -18 13 -18 22 0 8 -3 15 -7 15 -12 0 -97 88 -188 195 -36 41 -56 56 -83 61 -133 25 -149 93 -40 171 49 35 63 41 138 49 25 3 72 18 105 33 33 15 74 33 90 39 44 16 188 34 277 36 25 1 44 4 41 9 -4 6 13 11 20 5 8 -9 67 47 67 63 0 10 4 19 10 19 11 0 1 32 -12 41 -12 8 13 102 29 112 10 6 13 52 13 180 0 153 2 177 20 212 11 22 20 47 20 56 0 9 6 22 14 28 7 6 16 29 20 51 3 22 10 40 15 40 10 0 25 41 36 98 l7 32 -1646 0 -1645 0 -3 -57z m3072 -243 c0 -17 9 -39 20 -50 17 -17 20 -33 20 -105 0 -91 -13 -135 -40 -135 -13 0 -16 -6 -12 -25 4 -23 1 -25 -29 -25 -29 0 -36 -5 -47 -32 -22 -54 -29 -63 -47 -61 -13 1 -16 -5 -13 -27 2 -16 1 -27 -4 -24 -4 3 -8 0 -8 -5 0 -6 -7 -11 -15 -11 -8 0 -15 -4 -15 -9 0 -18 -60 -24 -79 -7 -40 36 -57 186 -27 244 13 26 24 32 63 38 25 4 70 2 98 -3 l53 -9 4 110 c6 125 19 166 55 166 19 0 23 -5 23 -30z m57 -212 c-2 -29 -3 -8 -3 47 0 55 1 79 3 53 2 -26 2 -71 0 -100z m-489 -361 c2 -12 -7 -22 -30 -32 -18 -8 -27 -14 -20 -15 21 0 13 -28 -14 -49 -41 -32 -57 -28 -52 13 3 30 0 36 -19 41 -28 7 -31 39 -5 54 9 6 44 10 77 8 48 -2 60 -5 63 -20z m-355 -132 c31 -28 35 -45 9 -45 -37 0 -58 -50 -28 -67 24 -13 -36 -72 -76 -75 -28 -3 -35 2 -50 32 -22 44 -23 128 -2 158 23 33 108 31 147 -3z m142 -346 c4 -12 3 -24 -2 -28 -6 -3 -2 -14 8 -25 11 -11 19 -14 19 -8 0 6 6 10 13 8 6 -3 24 -7 39 -10 19 -4 26 -11 22 -21 -4 -10 0 -15 11 -15 9 0 26 -11 37 -25 11 -14 26 -25 34 -25 8 0 14 -10 14 -26 0 -14 4 -22 10 -19 5 3 18 -12 27 -35 10 -22 21 -40 25 -40 5 0 8 -7 8 -15 0 -8 -4 -15 -9 -15 -5 0 -12 -12 -15 -26 -7 -25 -9 -26 -59 -19 -29 4 -60 11 -69 17 -24 12 -23 39 2 45 20 5 28 23 10 23 -5 0 -10 14 -10 30 0 23 -5 30 -19 30 -11 0 -23 5 -26 10 -9 15 -25 12 -25 -5 0 -10 -10 -15 -34 -15 -30 0 -35 4 -41 30 -4 17 -10 30 -14 30 -11 0 -22 85 -15 105 4 8 12 15 20 15 10 0 13 7 8 25 -8 32 21 35 31 4z m-2191 -224 c4 -12 -3 -15 -32 -14 -20 1 -29 3 -19 6 9 2 17 9 17 14 0 15 27 10 34 -6z m781 -404 c-16 -10 -32 -16 -35 -14 -8 7 32 33 49 33 9 0 3 -8 -14 -19z m-75 -28 c-13 -3 -33 -11 -44 -19 -26 -18 -42 -18 -24 -1 18 18 38 26 68 25 l25 -1 -25 -4z m-135 -43 c-22 -4 -53 -12 -68 -19 -37 -14 -41 -14 -25 2 20 20 38 25 88 25 l45 -1 -40 -7z"></path><path id="pmqZYqTgn" d="M6594 7008 c2 -23 9 -33 21 -33 9 0 25 -10 35 -23 10 -12 24 -22 32 -22 16 0 115 -98 109 -108 -3 -4 4 -9 14 -11 23 -4 25 -6 147 -118 54 -51 103 -93 108 -93 12 0 60 -48 60 -60 0 -8 97 -72 103 -67 5 5 187 -186 187 -197 0 -6 4 -6 9 3 7 10 13 11 30 2 12 -7 19 -16 16 -22 -4 -5 11 -9 34 -9 22 0 51 -4 66 -10 36 -14 114 -20 121 -9 3 5 13 5 24 -1 11 -6 112 -9 257 -8 l238 2 -220 6 -220 6 256 2 255 2 59 36 c33 19 62 40 66 46 3 5 8 9 10 9 14 -2 48 13 44 19 -3 4 3 14 12 21 14 12 16 12 9 -1 -4 -9 -2 -8 7 2 8 10 18 14 22 10 5 -4 5 -2 1 5 -4 7 4 22 19 35 28 24 33 59 10 78 -9 7 -13 15 -11 18 10 9 -14 41 -27 36 -7 -2 -21 11 -31 31 -10 19 -22 32 -26 30 -4 -3 -10 14 -13 36 -7 53 -27 76 -27 31 0 -18 -4 -32 -10 -32 -5 0 -7 13 -3 30 4 21 2 30 -7 30 -8 0 -10 3 -7 7 4 3 -5 22 -20 41 -15 20 -20 32 -12 27 8 -4 -4 8 -25 26 -22 19 -56 43 -75 54 -20 11 -36 27 -36 35 -1 8 -6 14 -13 13 -7 -2 -12 2 -12 8 0 6 -7 17 -15 25 -8 8 -12 21 -9 29 4 8 1 15 -5 15 -6 0 -11 11 -11 25 0 22 -4 25 -35 25 -21 0 -35 -5 -36 -12 -1 -7 -2 -30 -3 -51 -3 -45 -10 -53 -53 -62 -27 -5 -37 -2 -58 21 -14 15 -28 44 -31 66 l-7 38 -403 0 -403 0 -3 -97 c-3 -84 -6 -98 -20 -101 -16 -3 -18 6 -19 70 -2 117 -16 150 -18 41 -1 -86 -3 -93 -21 -93 -13 0 -20 -7 -20 -20 0 -13 7 -20 19 -20 14 0 18 -5 14 -20 -3 -11 -11 -20 -18 -20 -6 0 -22 9 -35 20 -13 11 -26 20 -30 20 -4 0 -16 12 -25 27 -17 25 -17 26 0 19 9 -3 -5 16 -31 44 -27 27 -54 50 -59 50 -16 0 -65 49 -65 65 0 12 -18 15 -95 15 l-95 0 4 -32z m281 -83 c28 -29 31 -37 11 -29 -14 5 -51 54 -42 54 3 0 17 -11 31 -25z m363 -162 c-2 -12 -13 -18 -33 -18 -20 0 -31 6 -33 18 -3 14 4 17 33 17 29 0 36 -3 33 -17z m112 -38 c0 -9 -10 -16 -27 -16 -24 -2 -25 -2 -5 -6 19 -4 22 -10 22 -54 l0 -50 -47 3 c-48 3 -48 3 -51 41 -2 21 3 51 10 67 11 27 18 30 55 30 32 0 43 -4 43 -15z m43 -61 c6 -59 -1 -84 -24 -84 -16 0 -19 8 -19 58 0 32 3 62 7 65 17 18 31 3 36 -39z m923 -161 c8 -11 13 -13 14 -5 0 20 48 14 60 -8 6 -11 17 -20 25 -20 8 0 15 -9 15 -20 0 -13 -7 -20 -19 -20 -11 0 -22 -8 -25 -17 -7 -20 -82 -60 -93 -50 -3 4 -11 -1 -18 -10 -19 -25 -49 -9 -41 22 l6 25 -242 -1 c-162 -1 -231 -4 -208 -10 19 -5 122 -8 228 -7 106 0 195 -2 199 -5 3 -3 3 -13 0 -22 -6 -13 -38 -15 -232 -15 -230 0 -315 10 -315 36 0 8 -8 14 -19 14 -14 0 -21 10 -26 36 -3 20 -4 39 -1 42 3 3 139 4 302 3 l295 -2 24 25 c28 30 52 33 71 9z m-708 -136 c-19 -9 -20 -11 -5 -14 26 -7 21 -20 -8 -20 -19 0 -25 5 -25 23 0 28 29 47 48 31 11 -9 9 -13 -10 -20z m36 -51 c-3 -8 -15 -11 -32 -8 -24 5 -25 6 -7 13 31 12 45 10 39 -5z"></path><path id="p7sAHAJdf" d="M7290 6670 c0 -11 -7 -20 -15 -20 -8 0 -15 -9 -15 -20 0 -13 7 -20 20 -20 13 0 20 7 20 20 0 11 7 20 15 20 8 0 15 9 15 20 0 13 -7 20 -20 20 -13 0 -20 -7 -20 -20z"></path><path id="p1FiGROKaJ" d="M2765 6855 c-7 -18 -25 -39 -97 -116 -10 -11 -18 -25 -18 -32 0 -7 -9 -20 -20 -30 -11 -9 -20 -25 -20 -34 0 -16 3 -15 18 4 9 12 34 41 54 65 92 107 99 118 95 140 -3 22 -4 22 -12 3z"></path><path id="pGP5OzOqp" d="M2534 6555 c-4 -8 -12 -15 -20 -15 -7 0 -19 -10 -25 -22 -6 -12 -36 -45 -65 -74 -44 -43 -54 -58 -54 -86 0 -34 2 -36 76 -72 17 -8 36 -22 44 -30 7 -9 19 -16 26 -16 8 0 14 -4 14 -10 0 -5 9 -10 20 -10 10 0 27 -9 37 -19 21 -23 90 -71 102 -71 4 0 22 -11 41 -25 19 -14 41 -25 51 -25 9 0 22 -7 29 -15 7 -8 25 -15 41 -15 19 0 29 -5 29 -15 0 -9 7 -18 15 -21 8 -4 15 -12 15 -20 0 -16 16 -19 25 -4 7 11 -61 80 -79 80 -15 0 -161 82 -234 131 -24 16 -45 29 -48 29 -3 0 -18 9 -34 20 -17 11 -42 28 -58 39 -15 10 -39 22 -52 26 -51 16 -51 38 -3 90 78 84 133 148 133 157 0 14 -20 9 -26 -7z"></path><path id="p1FDQMTpEk" d="M3051 6033 c-1 -7 -11 -13 -22 -13 -17 0 -19 -3 -10 -13 6 -8 8 -17 4 -20 -3 -4 -1 -7 5 -7 22 0 12 -29 -10 -33 -17 -3 -14 -5 9 -6 26 -1 34 4 38 22 3 12 1 36 -4 52 -5 17 -10 24 -10 18z"></path><path id="p57ywFlXM" d="M12095 5851 c-10 -9 -136 -61 -149 -61 -14 0 -343 -157 -356 -170 -3 -3 -14 -12 -24 -20 -18 -13 -19 -13 -11 0 4 8 -6 2 -23 -14 l-32 -30 0 -161 c0 -147 -5 -187 -30 -250 -18 -48 -51 -154 -59 -195 -5 -25 -24 -88 -41 -140 -17 -52 -41 -126 -52 -165 -11 -38 -28 -98 -39 -132 -17 -55 -19 -94 -19 -371 l0 -309 -24 -12 c-13 -7 -39 -17 -57 -22 -27 -6 -23 -7 18 -3 72 8 86 -3 87 -64 1 -39 6 -56 24 -72 12 -11 23 -33 23 -48 1 -19 2 -21 5 -7 13 61 28 93 40 88 16 -6 20 -103 5 -103 -5 0 -12 -15 -16 -32 -5 -23 -9 -27 -12 -15 -6 24 -25 21 -21 -3 2 -12 7 -20 12 -20 20 3 26 -30 21 -116 -7 -90 -6 -91 29 -160 20 -37 36 -74 36 -80 0 -20 41 -61 46 -46 3 6 11 9 16 6 6 -4 8 -3 5 3 -4 5 7 23 23 38 23 22 30 38 30 67 l0 38 123 0 c164 0 189 -8 218 -68 17 -36 24 -71 29 -147 l5 -100 123 -6 c116 -5 125 -7 150 -32 l27 -27 7 -323 c5 -177 5 -542 2 -810 -6 -471 -7 -488 -25 -484 -15 4 -19 0 -19 -19 0 -19 -5 -24 -26 -24 -17 0 -28 -6 -31 -19 -3 -11 -15 -21 -27 -23 -18 -3 -21 -10 -23 -63 -5 -128 -13 -165 -34 -165 -13 0 -19 -7 -19 -22 0 -26 -56 -78 -85 -78 -26 0 -65 27 -65 46 0 8 -7 14 -15 14 -10 0 -15 10 -15 30 0 23 -5 30 -19 30 -11 0 -22 -9 -26 -20 -3 -11 -9 -19 -13 -19 -24 4 -30 -8 -37 -65 -8 -84 3 -108 45 -96 29 8 30 7 30 -22 0 -40 24 -59 56 -44 13 6 24 19 24 29 0 9 7 17 15 17 20 0 21 -66 1 -73 -8 -3 -16 -16 -18 -29 -2 -15 -11 -24 -25 -26 -16 -2 -24 4 -33 32 -10 32 -15 36 -46 36 -21 0 -33 -4 -29 -10 3 -5 17 -10 31 -10 19 0 24 -5 24 -26 0 -21 -4 -25 -20 -21 -22 6 -27 -12 -8 -31 8 -8 8 -15 -2 -27 -7 -8 -9 -15 -5 -15 4 0 2 -6 -4 -14 -15 -17 10 -46 40 -46 10 0 19 -4 19 -10 0 -5 7 -10 15 -10 10 0 15 -11 15 -35 0 -28 4 -35 19 -35 20 0 35 -25 25 -41 -3 -5 4 -9 14 -9 11 0 22 -9 25 -20 3 -10 17 -22 33 -26 16 -4 39 -17 53 -30 13 -12 41 -30 62 -40 28 -12 39 -23 39 -38 -1 -25 -22 -56 -39 -56 -7 0 -39 -27 -73 -60 -33 -33 -64 -60 -69 -60 -5 0 -9 -7 -9 -15 0 -13 38 -15 280 -15 l280 0 0 2864 0 2863 -56 6 c-30 3 -61 10 -68 16 -21 17 -156 69 -149 57 3 -6 -5 -1 -18 10 -47 42 -110 58 -134 35z m82 -57 c3 -8 18 -14 33 -14 15 0 33 -6 39 -14 10 -12 8 -15 -11 -19 -13 -2 -5 -5 20 -6 30 -1 42 -5 42 -16 0 -18 -26 -20 -33 -2 -3 6 -6 2 -6 -10 -1 -18 -7 -23 -26 -23 -15 0 -25 -6 -25 -14 0 -25 -18 -28 -116 -15 -65 9 -98 17 -101 27 -3 8 -1 17 6 21 7 5 0 15 -19 30 -17 12 -28 27 -24 33 5 7 15 2 30 -15 13 -15 30 -27 39 -27 24 0 17 17 -10 24 -32 8 -25 22 15 31 16 4 28 12 27 18 -3 15 72 26 96 14 10 -4 21 -15 24 -23z m-217 -84 c0 -11 -7 -20 -15 -20 -8 0 -15 5 -15 10 0 6 -11 10 -24 10 -14 0 -28 5 -31 10 -4 6 12 10 39 10 39 0 46 -3 46 -20z m-410 -987 c0 -34 -12 -63 -26 -63 -10 0 -14 13 -14 40 0 33 3 40 20 40 12 0 20 -7 20 -17z m10 -103 c0 -20 -5 -30 -15 -30 -18 0 -30 24 -21 45 10 28 36 17 36 -15z m-50 -10 c0 -13 -7 -20 -20 -20 -19 0 -27 20 -13 33 13 14 33 6 33 -13z m-8 -78 c-1 -25 2 -42 8 -42 18 0 7 -54 -12 -58 -12 -2 -18 5 -21 30 -2 18 -5 -106 -5 -276 -2 -304 -9 -376 -37 -376 -10 0 -10 82 -2 543 2 129 4 150 20 158 10 6 17 22 17 40 0 24 4 30 18 27 13 -3 16 -12 14 -46z m578 -4207 c0 -8 -4 -15 -10 -15 -5 0 -10 4 -10 9 0 5 -10 12 -22 14 -17 3 -14 5 10 6 22 1 32 -3 32 -14z m65 -25 c3 -5 -3 -10 -14 -10 -12 0 -21 5 -21 10 0 6 6 10 14 10 8 0 18 -4 21 -10z"></path><path id="pekxiGUZ8" d="M2150 5810 c0 -37 2 -40 28 -40 l27 1 -24 20 c-28 23 -23 30 27 45 l37 12 -47 1 -48 1 0 -40z"></path><path id="pkkpxN0pq" d="M2180 5810 c0 -5 7 -10 15 -10 8 0 15 5 15 10 0 6 -7 10 -15 10 -8 0 -15 -4 -15 -10z"></path><path id="pOKXQHXUa" d="M2250 5680 c0 -23 4 -30 20 -30 20 0 20 1 5 30 -9 17 -18 30 -20 30 -3 0 -5 -13 -5 -30z"></path><path id="p1G902hfcJ" d="M2555 5379 c-4 -6 2 -13 14 -16 12 -3 21 -10 21 -17 0 -20 57 -66 74 -60 12 5 16 0 16 -20 0 -31 26 -36 35 -6 8 24 -1 40 -21 40 -8 0 -14 9 -14 20 0 10 -10 24 -21 31 -15 7 -19 8 -15 0 5 -7 1 -9 -9 -5 -9 4 -13 9 -11 12 3 3 1 11 -5 19 -14 16 -55 17 -64 2z"></path><path id="pabEQ1VNL" d="M2520 5354 c0 -9 9 -18 20 -21 11 -3 20 -10 20 -17 0 -16 56 -66 74 -66 9 0 16 -8 16 -20 0 -16 7 -20 31 -20 l32 0 -49 42 c-27 24 -67 60 -88 80 -43 41 -56 47 -56 22z"></path><path id="plsgbSwVD" d="M0 5272 c0 -6 7 -12 15 -16 8 -3 12 -12 9 -21 -3 -8 -1 -15 5 -15 6 0 11 -4 11 -10 0 -5 -9 -10 -20 -10 -13 0 -20 -7 -20 -20 0 -15 7 -20 25 -20 20 0 25 6 30 34 11 57 3 81 -27 84 -16 2 -28 -1 -28 -6z"></path><path id="pHWSLpwOm" d="M2810 5195 c0 -8 0 -18 -1 -22 0 -4 5 -9 13 -11 11 -3 11 -2 0 6 -11 7 -11 10 2 15 20 8 21 27 1 27 -8 0 -15 -7 -15 -15z"></path><path id="p183iUxTxe" d="M2770 5155 c0 -18 21 -28 47 -23 14 3 11 8 -14 21 -29 15 -33 16 -33 2z"></path><path id="p118bDg3LH" d="M2908 5093 c-29 -7 -20 -30 13 -37 47 -9 53 -8 39 9 -7 8 -19 15 -27 15 -8 0 -11 5 -8 10 3 6 5 9 3 9 -2 -1 -11 -3 -20 -6z"></path><path id="pf6xTBXgg" d="M6180 4987 c0 -23 8 -40 25 -55 14 -12 25 -26 25 -32 0 -5 12 -10 26 -10 20 0 25 4 20 16 -3 9 -6 22 -6 30 0 8 -4 14 -10 14 -5 0 -8 -6 -7 -12 2 -7 -3 2 -11 20 -8 17 -19 32 -24 32 -5 0 -6 -5 -2 -12 4 -7 3 -8 -4 -4 -7 4 -12 16 -12 27 0 10 -4 19 -10 19 -5 0 -10 -15 -10 -33z"></path><path id="pxS9Yg3g5" d="M3123 4990 c25 -20 34 -21 85 -14 l57 8 -60 6 c-33 4 -71 10 -85 15 -25 7 -25 7 3 -15z"></path><path id="pd2OBR5iS" d="M4767 4972 c-15 -16 -15 -21 -3 -38 12 -15 18 -17 33 -8 22 14 24 58 2 62 -8 1 -23 -6 -32 -16z"></path><path id="pd2gomZWu" d="M4699 4906 c7 -9 23 -16 34 -16 26 0 12 15 -23 25 -22 7 -23 6 -11 -9z"></path><path id="p130e05WJf" d="M5997 4873 c-2 -5 -7 -20 -11 -35 -5 -21 -3 -28 9 -28 11 0 15 10 15 35 0 34 -4 43 -13 28z"></path><path id="p1FZgCOZ7k" d="M6310 4835 c0 -28 4 -35 19 -35 12 0 20 -9 24 -27 3 -16 26 -50 51 -77 26 -27 46 -53 46 -57 0 -4 18 -26 40 -49 22 -23 40 -46 40 -51 0 -5 7 -9 15 -9 8 0 15 -4 15 -10 0 -17 34 -50 52 -50 12 0 18 -8 18 -21 0 -23 76 -109 97 -109 7 0 13 -7 13 -15 0 -9 7 -18 15 -21 8 -4 15 -13 15 -21 0 -17 53 -73 69 -73 6 0 11 -5 11 -11 0 -16 56 -69 74 -69 9 0 16 -8 16 -20 0 -16 7 -20 30 -20 17 0 30 4 30 9 0 5 -48 58 -107 117 -59 60 -107 112 -108 116 0 3 -4 10 -9 15 -5 5 -6 3 -2 -4 4 -7 2 -13 -3 -13 -6 0 -11 6 -11 13 0 7 -9 18 -20 25 -12 7 -18 17 -15 21 2 5 -16 27 -41 49 -25 21 -47 48 -48 58 -2 10 -11 18 -20 18 -9 -1 -16 2 -16 8 0 5 -11 19 -25 32 -13 13 -22 26 -19 29 9 8 -57 77 -68 71 -5 -3 -7 -1 -6 4 2 5 -6 18 -17 28 -12 11 -14 15 -6 9 8 -5 2 7 -13 28 -16 20 -31 37 -33 37 -3 0 1 -8 8 -17 13 -16 12 -17 -3 -4 -10 7 -16 16 -14 20 6 9 -11 36 -22 36 -10 0 -42 31 -38 36 1 2 -6 12 -16 22 -17 16 -18 16 -18 -18z"></path><path id="poTOk1Xrv" d="M5459 4537 c5 -5 24 -7 42 -5 33 3 33 4 -8 8 -23 3 -39 2 -34 -3z"></path><path id="pQDQQWPxH" d="M5425 4509 c4 -5 22 -9 42 -9 45 0 40 5 -10 13 -22 3 -35 2 -32 -4z"></path><path id="pGGx79TkZ" d="M7010 4062 c0 -17 10 -35 28 -49 15 -12 38 -31 51 -42 13 -12 37 -21 53 -21 24 0 28 -4 28 -28 0 -23 11 -36 61 -70 33 -23 69 -42 80 -42 14 0 19 -7 19 -25 0 -19 5 -25 23 -25 12 0 49 -18 82 -40 33 -22 66 -40 73 -40 6 0 12 -4 12 -9 0 -11 55 -31 84 -31 12 0 27 -5 33 -11 21 -21 128 -61 186 -70 33 -5 64 -12 70 -16 27 -16 205 -32 365 -33 171 0 294 11 341 31 14 6 47 14 75 20 45 8 90 24 136 50 8 5 47 25 85 45 39 20 89 51 112 70 48 39 68 41 146 14 31 -11 74 -20 95 -20 21 0 61 -6 88 -14 27 -8 81 -18 119 -21 39 -4 88 -14 110 -23 51 -19 735 -31 735 -13 0 8 -72 12 -232 13 l-233 2 215 6 c200 6 191 6 -115 6 -263 0 -345 4 -405 16 -41 9 -122 24 -180 35 -91 16 -100 19 -70 25 24 5 17 6 -23 3 -31 -2 -55 0 -52 5 6 9 -25 23 -33 15 -3 -3 1 -5 8 -5 7 0 11 -2 8 -5 -9 -9 -38 6 -32 16 3 6 -5 7 -22 3 -21 -5 -25 -4 -19 6 6 10 2 12 -16 7 -13 -4 -34 -7 -45 -7 -12 0 -43 -17 -70 -39 -48 -38 -114 -76 -114 -66 0 2 18 14 39 25 22 11 43 25 47 32 4 6 -10 1 -32 -12 -65 -39 -74 -47 -67 -54 4 -3 -2 -6 -13 -5 -35 4 -52 -1 -58 -16 -5 -13 -1 -13 22 1 l27 16 -24 -19 c-13 -11 -32 -18 -42 -16 -21 6 -91 -26 -83 -38 3 -5 -10 -6 -28 -3 -22 4 -29 3 -20 -4 14 -9 9 -12 -63 -27 -11 -3 -6 2 10 10 39 18 8 20 -35 1 -22 -9 -28 -15 -19 -20 8 -3 -6 -4 -31 -1 -35 4 -40 3 -25 -5 15 -8 7 -9 -32 -5 -30 3 -54 1 -58 -5 -7 -12 -271 -14 -279 -2 -3 5 -20 7 -38 5 -26 -4 -30 -2 -18 7 11 8 3 10 -35 5 -27 -3 -44 -2 -36 1 26 12 -62 34 -114 29 -38 -4 -45 -3 -30 5 16 8 13 10 -16 6 -21 -2 -49 2 -64 10 -15 8 -32 14 -39 14 -6 0 -33 11 -60 24 -39 19 -46 25 -30 29 10 2 4 3 -14 1 -18 -1 -30 1 -27 6 7 11 -34 40 -55 39 -13 0 -13 -1 0 -6 15 -6 45 -33 37 -33 -9 0 -97 52 -102 61 -10 15 7 10 27 -8 10 -9 21 -13 25 -9 12 11 -13 27 -48 30 -39 4 -90 26 -84 36 2 4 -11 15 -30 26 -18 10 -31 22 -28 27 3 5 0 7 -8 5 -13 -5 -99 46 -99 58 0 3 20 -9 45 -26 25 -17 45 -27 45 -23 -1 14 -89 65 -100 58 -6 -4 -9 -1 -8 6 2 7 -11 22 -29 34 -18 12 -29 26 -25 29 3 4 -2 4 -12 0 -14 -5 -17 -4 -12 4 4 7 1 12 -7 12 -8 0 -21 8 -28 18 -13 16 -13 16 6 2 15 -10 13 -7 -4 13 -14 15 -38 34 -53 41 -27 14 -28 14 -28 -12z m1750 -439 c-8 -3 -24 -10 -35 -15 -20 -9 -20 -9 -1 6 11 9 27 16 35 15 14 0 14 -1 1 -6z m-830 -53 c11 -8 7 -9 -15 -4 -37 8 -45 14 -19 14 10 0 26 -5 34 -10z"></path><path id="p75lHGdRW" d="M8989 3781 l-21 -36 23 21 c13 12 32 26 43 31 17 10 17 10 -2 16 -17 4 -26 -3 -43 -32z"></path><path id="pQuPXd0NJ" d="M11060 3774 c-46 -17 -8 -17 45 1 30 10 34 13 15 13 -14 0 -41 -6 -60 -14z"></path><path id="pJ4FcIVrY" d="M11170 3779 c-81 -22 -127 -29 -165 -25 -28 4 -33 3 -15 -3 22 -6 20 -8 -20 -14 -25 -3 -56 -8 -70 -11 -21 -5 -21 -4 5 8 38 19 14 20 -45 2 -40 -12 -42 -14 -20 -19 14 -3 -6 -4 -45 -2 -51 3 -63 2 -45 -5 18 -7 6 -8 -40 -4 -72 6 -111 -2 -88 -18 8 -5 -2 -7 -27 -3 -27 3 -34 2 -20 -3 12 -6 -31 -8 -110 -6 -83 2 -116 0 -90 -5 l40 -8 -52 -2 c-29 0 -53 -5 -53 -11 0 -16 231 -12 317 6 42 9 124 22 182 29 59 7 124 18 146 24 56 14 202 42 251 48 l41 5 5 -56 c7 -86 24 -89 20 -3 -2 39 -5 73 -6 73 -8 9 -69 10 -96 3z"></path><path id="phxKxqVsH" d="M9368 3735 c23 -7 75 -15 115 -18 51 -4 60 -3 32 2 -22 5 -64 14 -94 20 -73 15 -106 13 -53 -4z"></path><path id="pYQ6g44gX" d="M9595 3695 c22 -8 49 -15 60 -15 16 0 14 3 -9 15 -15 8 -42 15 -60 15 -31 -1 -31 -1 9 -15z"></path><path id="pnKrDfIVK" d="M7667 3659 c9 -9 120 -59 131 -59 2 0 1 4 -3 9 -3 5 -22 15 -42 22 -21 7 -44 18 -51 26 -7 7 -21 13 -30 13 -12 0 -13 -3 -5 -11z"></path><path id="pdRYAUH6p" d="M8173 3543 c37 -2 96 -2 130 0 34 2 4 3 -68 3 -71 0 -99 -1 -62 -3z"></path><path id="pziTgGUpx" d="M11291 3478 c0 -26 4 -50 9 -53 11 -7 11 25 0 70 -7 27 -8 25 -9 -17z"></path><path id="pdS3Y8GmQ" d="M11320 3488 c0 -15 5 -30 10 -33 13 -8 13 25 0 45 -8 12 -10 9 -10 -12z"></path><path id="pYfHvYWZf" d="M11331 3328 c-1 -36 8 -66 35 -120 19 -40 41 -84 47 -97 7 -14 18 -26 25 -29 6 -2 -9 41 -34 95 -25 54 -52 121 -59 148 l-13 50 -1 -47z"></path><path id="pCsuauy4A" d="M11879 2637 c6 -8 8 -17 4 -20 -3 -4 -2 -7 3 -8 5 0 19 -2 32 -5 12 -2 22 -1 22 2 0 10 -44 43 -59 44 -10 0 -11 -3 -2 -13z"></path><path id="pFcFeQ5RI" d="M11850 2590 c0 -9 39 -25 46 -18 2 3 -7 10 -21 16 -14 6 -25 7 -25 2z"></path><path id="pfASFvCwf" d="M12007 2440 c6 -38 10 -46 19 -38 3 3 -2 21 -10 39 l-15 34 6 -35z"></path><path id="pwAYBM1MH" d="M11744 972 c-10 -7 -28 -102 -20 -102 6 0 39 101 34 105 -2 2 -8 1 -14 -3z"></path><path id="p11yHFXpxy" d="M11731 558 c-1 -21 3 -38 8 -38 5 0 12 -9 16 -19 3 -11 13 -22 22 -26 15 -5 15 -4 0 13 -10 11 -24 39 -31 63 l-14 44 -1 -37z"></path><path id="pwrwHUyus" d="M12006 118 c-9 -13 -29 -32 -46 -43 -16 -11 -30 -29 -30 -40 0 -15 12 -7 55 35 30 30 55 58 55 62 0 16 -20 7 -34 -14z"></path></g></g><g id="l200f4EiwwCobNFhEPeMD7k" fill="rgb(213,245,249)" style="transform: none;"><g style="transform: none;"><path id="pKg87CYKC" d="M2370 7006 c0 -33 4 -37 81 -80 45 -25 84 -46 88 -46 4 0 17 -11 29 -25 17 -20 31 -25 67 -25 25 0 45 -4 45 -10 0 -5 -14 -22 -31 -37 -52 -46 -59 -54 -59 -69 0 -8 -6 -14 -12 -14 -13 -1 -68 -79 -68 -97 0 -5 -8 -16 -17 -25 -37 -36 -53 -55 -53 -64 0 -5 -20 -30 -45 -56 -43 -45 -45 -50 -45 -107 0 -54 3 -61 29 -80 16 -12 34 -21 39 -21 6 0 23 -11 39 -24 16 -14 42 -28 57 -32 15 -3 30 -12 32 -18 3 -7 30 -25 62 -42 31 -16 59 -32 62 -36 10 -13 102 -57 134 -64 30 -6 30 -6 -20 -25 -27 -11 -59 -19 -71 -19 -12 0 -29 -7 -37 -16 -11 -10 -47 -19 -104 -24 -48 -5 -121 -18 -162 -30 -53 -14 -90 -18 -127 -14 -43 5 -61 2 -107 -20 -54 -26 -56 -28 -56 -66 0 -33 7 -47 48 -89 27 -28 54 -61 61 -74 7 -13 36 -48 63 -78 28 -30 58 -65 67 -79 34 -53 65 -90 77 -90 6 0 14 -9 17 -20 3 -12 14 -20 26 -20 12 0 21 -6 21 -15 0 -19 120 -145 137 -145 7 0 13 -4 13 -9 0 -5 10 -13 21 -16 12 -4 35 -20 51 -35 16 -16 54 -39 84 -51 30 -13 54 -28 54 -35 0 -7 15 -16 34 -20 19 -3 37 -12 40 -20 3 -9 21 -14 47 -14 27 0 46 -6 53 -16 14 -19 191 -63 254 -64 50 0 59 25 12 35 -16 4 -32 11 -35 16 -4 5 -26 9 -50 9 -46 0 -230 54 -255 76 -8 7 -27 16 -43 19 -15 4 -31 12 -35 19 -4 6 -32 24 -62 40 -30 17 -59 34 -65 38 -5 5 -25 19 -43 32 -27 20 -130 110 -187 163 -7 7 -44 51 -81 98 -37 47 -71 85 -76 85 -4 0 -8 7 -8 15 0 7 -6 18 -14 22 -8 4 -28 26 -45 48 -17 22 -38 50 -48 63 -10 13 -35 42 -56 64 -21 23 -35 44 -30 48 18 15 94 30 151 30 127 0 622 116 622 146 0 10 -73 74 -84 74 -15 0 -161 82 -234 131 -24 16 -45 29 -48 29 -3 0 -18 9 -34 20 -17 11 -42 28 -58 39 -15 10 -39 22 -52 26 -26 8 -40 22 -40 40 0 6 27 39 61 75 33 36 91 106 129 155 37 50 83 106 102 126 64 71 98 118 98 137 0 16 -10 20 -57 26 -37 4 -75 18 -112 40 -31 18 -84 46 -118 62 -42 19 -63 35 -63 47 0 12 -8 17 -30 17 -28 0 -30 -3 -30 -34z"></path><path id="piQYUwXIo" d="M0 5289 c0 -12 6 -27 14 -33 8 -6 17 -21 20 -33 5 -16 2 -23 -14 -28 -27 -8 -27 -45 0 -45 13 0 20 7 20 19 0 10 9 21 20 24 27 7 29 83 3 103 -29 22 -63 18 -63 -7z"></path><path id="pSZ5F3qEv" d="M4205 5168 c-28 -15 -49 -32 -48 -37 1 -5 -17 -12 -40 -16 -23 -4 -79 -24 -124 -46 -44 -21 -87 -39 -94 -39 -24 0 -88 -35 -89 -49 0 -24 143 7 216 48 10 5 36 18 57 27 20 9 37 23 37 30 0 9 11 14 27 14 15 0 46 9 70 21 l43 21 55 -32 c30 -17 57 -35 60 -41 4 -5 14 -9 23 -9 10 0 23 -9 30 -20 7 -11 21 -20 32 -20 11 0 20 -4 20 -9 0 -5 9 -12 19 -16 11 -3 34 -19 53 -35 18 -16 37 -30 42 -30 5 0 39 -19 75 -42 94 -60 101 -65 149 -89 23 -13 42 -26 42 -31 0 -4 8 -8 18 -8 10 0 28 -9 39 -20 29 -26 152 -102 213 -130 75 -35 110 -56 114 -67 3 -7 21 -13 40 -13 20 0 36 -6 39 -14 3 -8 25 -20 49 -26 24 -6 60 -18 81 -26 51 -19 117 -19 117 1 0 8 -6 15 -12 15 -7 0 -25 6 -39 13 -14 8 -44 17 -67 21 -23 3 -57 15 -74 26 -18 11 -40 20 -49 20 -9 0 -36 15 -60 34 -25 18 -59 37 -77 40 -17 4 -34 12 -38 17 -3 5 -20 16 -37 24 -64 30 -136 72 -167 98 -17 15 -40 27 -51 27 -10 0 -19 4 -19 10 0 5 -17 19 -37 30 -21 11 -51 29 -68 40 -16 11 -43 26 -60 35 -67 35 -97 54 -114 69 -10 9 -21 16 -24 16 -4 0 -16 9 -27 20 -11 11 -27 20 -36 20 -9 0 -34 15 -57 34 -23 18 -53 39 -67 46 -14 7 -41 25 -60 40 -51 39 -70 41 -125 8z"></path><path id="p1EkJFfgjo" d="M6071 5111 c-14 -9 -50 -133 -51 -176 0 -11 -7 -33 -15 -48 -8 -15 -17 -45 -21 -65 -4 -20 -22 -63 -40 -95 -19 -32 -34 -65 -34 -73 0 -9 -9 -18 -20 -21 -10 -3 -22 -13 -25 -23 -3 -10 -13 -21 -21 -24 -8 -3 -13 -10 -10 -15 3 -5 -6 -14 -22 -20 -15 -6 -34 -15 -42 -21 -22 -14 -107 -50 -119 -50 -6 0 -11 -7 -11 -15 0 -42 175 10 187 56 3 10 13 19 22 19 9 0 24 8 32 18 9 11 25 25 35 33 11 8 31 37 44 64 14 28 33 61 43 74 9 13 17 33 17 43 0 11 7 34 14 51 8 18 19 55 25 82 5 28 17 79 25 115 23 98 21 112 -13 91z"></path><path id="pvWGPCKSd" d="M6140 5031 c0 -30 4 -41 15 -41 9 0 15 -9 15 -21 0 -28 45 -69 76 -69 21 0 24 -5 24 -35 0 -32 2 -35 30 -35 28 0 30 -3 30 -34 0 -23 7 -40 19 -48 10 -7 21 -22 25 -33 6 -19 25 -43 112 -137 19 -21 34 -40 34 -42 0 -14 109 -116 123 -116 10 0 17 -8 17 -20 0 -25 81 -110 104 -110 10 0 16 -8 16 -25 0 -16 6 -25 15 -25 8 0 15 -7 15 -15 0 -9 9 -15 25 -15 19 0 25 -5 25 -21 0 -29 24 -49 59 -49 17 0 31 2 31 5 0 3 -43 48 -95 100 -52 53 -95 97 -95 100 0 2 -17 21 -37 42 -62 64 -164 181 -166 190 -1 4 -19 24 -39 44 -21 20 -38 42 -38 48 0 6 -4 11 -9 11 -4 0 -25 21 -45 48 -57 74 -146 178 -205 238 -12 12 -21 27 -21 35 0 8 -13 27 -30 42 l-30 29 0 -41z"></path><path id="p16flwsxTG" d="M3693 4972 c-54 -21 -57 -42 -4 -42 56 0 101 18 101 41 0 24 -36 24 -97 1z"></path><path id="pcwEksKkt" d="M4810 4100 l0 -40 40 0 40 0 0 40 0 40 -40 0 -40 0 0 -40z"></path><path id="pPDaDfU9o" d="M7010 4060 c0 -35 41 -90 67 -90 7 0 13 -6 13 -14 0 -15 21 -26 50 -26 14 0 20 -11 25 -50 6 -43 10 -50 30 -50 12 0 28 -6 34 -14 7 -8 26 -17 44 -20 21 -4 38 -16 49 -36 12 -22 29 -32 62 -41 25 -6 46 -15 46 -18 0 -12 75 -58 106 -65 16 -4 36 -13 44 -20 8 -7 62 -31 120 -53 79 -31 125 -42 185 -47 44 -3 98 -12 120 -20 57 -21 463 -22 504 -2 15 8 56 18 92 22 35 3 69 11 76 16 7 5 34 15 60 23 26 7 68 25 93 39 25 14 56 31 70 37 14 6 32 15 40 20 8 5 29 16 45 24 17 7 43 26 58 40 27 26 29 26 62 11 18 -9 47 -16 65 -16 17 0 43 -6 58 -14 16 -8 61 -17 102 -21 41 -4 91 -14 110 -22 24 -12 87 -18 220 -23 102 -5 306 -14 453 -21 227 -11 270 -11 277 1 7 11 54 15 207 20 159 5 204 9 230 23 18 9 45 17 61 17 15 0 62 9 103 19 41 10 104 22 140 26 l66 6 16 -48 c9 -26 19 -88 23 -138 4 -49 13 -102 20 -117 8 -15 14 -40 14 -57 0 -16 7 -37 16 -46 9 -8 22 -43 30 -78 8 -34 19 -66 24 -71 6 -6 10 -24 10 -41 0 -19 8 -39 19 -49 11 -10 23 -31 26 -46 5 -22 13 -29 39 -34 31 -6 34 -9 39 -56 5 -43 13 -56 61 -105 31 -31 62 -68 70 -83 19 -38 77 -97 150 -154 33 -27 78 -63 100 -81 21 -17 49 -38 62 -45 42 -22 47 -46 55 -287 4 -126 10 -238 14 -248 4 -9 0 -32 -8 -50 -9 -18 -18 -80 -22 -147 -5 -86 -12 -123 -26 -146 -10 -17 -19 -43 -19 -58 0 -14 -4 -26 -9 -26 -13 0 -31 -57 -31 -96 0 -22 -5 -34 -14 -34 -16 0 -26 -21 -26 -54 0 -12 -9 -32 -19 -43 -11 -11 -22 -42 -26 -69 -7 -48 -39 -129 -55 -139 -5 -3 -11 -23 -15 -45 -4 -22 -12 -40 -19 -40 -22 0 -39 -119 -41 -285 -2 -112 1 -166 10 -180 6 -11 15 -33 19 -49 4 -15 12 -34 19 -41 7 -7 26 -30 42 -50 17 -21 57 -68 90 -105 86 -95 115 -131 115 -140 0 -4 -20 -28 -45 -52 -54 -54 -60 -88 -16 -88 23 0 42 13 88 61 32 33 61 70 65 81 10 25 -15 74 -42 83 -11 3 -29 18 -40 33 -12 15 -46 52 -76 83 -30 31 -54 61 -54 67 0 5 -18 34 -40 63 -22 30 -40 60 -40 69 0 8 -7 28 -15 43 -8 16 -17 72 -21 130 -6 96 -4 107 24 188 16 47 44 114 62 150 49 97 155 375 173 454 60 254 83 483 72 720 -7 166 -33 271 -71 290 -11 5 -33 22 -49 38 -17 15 -33 27 -37 27 -8 0 -95 74 -161 136 -21 20 -54 61 -73 91 -19 30 -49 69 -67 87 -54 53 -77 87 -77 112 0 14 -8 25 -19 29 -20 6 -141 239 -141 270 0 8 -9 41 -19 72 -32 99 -51 194 -57 300 -7 99 -7 101 -34 106 -14 3 -44 1 -66 -4 -21 -6 -84 -19 -139 -29 -55 -10 -120 -22 -145 -28 -25 -6 -79 -13 -120 -17 -41 -4 -106 -14 -145 -22 -56 -13 -141 -16 -435 -17 -488 -1 -529 1 -645 24 -55 10 -152 29 -215 40 -63 12 -141 30 -173 41 -86 29 -116 25 -173 -20 -27 -21 -78 -53 -114 -71 -36 -18 -86 -44 -112 -56 -25 -13 -99 -37 -164 -54 -145 -38 -366 -51 -516 -31 -125 17 -320 59 -332 71 -5 5 -17 10 -26 10 -9 0 -33 9 -55 20 -21 11 -54 25 -74 31 -19 7 -55 25 -80 40 -25 16 -70 41 -98 56 -29 15 -53 33 -53 40 0 7 -4 13 -9 13 -19 0 -150 94 -154 111 -3 9 -20 25 -38 35 -19 9 -46 29 -60 43 -14 14 -40 39 -57 55 l-32 30 0 -34z"></path><path id="pWA1zLcGi" d="M5322 3933 c3 -37 4 -38 46 -41 l42 -3 0 40 0 41 -46 0 -45 0 3 -37z"></path><path id="p1GsekjNbc" d="M3760 3891 l0 -41 46 0 45 0 -3 38 c-3 36 -4 37 -45 40 l-43 3 0 -40z"></path><path id="p40zDaRSi" d="M6070 3495 c0 -35 0 -35 45 -35 45 0 45 0 45 35 0 35 0 35 -45 35 -45 0 -45 0 -45 -35z"></path><path id="pV76vksja" d="M6280 3376 c0 -44 19 -58 72 -54 41 3 43 5 46 37 4 42 -8 51 -70 51 -48 0 -48 0 -48 -34z"></path><path id="pcL6stJSP" d="M6607 3043 c-4 -3 -7 -21 -7 -40 0 -32 1 -33 40 -33 l40 0 0 40 c0 39 -1 40 -33 40 -19 0 -37 -3 -40 -7z"></path><path id="pRDDB2RzV" d="M9463 893 c-13 -2 -23 -9 -23 -14 0 -5 -13 -9 -30 -9 -29 0 -30 -2 -30 -44 0 -26 5 -46 13 -49 6 -3 -5 -6 -25 -6 -37 -1 -38 -2 -38 -36 0 -34 1 -35 40 -35 37 0 40 2 40 26 l0 27 80 -7 c76 -7 80 -6 80 13 0 16 6 21 25 21 18 0 25 5 25 20 0 15 7 20 25 20 22 0 25 4 25 35 0 34 -1 35 -40 35 -31 0 -40 -4 -40 -17 -1 -15 -3 -15 -19 5 -19 22 -50 26 -108 15z"></path><path id="pssxyz3x8" d="M9780 825 l0 -75 35 0 35 0 0 75 0 75 -35 0 -35 0 0 -75z"></path></g></g><g id="l3LPibVbqZE14zhSH7ToVng" fill="rgb(198,245,252)" style="transform: none;"><g style="transform: none;"><path id="p6IvPOtGx" d="M0 6162 l0 -879 26 -13 c20 -11 24 -19 19 -39 -4 -14 -15 -31 -26 -39 -10 -7 -19 -24 -19 -38 0 -20 4 -25 21 -22 12 2 27 12 33 23 6 11 19 26 28 33 10 7 18 17 18 22 0 12 111 152 191 240 211 236 253 280 305 325 100 86 102 86 191 74 43 -6 103 -15 133 -20 146 -26 394 -38 783 -39 224 0 407 -4 407 -8 0 -5 9 -20 21 -33 11 -13 32 -39 47 -56 15 -18 44 -52 65 -75 49 -55 117 -143 117 -151 0 -23 267 -271 350 -327 13 -8 35 -25 50 -37 15 -13 37 -23 47 -23 11 0 29 -9 41 -20 12 -11 30 -20 42 -20 11 0 23 -7 26 -15 3 -8 22 -18 42 -21 20 -4 50 -15 67 -26 16 -10 40 -18 53 -18 12 0 34 -7 47 -16 18 -12 58 -18 135 -22 107 -5 110 -4 110 17 0 18 -6 21 -46 21 -41 0 -115 13 -154 27 -8 3 -28 7 -44 9 -16 2 -43 13 -61 24 -18 11 -46 20 -63 20 -18 0 -35 7 -40 17 -5 9 -22 17 -38 19 -15 2 -31 10 -36 18 -5 8 -32 26 -61 39 -28 13 -65 36 -82 51 -16 14 -33 26 -37 26 -4 0 -13 6 -20 13 -8 6 -23 17 -33 24 -11 6 -19 16 -17 22 1 6 -3 11 -10 11 -14 0 -148 136 -148 150 0 6 -6 10 -13 10 -12 0 -47 39 -72 81 -5 9 -34 43 -63 77 -30 33 -53 62 -51 64 2 3 -21 29 -108 126 -13 14 -23 28 -23 32 0 5 19 18 43 30 32 17 57 22 104 21 36 -1 96 7 145 20 46 12 120 25 165 29 53 5 88 14 99 24 8 9 24 16 35 16 10 0 48 10 83 21 l65 22 -14 27 c-9 17 -26 31 -43 35 -30 6 -122 50 -132 63 -3 4 -31 20 -62 36 -32 17 -59 35 -62 42 -2 6 -17 15 -32 18 -15 4 -41 18 -57 32 -16 13 -33 24 -39 24 -5 0 -23 9 -39 21 -44 31 -39 69 16 127 25 26 45 51 45 57 0 6 8 18 18 27 35 34 52 55 52 63 0 15 55 94 66 95 7 0 15 10 18 23 3 12 22 33 41 47 19 14 37 33 40 43 4 9 13 17 21 17 13 0 18 12 15 33 0 4 4 7 10 7 5 0 7 5 4 10 -3 6 -35 10 -71 10 -56 0 -67 3 -86 25 -12 14 -25 25 -29 25 -4 0 -43 21 -88 46 -58 32 -81 51 -81 65 0 19 -19 19 -1200 19 l-1200 0 0 -878z"></path><path id="pzTXFV7Kj" d="M4235 5180 c-4 -6 -22 -17 -41 -25 -19 -8 -34 -19 -34 -24 0 -6 -7 -11 -17 -11 -15 0 -103 -37 -147 -61 -29 -17 -126 -49 -176 -60 -25 -5 -62 -16 -83 -24 -20 -8 -53 -15 -72 -15 -28 0 -35 -4 -35 -20 0 -40 144 -21 305 41 28 10 54 19 59 19 23 0 156 72 156 85 0 10 10 15 29 15 17 0 33 5 36 10 14 23 64 8 143 -44 45 -30 94 -61 110 -68 53 -28 77 -43 89 -60 7 -9 27 -19 43 -23 17 -4 30 -10 30 -15 0 -8 67 -53 130 -87 19 -10 55 -32 80 -48 68 -45 230 -142 270 -162 19 -10 37 -21 40 -24 10 -12 109 -59 125 -59 9 0 28 -8 42 -17 52 -34 129 -57 206 -61 73 -3 77 -2 77 17 0 18 -6 21 -40 21 -22 0 -57 7 -77 14 -21 8 -57 20 -81 26 -24 6 -46 18 -49 26 -3 8 -19 14 -39 14 -19 0 -37 6 -40 13 -4 11 -39 32 -114 67 -61 28 -184 104 -213 130 -11 11 -28 20 -38 20 -9 0 -22 6 -28 14 -7 8 -26 21 -44 30 -36 18 -46 24 -132 80 -33 21 -69 42 -80 47 -11 5 -41 24 -66 41 -26 18 -61 42 -80 53 -18 11 -43 27 -55 35 -12 8 -47 30 -78 48 -30 18 -58 37 -61 43 -8 12 -42 12 -50 -1z"></path><path id="pxMzEDG74" d="M6073 5108 c-9 -12 -20 -53 -44 -173 -5 -27 -17 -64 -25 -82 -7 -17 -14 -40 -14 -51 0 -10 -8 -30 -17 -43 -10 -13 -29 -46 -42 -72 -52 -103 -193 -207 -281 -207 -34 0 -40 -3 -40 -21 0 -20 4 -21 73 -17 80 4 104 17 208 108 74 65 148 199 174 317 27 117 35 143 45 143 6 0 10 -6 10 -14 0 -8 8 -21 18 -28 10 -7 21 -21 25 -30 3 -10 13 -18 21 -18 8 0 18 -9 21 -20 5 -15 15 -20 44 -20 36 0 37 0 33 -35 -3 -27 1 -40 17 -54 11 -10 21 -22 21 -25 0 -10 113 -149 162 -201 21 -22 38 -43 38 -47 0 -13 95 -108 108 -108 7 0 12 -4 12 -10 0 -19 86 -117 110 -125 10 -3 20 -15 23 -25 3 -11 12 -20 21 -20 9 0 16 -7 16 -15 0 -9 9 -15 25 -15 19 0 25 -5 25 -23 0 -31 34 -57 75 -57 33 0 35 -2 35 -36 0 -30 9 -45 59 -95 33 -32 70 -63 82 -67 22 -8 21 -10 -22 -49 -24 -22 -84 -78 -134 -123 -49 -45 -128 -112 -175 -148 -47 -37 -96 -76 -109 -89 -13 -13 -57 -48 -98 -80 -84 -64 -118 -71 -156 -32 -13 13 -61 47 -106 74 -46 28 -111 68 -145 90 -33 22 -106 66 -161 98 -55 32 -109 63 -119 70 -11 7 -44 27 -73 45 -29 18 -117 65 -195 105 -79 41 -152 79 -163 85 -48 27 -337 146 -410 169 -201 62 -250 74 -394 99 -146 25 -168 26 -405 21 -261 -5 -279 -7 -506 -66 -147 -38 -237 -72 -385 -148 -82 -42 -152 -79 -155 -83 -3 -3 -13 -9 -22 -13 -14 -5 -18 -18 -18 -50 l0 -44 113 -6 c61 -4 173 -7 247 -7 74 0 178 -7 230 -14 52 -8 167 -20 255 -27 88 -7 163 -17 167 -23 4 -6 65 -12 139 -14 112 -4 136 -7 153 -23 11 -11 22 -19 25 -19 31 0 285 -52 313 -64 21 -9 50 -16 67 -16 16 0 42 -7 57 -15 16 -8 37 -15 48 -15 20 0 89 -17 121 -30 26 -11 244 -78 320 -99 33 -9 61 -19 63 -23 2 -4 20 -10 40 -14 20 -4 53 -15 72 -25 20 -9 54 -21 75 -25 22 -4 42 -10 45 -14 7 -11 127 -60 146 -60 9 0 27 -9 41 -20 14 -11 40 -22 59 -26 18 -3 38 -12 45 -20 6 -8 18 -14 25 -14 8 0 31 -9 51 -20 21 -11 43 -20 50 -20 7 0 29 -11 49 -25 21 -14 51 -25 70 -25 19 0 34 -4 34 -10 0 -5 7 -10 15 -10 9 0 30 -10 48 -22 71 -48 83 -55 107 -63 14 -4 36 -16 49 -26 13 -11 28 -19 33 -19 5 0 19 -9 31 -21 12 -11 51 -34 87 -51 36 -17 67 -35 68 -40 2 -4 12 -8 23 -8 11 0 22 -7 25 -15 4 -8 11 -15 18 -15 6 0 25 -15 43 -33 18 -18 45 -40 60 -47 15 -8 44 -30 63 -48 19 -18 47 -36 63 -39 15 -3 27 -12 27 -20 0 -8 9 -17 20 -20 11 -3 20 -10 20 -15 0 -6 26 -35 58 -65 31 -29 78 -74 105 -99 26 -25 47 -49 47 -54 0 -6 7 -10 15 -10 8 0 15 -9 15 -20 0 -13 7 -20 20 -20 13 0 20 -7 20 -19 0 -18 16 -42 61 -90 8 -10 18 -25 22 -34 3 -9 13 -17 21 -17 9 0 17 -15 21 -40 4 -24 12 -40 20 -40 8 0 17 -15 21 -34 3 -19 12 -37 20 -40 9 -3 14 -20 14 -43 0 -53 10 -83 26 -83 11 0 14 -20 14 -90 0 -49 -4 -90 -9 -90 -5 0 -15 -26 -21 -57 -10 -57 -43 -135 -67 -161 -7 -7 -13 -21 -13 -31 0 -10 -20 -40 -45 -67 -24 -27 -45 -56 -45 -65 0 -9 -9 -19 -20 -22 -16 -4 -20 -14 -20 -52 0 -42 4 -50 45 -88 25 -24 45 -48 45 -54 0 -6 9 -13 20 -16 11 -3 20 -12 20 -20 0 -8 11 -18 25 -21 14 -4 25 -13 25 -20 0 -8 7 -16 15 -20 8 -3 15 -12 15 -21 0 -8 7 -15 15 -15 9 0 19 -8 22 -17 4 -10 12 -22 20 -26 7 -4 13 -14 13 -21 0 -15 52 -66 68 -66 7 0 12 -7 12 -16 0 -9 9 -18 20 -21 11 -3 20 -11 20 -18 0 -6 11 -17 25 -23 14 -6 25 -15 25 -20 0 -10 124 -102 138 -102 5 0 15 -7 22 -15 7 -8 27 -17 46 -21 19 -3 34 -12 34 -19 0 -7 19 -16 45 -19 25 -4 51 -14 59 -22 8 -8 26 -14 39 -14 45 0 87 -12 87 -25 0 -20 111 -26 445 -23 256 3 304 6 325 19 14 9 57 19 95 23 41 3 74 11 80 19 6 8 36 17 68 21 31 4 63 14 71 22 8 8 27 14 43 14 15 0 42 8 58 18 17 10 49 24 73 30 23 7 42 17 42 22 0 6 8 10 18 10 9 0 28 9 42 20 14 11 31 20 38 20 20 0 14 -58 -8 -77 -11 -10 -20 -27 -20 -38 0 -36 -12 -65 -26 -65 -9 0 -14 -11 -14 -27 0 -33 -9 -47 -32 -56 -12 -4 -18 -17 -18 -37 0 -16 -4 -30 -9 -30 -14 0 -57 -83 -65 -124 -4 -21 -14 -40 -22 -43 -7 -3 -14 -14 -14 -25 0 -11 -8 -22 -20 -25 -10 -3 -22 -13 -25 -23 -3 -10 -14 -28 -25 -40 -11 -13 -20 -31 -20 -42 0 -10 -6 -18 -14 -18 -17 0 -26 -22 -26 -61 l0 -29 1280 0 1280 0 55 57 c81 84 80 86 -70 254 -33 36 -73 83 -90 104 -16 20 -35 43 -42 50 -7 7 -15 26 -19 41 -4 16 -13 38 -21 50 -10 15 -11 36 -5 81 5 33 7 78 5 99 -7 72 -5 99 8 161 7 36 18 63 25 63 7 0 15 18 19 39 4 22 13 45 21 52 8 6 14 17 14 23 0 6 8 22 17 36 9 13 18 45 19 71 2 32 9 56 23 70 12 13 22 31 22 41 1 10 3 23 4 28 1 6 3 15 4 20 0 6 8 10 16 10 8 0 16 10 17 23 3 45 4 52 11 79 4 16 12 28 17 28 6 0 10 12 10 26 0 15 9 41 19 58 14 23 21 60 26 146 4 66 13 129 22 147 11 24 13 49 7 105 -12 126 -16 330 -7 339 6 6 4 32 -4 67 -7 31 -15 70 -18 85 -3 16 -17 35 -34 45 -16 10 -47 32 -68 50 -21 17 -66 53 -99 80 -73 57 -131 116 -150 154 -8 15 -39 52 -70 83 -48 49 -56 62 -61 105 -5 47 -8 50 -39 56 -26 5 -34 12 -39 34 -3 15 -15 36 -26 46 -11 10 -19 30 -19 49 0 17 -4 35 -10 41 -5 5 -16 37 -24 71 -8 35 -21 70 -30 78 -9 9 -16 30 -16 46 0 17 -6 42 -14 57 -7 15 -16 68 -20 117 -4 50 -15 112 -23 139 l-16 49 -98 -7 c-54 -4 -120 -13 -147 -21 -27 -8 -75 -19 -108 -24 -32 -5 -77 -16 -99 -24 -28 -11 -93 -16 -223 -19 -142 -2 -185 -6 -191 -17 -7 -11 -39 -12 -172 -7 -213 8 -419 27 -419 39 0 5 -7 4 -15 -3 -21 -18 -242 -7 -287 14 -18 8 -67 17 -108 21 -41 4 -86 13 -102 21 -15 8 -42 14 -60 14 -18 0 -50 9 -71 20 -51 27 -77 25 -112 -11 -16 -17 -43 -37 -60 -45 -16 -7 -37 -18 -45 -23 -8 -5 -26 -14 -40 -20 -14 -6 -45 -23 -70 -37 -25 -14 -67 -32 -93 -39 -26 -8 -53 -18 -60 -23 -7 -5 -41 -13 -76 -16 -36 -4 -77 -14 -92 -22 -40 -20 -387 -19 -444 1 -22 8 -71 18 -110 21 -38 3 -77 7 -85 8 -25 3 -214 78 -230 92 -8 7 -28 16 -44 20 -31 7 -106 53 -106 65 0 3 -20 12 -44 18 -46 11 -85 49 -65 62 6 3 -9 9 -34 13 -25 4 -51 14 -57 21 -7 8 -23 15 -36 15 -19 0 -24 6 -25 28 -1 15 -1 31 0 36 3 15 -19 34 -49 40 -18 3 -30 12 -30 21 0 8 -6 15 -13 15 -15 0 -107 97 -107 111 0 5 -6 9 -14 9 -8 0 -17 9 -21 19 -3 10 -17 22 -31 25 -14 4 -22 11 -19 16 3 6 0 10 -8 10 -7 0 -19 11 -25 25 -6 14 -18 25 -27 25 -8 0 -15 7 -15 15 0 8 -7 15 -15 15 -8 0 -15 4 -15 9 0 5 -27 36 -60 69 -33 33 -60 63 -60 67 0 4 -32 38 -71 76 -39 38 -68 69 -64 69 4 0 -14 21 -39 46 -25 26 -43 51 -40 55 3 5 1 9 -5 9 -14 0 -60 51 -68 75 -3 11 -14 26 -24 33 -11 7 -19 18 -19 23 0 10 -40 56 -117 134 -24 24 -43 53 -43 64 0 12 -6 21 -15 21 -8 0 -15 4 -15 8 0 15 -64 92 -76 92 -6 0 -16 -6 -21 -12z m287 -1738 c12 -8 12 -10 -4 -16 -11 -4 -24 0 -34 10 -15 15 -15 16 3 16 11 0 27 -4 35 -10z m3178 -2520 c7 -11 19 -20 26 -20 8 0 18 -4 21 -10 10 -16 -32 -12 -49 5 -19 19 -53 19 -90 0 -35 -18 -36 -18 -36 0 0 10 10 15 30 15 17 0 30 4 30 9 0 5 10 12 23 14 12 2 24 5 27 6 3 0 11 -8 18 -19z"></path></g></g><g id="lLuY5yQM5Cn5IoFJEQGAHu" fill="rgb(189,251,254)" style="transform: none;"><g style="transform: none;"><path id="p1HppKd0V6" d="M2090 5808 c0 -11 9 -22 20 -25 11 -3 20 -14 20 -24 0 -15 7 -19 31 -19 25 0 29 3 20 13 -6 8 -8 17 -4 20 3 4 -1 7 -10 7 -9 0 -19 11 -23 24 -7 31 -54 34 -54 4z"></path><path id="pjGRA75om" d="M2220 5667 c0 -40 12 -51 50 -45 20 3 19 5 -14 43 l-36 40 0 -38z"></path><path id="pIb0EU084" d="M2700 5165 c0 -22 4 -25 38 -25 l37 0 -29 25 c-37 31 -46 31 -46 0z"></path><path id="pUoxr8HPg" d="M4228 5159 c-17 -18 -17 -19 22 -19 44 0 49 6 23 26 -22 17 -24 16 -45 -7z"></path><path id="pYK4hoWfV" d="M6076 5098 c-9 -35 -8 -38 18 -38 19 0 23 5 22 27 -1 35 -31 43 -40 11z"></path><path id="pV3LzZ4jd" d="M2902 5048 c2 -19 10 -24 41 -26 21 -2 37 1 37 7 0 6 -6 11 -14 11 -8 0 -16 7 -20 15 -3 8 -15 15 -26 15 -16 0 -21 -5 -18 -22z"></path><path id="p16qsb46jE" d="M4460 5016 c0 -19 8 -27 35 -37 19 -7 35 -17 35 -21 0 -4 16 -8 35 -8 33 0 34 1 23 20 -7 11 -17 20 -21 20 -5 0 -21 8 -35 19 -15 10 -37 22 -49 25 -20 6 -23 4 -23 -18z"></path><path id="p3o51hfe8" d="M3799 4995 c-1 -5 -1 -13 0 -17 0 -5 -8 -8 -19 -8 -11 0 -20 -4 -20 -10 0 -5 18 -10 40 -10 33 0 40 3 40 19 0 11 -4 23 -10 26 -5 3 -10 0 -10 -7 0 -9 -3 -9 -10 2 -5 8 -10 11 -11 5z"></path><path id="pIw35MJt8" d="M3410 4935 c0 -24 2 -25 70 -25 68 0 70 1 70 25 0 24 -2 25 -70 25 -68 0 -70 -1 -70 -25z"></path><path id="pkKHfq2zz" d="M4620 4925 c0 -22 4 -25 35 -25 34 0 34 1 17 18 -32 32 -52 35 -52 7z"></path><path id="pw84Y1jKB" d="M6260 4860 c0 -28 4 -40 14 -40 8 0 17 -11 20 -25 8 -33 61 -37 63 -5 1 11 -3 20 -8 20 -14 0 -40 26 -33 33 7 6 -36 57 -48 57 -4 0 -8 -18 -8 -40z"></path><path id="pQuJUAot3" d="M5140 4604 c0 -22 4 -24 43 -24 39 1 41 2 19 13 -12 7 -20 16 -17 19 3 3 -6 8 -20 10 -21 4 -25 2 -25 -18z"></path><path id="p12G1aYi7E" d="M3187 3953 c-4 -3 -7 -24 -7 -45 0 -38 0 -38 38 -36 36 1 36 1 5 5 -19 3 -33 10 -33 18 0 19 17 28 23 13 3 -9 8 -6 13 7 4 11 15 25 23 32 13 10 10 12 -20 13 -20 0 -39 -3 -42 -7z"></path><path id="p1BG5vcfk9" d="M4030 3810 c0 -15 11 -19 63 -23 99 -9 196 -24 282 -46 98 -25 165 -28 165 -6 0 8 -6 15 -13 15 -7 0 -23 9 -36 21 -19 18 -35 21 -131 21 -70 1 -107 5 -103 11 3 6 1 7 -5 3 -6 -3 -14 -2 -17 4 -5 8 -12 7 -23 -2 -12 -10 -14 -10 -8 0 5 8 -2 12 -26 13 -18 1 -59 3 -90 5 -50 2 -58 0 -58 -16z"></path><path id="paNRtUnk5" d="M5060 3610 c0 -21 19 -30 61 -30 34 0 37 10 7 29 -33 21 -68 21 -68 1z"></path><path id="p1EApVs3hf" d="M5460 3480 c0 -17 7 -20 40 -20 22 0 40 5 40 10 0 6 -7 10 -15 10 -8 0 -15 5 -15 10 0 6 -11 10 -25 10 -18 0 -25 -5 -25 -20z"></path><path id="pDZ5UQjbQ" d="M5708 3423 c-10 -2 -18 -13 -18 -24 0 -16 7 -19 50 -19 37 0 50 -4 50 -15 0 -16 36 -28 71 -23 18 2 6 10 -48 32 -49 20 -70 33 -66 42 5 14 -6 16 -39 7z"></path><path id="pp8Fvw73c" d="M6460 3350 c0 -23 26 -26 53 -6 25 20 21 26 -18 26 -28 0 -35 -4 -35 -20z"></path><path id="p1CSRrcqCm" d="M5980 3280 c0 -16 7 -20 37 -20 35 0 36 0 18 20 -10 11 -26 20 -37 20 -11 0 -18 -7 -18 -20z"></path><path id="pttlb9QLK" d="M6140 3210 c0 -16 7 -20 37 -20 35 0 36 0 18 20 -10 11 -26 20 -37 20 -11 0 -18 -7 -18 -20z"></path><path id="p9pejBhpE" d="M6220 3172 c0 -12 31 -32 99 -64 53 -27 103 -48 109 -48 7 0 12 -4 12 -8 0 -11 46 -32 70 -32 11 0 20 -7 20 -15 0 -11 11 -15 42 -15 l42 0 -22 20 c-12 11 -25 20 -30 20 -5 0 -20 8 -33 19 -13 10 -35 22 -49 26 -13 4 -37 16 -52 26 -16 11 -41 28 -58 39 -16 11 -36 20 -44 20 -8 0 -16 5 -18 11 -2 6 -23 12 -46 15 -35 3 -42 1 -42 -14z"></path><path id="p1gt7R3GL" d="M6670 2936 c0 -38 122 -116 180 -116 l32 0 -29 30 c-15 17 -33 30 -39 30 -7 0 -14 7 -18 15 -3 8 -14 15 -25 15 -11 0 -21 4 -23 10 -1 5 -20 16 -40 25 -38 15 -38 15 -38 -9z"></path><path id="pbnv3EZmQ" d="M6900 2779 c0 -19 6 -32 18 -36 9 -4 21 -12 25 -20 4 -7 21 -13 37 -13 23 0 30 -5 30 -20 0 -23 48 -70 71 -70 9 0 19 -9 22 -20 4 -15 14 -20 41 -20 34 0 36 -1 36 -35 0 -31 3 -35 25 -35 18 0 25 -5 25 -20 0 -11 7 -20 15 -20 9 0 15 -9 15 -21 0 -12 8 -23 20 -26 11 -3 20 -11 20 -19 0 -7 6 -17 13 -21 6 -4 17 -17 23 -28 6 -11 21 -21 33 -23 16 -3 21 -10 21 -33 0 -19 5 -29 15 -29 9 0 15 -9 15 -21 0 -12 8 -23 20 -26 11 -3 20 -13 20 -22 0 -9 16 -47 36 -86 70 -138 76 -160 81 -300 5 -125 17 -176 29 -127 4 12 10 19 15 16 5 -3 9 50 9 120 0 105 -2 126 -15 126 -8 0 -15 6 -16 13 -3 75 -8 101 -20 111 -8 6 -20 27 -25 46 -6 19 -16 34 -21 33 -6 -1 -14 15 -18 37 -4 25 -12 40 -21 40 -8 0 -18 8 -21 17 -4 9 -14 24 -22 34 -45 48 -61 72 -61 90 0 12 -7 19 -20 19 -13 0 -20 7 -20 20 0 11 -7 20 -15 20 -8 0 -15 4 -15 10 0 5 -21 29 -47 54 -27 25 -74 70 -105 99 -32 30 -58 59 -58 65 0 5 -9 12 -20 15 -11 3 -19 11 -18 18 2 6 -10 16 -27 20 -16 5 -46 23 -65 41 -19 18 -45 38 -57 45 -22 11 -23 10 -23 -18z"></path><path id="pPK1nqzJH" d="M7540 1570 c0 -20 -5 -30 -15 -30 -10 0 -15 -10 -15 -30 0 -19 -5 -30 -14 -30 -17 0 -26 -22 -26 -61 l0 -30 25 27 c14 15 25 35 25 45 0 10 6 24 13 31 13 15 57 93 57 102 0 4 -11 6 -25 6 -21 0 -25 -5 -25 -30z"></path><path id="pe5pCj2ZZ" d="M7387 1363 c-4 -3 -7 -17 -7 -30 0 -14 -6 -23 -15 -23 -11 0 -15 -11 -15 -37 0 -32 9 -46 78 -115 42 -43 106 -112 142 -153 55 -63 70 -74 98 -75 29 0 32 -3 32 -31 0 -22 5 -32 20 -36 11 -3 20 -10 20 -15 0 -15 63 -78 77 -78 7 0 13 -4 13 -10 0 -5 17 -10 37 -10 l38 0 -48 45 c-27 25 -53 45 -58 45 -5 0 -9 6 -9 14 0 7 -9 16 -20 19 -11 3 -20 12 -20 21 0 9 -6 16 -13 16 -16 0 -67 52 -67 68 0 6 -6 15 -13 19 -8 4 -16 16 -20 26 -3 9 -13 17 -22 17 -8 0 -15 7 -15 15 0 9 -7 18 -15 21 -8 4 -15 12 -15 20 0 7 -11 16 -24 20 -13 3 -26 14 -29 25 -3 10 -12 19 -21 19 -9 0 -16 5 -16 12 0 7 -20 31 -45 55 -49 45 -57 72 -25 80 11 3 20 13 20 22 0 9 5 22 12 29 9 9 5 12 -18 12 -17 0 -34 -3 -37 -7z"></path><path id="p6bnwI9Ce" d="M9711 816 c-7 -8 -27 -18 -44 -22 -18 -3 -44 -15 -59 -25 -14 -11 -31 -19 -37 -19 -7 0 -21 -9 -33 -20 l-22 -20 42 0 c23 0 42 5 42 10 0 6 9 10 21 10 30 0 59 18 59 37 0 9 3 13 6 10 7 -7 -78 -206 -102 -242 -8 -11 -14 -34 -14 -51 0 -19 -6 -34 -15 -38 -14 -5 -23 -76 -10 -76 15 0 45 44 45 65 0 15 7 28 18 32 23 9 32 23 32 56 0 17 5 27 15 27 9 0 16 14 20 38 9 54 14 64 24 57 9 -5 22 38 22 70 0 6 6 17 13 25 22 25 28 77 10 84 -21 8 -20 8 -33 -8z"></path><path id="p1HvQGY3O3" d="M7952 693 c2 -18 10 -29 22 -31 10 -2 28 -13 39 -23 12 -10 31 -19 44 -19 13 0 23 -4 23 -9 0 -19 178 -81 232 -81 18 0 28 5 28 15 0 8 -7 15 -15 15 -8 0 -15 6 -15 14 0 14 -41 26 -87 26 -13 0 -31 6 -39 14 -8 8 -34 18 -59 22 -26 3 -45 12 -45 19 0 7 -14 15 -32 19 -17 3 -39 12 -47 20 -9 7 -24 16 -34 19 -15 6 -18 2 -15 -20z"></path><path id="ptyKuHSFh" d="M9448 696 c-26 -20 -22 -26 17 -26 28 0 35 4 35 20 0 23 -26 26 -52 6z"></path><path id="p10K4UAqP7" d="M9328 651 c-25 -25 -22 -31 11 -31 42 0 61 10 61 31 0 25 -48 25 -72 0z"></path><path id="p12Xq5wSc4" d="M9188 609 c-24 -26 -23 -29 10 -29 47 0 72 11 72 31 0 26 -58 25 -82 -2z"></path><path id="pUnu6zkJU" d="M9021 573 c-21 -14 -62 -17 -338 -17 -278 -1 -313 -3 -313 -17 0 -55 429 -54 718 2 41 8 52 14 52 30 0 16 -7 19 -48 19 -28 0 -57 -7 -71 -17z"></path><path id="p19wzgAtJa" d="M9448 266 c-21 -30 -38 -64 -38 -75 0 -12 -6 -21 -15 -21 -9 0 -15 -9 -15 -23 0 -12 -9 -28 -20 -35 -11 -7 -20 -23 -20 -37 0 -16 -6 -25 -15 -25 -9 0 -15 -9 -15 -25 0 -38 36 -34 44 5 3 18 12 30 21 30 8 0 15 3 16 8 3 27 9 44 22 57 9 8 18 24 22 34 3 10 15 21 25 24 11 3 20 13 20 22 0 10 7 23 15 29 9 6 18 28 22 49 9 57 -23 50 -69 -17z"></path></g></g><g id="llRtUOvnV2A6ffrupT8Gfu" fill="rgb(150,233,252)" style="transform: none;"><g style="transform: none;"><path id="p149uXfZpi" d="M659 5877 c-19 -12 -61 -44 -92 -71 -51 -43 -94 -90 -306 -326 -68 -75 -191 -228 -191 -236 0 -3 -16 -25 -35 -48 l-35 -43 0 -923 0 -922 88 6 c153 11 244 24 362 50 63 14 147 33 185 40 39 8 83 20 98 25 31 12 144 38 217 51 49 8 341 83 485 123 50 14 113 28 140 32 28 4 77 15 110 26 68 21 125 33 270 55 55 8 120 21 145 29 25 8 92 18 150 23 100 9 107 9 160 -15 88 -40 262 -109 293 -117 15 -3 27 -10 27 -14 0 -5 -33 -42 -74 -85 -40 -42 -96 -109 -123 -149 -27 -40 -71 -104 -96 -141 -26 -38 -47 -72 -47 -77 0 -6 -27 -69 -59 -142 -64 -142 -80 -209 -102 -415 -16 -155 9 -473 47 -596 9 -29 25 -81 36 -117 11 -36 31 -82 45 -103 l24 -38 87 6 c48 3 128 13 177 21 199 33 373 66 421 80 28 8 71 14 96 14 25 0 74 11 109 24 35 13 102 31 149 40 119 24 348 86 595 163 116 35 239 73 275 83 36 10 103 34 150 53 47 19 101 38 120 42 19 4 67 22 107 40 39 18 86 36 103 40 18 4 57 18 89 32 88 39 87 38 256 109 159 66 524 243 620 301 28 16 81 44 119 62 39 18 103 55 144 82 41 27 79 49 84 49 5 0 48 27 95 60 l86 59 143 -75 c79 -41 186 -102 237 -136 50 -34 114 -73 140 -86 27 -14 54 -33 60 -43 7 -11 15 -19 19 -19 12 0 116 -79 168 -126 25 -23 79 -72 120 -109 141 -129 233 -242 300 -372 28 -53 55 -102 59 -108 17 -22 53 -143 58 -196 13 -136 -56 -322 -172 -461 -49 -59 -55 -71 -55 -113 0 -46 2 -49 127 -183 156 -167 309 -315 371 -359 133 -94 196 -131 287 -165 90 -35 143 -48 325 -79 83 -14 346 -11 441 5 46 8 109 17 139 21 59 7 170 35 260 64 30 10 80 26 110 36 63 20 182 69 222 91 l27 15 -13 -38 c-21 -58 -82 -192 -115 -253 -17 -30 -37 -68 -45 -85 -8 -16 -35 -61 -60 -100 -25 -38 -52 -85 -60 -102 -8 -18 -26 -48 -40 -66 -34 -45 -35 -77 -1 -77 14 0 25 4 25 8 0 8 62 109 80 129 6 7 14 23 19 35 5 13 25 45 45 73 20 27 36 53 36 57 0 3 16 34 35 68 19 34 35 67 35 74 0 6 9 30 20 51 12 22 44 92 72 155 28 63 57 124 64 135 34 48 7 46 -104 -6 -154 -74 -233 -104 -412 -159 -41 -12 -95 -29 -120 -36 -154 -49 -539 -65 -736 -31 -119 20 -187 42 -294 96 -175 87 -294 188 -568 480 -150 160 -146 142 -61 238 29 32 58 72 65 90 8 17 26 53 42 80 16 26 34 77 41 113 17 87 14 264 -5 332 -18 63 -99 232 -128 269 -12 15 -30 39 -41 54 -76 107 -221 261 -320 340 -28 22 -54 45 -60 52 -5 6 -58 47 -117 90 -240 176 -477 309 -833 468 -16 8 -51 23 -76 34 -25 12 -50 21 -55 21 -5 0 -21 8 -34 18 -14 9 -43 22 -65 28 -22 6 -76 26 -120 44 -148 60 -169 68 -360 128 -274 87 -359 112 -381 112 -10 0 -32 7 -48 15 -15 8 -41 15 -57 15 -15 0 -50 8 -76 18 -26 10 -111 29 -188 41 -77 13 -180 31 -230 41 -139 29 -206 39 -400 59 -99 11 -211 24 -250 30 -38 6 -131 11 -205 11 -74 0 -186 3 -247 7 -164 9 -161 14 92 142 139 70 230 105 375 142 219 57 249 61 475 66 206 5 231 4 375 -21 145 -25 194 -37 395 -99 73 -23 362 -142 410 -169 11 -6 84 -44 163 -85 78 -40 166 -87 195 -105 29 -18 62 -38 73 -45 10 -7 64 -38 119 -70 55 -32 128 -76 161 -98 34 -22 99 -62 145 -90 45 -27 92 -59 103 -70 42 -40 73 -50 114 -36 35 13 153 96 203 144 13 13 62 52 109 89 47 36 124 101 171 144 47 44 111 102 142 129 31 28 57 55 57 62 0 6 6 14 12 16 7 3 3 6 -9 6 -13 1 -23 6 -23 11 0 6 -7 10 -15 10 -24 0 -145 125 -145 149 0 11 -6 21 -14 21 -8 0 -16 7 -20 15 -3 8 -12 15 -21 15 -21 0 -51 29 -59 58 -4 13 -15 22 -27 22 -10 0 -19 6 -19 14 0 7 -9 16 -20 19 -11 3 -20 12 -20 20 0 9 -9 18 -19 22 -18 5 -39 27 -94 94 -10 12 -15 26 -12 31 4 6 -2 10 -11 10 -17 0 -114 92 -114 108 0 4 -17 25 -38 47 -65 68 -162 192 -155 199 4 3 -1 6 -9 6 -15 0 -33 26 -30 43 1 4 -5 7 -13 7 -9 0 -15 6 -14 13 4 23 -13 47 -33 47 -10 0 -16 5 -13 10 3 6 1 10 -5 10 -6 0 -8 5 -5 10 3 6 -3 10 -15 10 -11 0 -24 8 -27 18 -4 9 -15 23 -26 31 -10 7 -16 19 -13 27 3 8 -1 14 -9 14 -16 0 -38 34 -28 44 3 3 -2 6 -13 7 -10 0 -13 3 -6 6 17 7 15 23 -3 23 -9 0 -16 -14 -20 -37 -17 -102 -58 -261 -79 -302 -73 -148 -114 -197 -231 -277 -38 -27 -45 -28 -165 -28 -129 0 -186 13 -253 57 -14 9 -34 17 -44 17 -25 0 -282 146 -433 245 -25 16 -65 40 -90 53 -25 14 -67 40 -93 59 -27 19 -56 37 -65 41 -17 7 -31 16 -202 127 -52 35 -110 70 -129 80 -35 18 -39 17 -113 -21 -14 -8 -33 -14 -42 -14 -9 0 -16 -4 -16 -10 0 -10 -139 -80 -158 -80 -5 0 -31 -9 -57 -21 -26 -11 -56 -19 -66 -16 -10 3 -19 1 -19 -3 0 -22 -106 -39 -202 -33 -71 4 -98 3 -98 -6 0 -6 -17 -11 -40 -11 -22 0 -40 4 -40 9 0 5 -58 8 -128 8 -107 -2 -132 1 -155 16 -14 9 -36 17 -47 17 -24 0 -80 27 -80 38 0 4 -16 7 -35 8 -19 0 -43 8 -53 17 -10 9 -24 17 -31 17 -6 0 -21 9 -33 20 -12 11 -30 20 -41 20 -10 0 -31 9 -45 20 -154 117 -201 158 -292 250 -58 58 -112 118 -120 134 -8 15 -44 60 -80 101 -60 68 -79 90 -151 177 l-26 31 -399 -2 c-384 -1 -631 11 -769 37 -27 5 -93 15 -145 22 -52 7 -99 14 -105 16 -5 2 -26 -7 -46 -19z"></path></g></g><g id="l32bLqKrAwcDIUVwdUuxrAj" fill="rgb(110,224,251)" style="transform: none;"><g style="transform: none;"><path id="pXfjT2J7S" d="M2210 3798 c-52 -4 -115 -15 -140 -23 -25 -8 -90 -21 -145 -29 -145 -22 -202 -34 -270 -55 -33 -11 -82 -22 -110 -26 -27 -4 -90 -18 -140 -32 -144 -40 -436 -115 -485 -123 -73 -13 -186 -39 -217 -51 -15 -5 -59 -17 -98 -25 -38 -7 -122 -26 -185 -40 -112 -25 -183 -35 -342 -50 -73 -6 -78 -8 -78 -30 0 -22 4 -24 43 -23 115 1 474 65 695 124 56 16 105 26 107 23 3 -3 10 -75 15 -161 20 -292 98 -572 173 -622 13 -8 32 -31 43 -50 18 -33 76 -83 135 -115 80 -44 179 -90 219 -103 64 -21 248 -47 333 -47 90 0 324 18 392 30 28 4 51 7 53 5 1 -1 7 -45 13 -96 22 -209 51 -345 93 -439 6 -14 -15 -18 -136 -33 -253 -30 -495 -40 -836 -34 -224 4 -356 10 -420 21 -51 8 -96 17 -100 20 -4 2 -57 9 -117 15 -113 11 -233 33 -280 51 -15 6 -59 15 -98 20 -40 6 -97 19 -127 29 -137 46 -156 51 -177 51 l-23 0 0 -285 0 -285 25 0 c14 0 42 8 63 19 20 10 80 30 132 45 52 14 109 30 125 35 218 70 527 88 765 45 113 -21 253 -60 315 -89 46 -21 153 -68 215 -94 14 -6 52 -29 85 -50 33 -22 78 -49 101 -60 22 -11 47 -28 55 -37 8 -10 64 -54 124 -99 61 -45 137 -109 170 -141 33 -32 83 -80 110 -105 28 -26 62 -59 77 -75 15 -16 43 -45 63 -64 20 -19 62 -64 93 -99 31 -35 80 -88 107 -116 l50 -52 -25 -16 c-52 -34 -128 -89 -200 -146 -41 -33 -103 -81 -137 -108 -127 -98 -203 -168 -203 -185 0 -17 28 -18 541 -18 536 0 540 0 537 20 -3 18 -129 162 -310 354 -66 70 -67 71 -46 86 57 40 253 137 338 167 52 18 104 37 115 42 95 42 200 73 340 100 55 11 120 27 145 36 28 11 98 20 185 25 77 5 156 12 175 15 50 9 388 -11 500 -30 52 -8 115 -22 140 -30 25 -8 68 -18 95 -21 28 -4 86 -17 130 -31 44 -13 96 -28 115 -33 109 -30 146 -42 203 -66 34 -14 80 -33 102 -41 22 -8 59 -23 83 -34 23 -10 47 -19 52 -19 11 0 129 -52 175 -76 17 -9 57 -30 90 -47 33 -17 61 -31 63 -32 8 -6 -12 -35 -24 -35 -7 0 -37 -19 -66 -43 -30 -24 -76 -59 -104 -78 -63 -44 -214 -194 -214 -214 0 -13 233 -15 1923 -15 l1922 1 32 47 c17 26 37 58 43 72 5 14 31 57 56 95 25 39 52 84 60 100 8 17 28 55 45 85 16 30 50 102 75 160 25 58 58 133 75 167 16 35 29 65 29 67 0 9 -48 -9 -100 -38 -141 -79 -482 -193 -630 -211 -30 -4 -93 -13 -139 -21 -95 -16 -299 -18 -381 -5 -307 53 -388 85 -612 244 -102 72 -498 480 -498 512 0 9 25 47 55 83 76 91 149 240 165 332 17 99 8 229 -20 310 -12 36 -26 70 -31 75 -4 6 -31 55 -59 108 -67 130 -159 243 -300 372 -41 37 -95 86 -120 109 -52 47 -156 126 -168 126 -4 0 -12 8 -19 19 -6 10 -33 29 -60 43 -26 13 -90 52 -140 86 -125 83 -374 212 -411 212 -19 0 -57 -20 -115 -60 -47 -33 -90 -60 -95 -60 -5 0 -43 -22 -84 -49 -41 -27 -105 -64 -144 -82 -38 -18 -91 -46 -119 -62 -96 -58 -461 -235 -620 -301 -169 -71 -168 -70 -256 -109 -32 -14 -71 -28 -89 -32 -17 -4 -64 -22 -103 -40 -40 -18 -88 -36 -107 -40 -19 -4 -73 -23 -120 -42 -47 -19 -114 -43 -150 -53 -36 -10 -159 -48 -275 -83 -247 -77 -476 -139 -595 -163 -47 -9 -114 -27 -149 -40 -35 -13 -84 -24 -109 -24 -25 0 -68 -6 -96 -14 -46 -13 -116 -27 -416 -80 -47 -8 -114 -16 -149 -17 -87 -3 -88 -2 -165 248 -18 58 -31 149 -41 273 -3 47 -8 105 -11 130 -5 52 20 285 41 375 7 33 30 96 51 140 20 44 49 111 65 148 16 38 50 99 76 135 27 37 66 93 87 126 22 32 82 101 133 155 51 53 92 100 90 105 -2 5 -18 14 -37 21 -94 34 -252 97 -312 124 -72 33 -83 34 -238 19z"></path><path id="p1HRcNZfFg" d="M0 475 l0 -475 610 0 c581 0 610 1 610 18 0 11 -19 30 -47 48 -42 25 -274 247 -284 270 -2 5 -31 46 -64 92 -33 46 -89 124 -125 175 -146 207 -185 246 -303 301 -74 35 -144 46 -284 46 l-113 0 0 -475z"></path></g></g><g id="l4Zxw9YmGBYsc3TEI1oZ2Ga" fill="rgb(62,212,246)" style="transform: none;"><g style="transform: none;"><path id="prh8lA2FA" d="M740 3453 c-212 -54 -401 -92 -578 -115 l-162 -22 0 -681 0 -681 58 -18 c31 -10 82 -27 112 -37 30 -10 87 -23 127 -29 39 -5 83 -14 98 -20 47 -18 167 -40 280 -51 60 -6 113 -13 117 -15 4 -3 49 -12 100 -21 129 -21 866 -27 1088 -8 287 24 390 38 390 53 0 7 -11 34 -24 60 -45 89 -66 183 -91 406 -8 71 -18 133 -22 137 -4 4 -39 1 -78 -6 -38 -8 -147 -19 -241 -26 -150 -10 -184 -10 -289 5 -138 20 -183 34 -283 84 -153 77 -209 117 -236 167 -11 19 -30 42 -43 50 -30 20 -79 118 -105 210 -46 163 -62 275 -72 518 -2 37 -5 69 -7 71 -2 2 -65 -12 -139 -31z"></path><path id="pOkVxyMsu" d="M700 1608 c-3 -3 -48 -8 -100 -12 -85 -5 -134 -16 -340 -72 -113 -31 -156 -45 -207 -67 l-53 -22 0 -260 0 -260 90 3 c117 4 203 -9 276 -44 119 -55 158 -94 304 -301 36 -51 92 -129 125 -175 33 -46 62 -87 64 -91 10 -24 234 -239 282 -270 l56 -37 469 0 469 0 75 65 c41 36 116 96 165 133 50 38 112 87 138 110 27 23 52 42 57 42 4 0 30 17 57 39 27 21 64 46 81 55 l32 16 63 -67 c35 -38 75 -80 88 -94 13 -15 80 -88 149 -163 l124 -136 1168 0 1168 0 82 82 c45 45 104 98 132 117 28 19 74 54 104 78 29 24 58 43 65 43 7 0 18 9 25 20 7 11 18 20 25 20 6 0 18 4 26 9 12 8 12 12 2 25 -8 9 -21 16 -30 16 -9 0 -50 18 -91 40 -41 23 -91 48 -110 56 -19 9 -59 27 -88 40 -29 13 -57 24 -62 24 -5 0 -29 9 -52 19 -24 11 -61 26 -83 34 -22 8 -68 27 -102 41 -57 24 -94 36 -203 66 -19 5 -71 20 -115 33 -44 14 -102 27 -130 31 -27 3 -70 13 -95 21 -113 37 -513 73 -675 61 -38 -3 -131 -10 -205 -15 -80 -5 -153 -16 -180 -26 -25 -9 -90 -25 -145 -36 -140 -27 -247 -59 -340 -100 -11 -5 -60 -23 -110 -40 -78 -27 -282 -126 -340 -166 -26 -18 -74 -17 -81 2 -4 8 -11 15 -18 15 -6 0 -43 35 -81 77 -122 136 -190 208 -198 212 -5 2 -21 17 -35 33 -15 17 -49 51 -77 77 -27 25 -77 73 -110 105 -33 32 -109 96 -170 141 -60 45 -116 89 -124 99 -8 9 -33 26 -55 37 -23 11 -68 38 -101 60 -33 21 -71 44 -85 50 -62 26 -169 73 -215 94 -61 28 -199 67 -317 90 -82 15 -427 33 -438 23z"></path></g></g></svg>
